<svg width="17" height="16" viewBox="0 0 17 16" fill="none" xmlns="http://www.w3.org/2000/svg">
<path d="M8.49967 8.66797C8.86786 8.66797 9.16634 8.36949 9.16634 8.0013C9.16634 7.63311 8.86786 7.33464 8.49967 7.33464C8.13148 7.33464 7.83301 7.63311 7.83301 8.0013C7.83301 8.36949 8.13148 8.66797 8.49967 8.66797Z" fill="#A8A29E"/>
<path d="M8.49967 4.0013C8.86786 4.0013 9.16634 3.70283 9.16634 3.33464C9.16634 2.96645 8.86786 2.66797 8.49967 2.66797C8.13148 2.66797 7.83301 2.96645 7.83301 3.33464C7.83301 3.70283 8.13148 4.0013 8.49967 4.0013Z" fill="#A8A29E"/>
<path d="M8.49967 13.3346C8.86786 13.3346 9.16634 13.0362 9.16634 12.668C9.16634 12.2998 8.86786 12.0013 8.49967 12.0013C8.13148 12.0013 7.83301 12.2998 7.83301 12.668C7.83301 13.0362 8.13148 13.3346 8.49967 13.3346Z" fill="#A8A29E"/>
<path d="M8.49967 8.66797C8.86786 8.66797 9.16634 8.36949 9.16634 8.0013C9.16634 7.63311 8.86786 7.33464 8.49967 7.33464C8.13148 7.33464 7.83301 7.63311 7.83301 8.0013C7.83301 8.36949 8.13148 8.66797 8.49967 8.66797Z" stroke="#A8A29E" stroke-width="1.5" stroke-linejoin="round"/>
<path d="M8.49967 4.0013C8.86786 4.0013 9.16634 3.70283 9.16634 3.33464C9.16634 2.96645 8.86786 2.66797 8.49967 2.66797C8.13148 2.66797 7.83301 2.96645 7.83301 3.33464C7.83301 3.70283 8.13148 4.0013 8.49967 4.0013Z" stroke="#A8A29E" stroke-width="1.5" stroke-linejoin="round"/>
<path d="M8.49967 13.3346C8.86786 13.3346 9.16634 13.0362 9.16634 12.668C9.16634 12.2998 8.86786 12.0013 8.49967 12.0013C8.13148 12.0013 7.83301 12.2998 7.83301 12.668C7.83301 13.0362 8.13148 13.3346 8.49967 13.3346Z" stroke="#A8A29E" stroke-width="1.5" stroke-linejoin="round"/>
</svg>
