<svg width="16" height="16" viewBox="0 0 16 16" fill="none" xmlns="http://www.w3.org/2000/svg">
<path fill-rule="evenodd" clip-rule="evenodd" d="M8 4.46465C8.35145 4.46465 8.63636 4.74956 8.63636 5.10101V7.36364H10.899C11.2504 7.36364 11.5354 7.64855 11.5354 8C11.5354 8.35145 11.2504 8.63636 10.899 8.63636H8.63636V10.899C8.63636 11.2504 8.35145 11.5354 8 11.5354C7.64854 11.5354 7.36363 11.2504 7.36363 10.899V8.63636H5.10101C4.74955 8.63636 4.46464 8.35145 4.46464 8C4.46464 7.64855 4.74955 7.36364 5.10101 7.36364H7.36363V5.10101C7.36363 4.74956 7.64854 4.46465 8 4.46465Z" fill="#1C1917"/>
<path fill-rule="evenodd" clip-rule="evenodd" d="M8 2.27273C4.83691 2.27273 2.27273 4.83691 2.27273 8C2.27273 11.1631 4.83691 13.7273 8 13.7273C11.1631 13.7273 13.7273 11.1631 13.7273 8C13.7273 4.83691 11.1631 2.27273 8 2.27273ZM1 8C1 4.13401 4.13401 1 8 1C11.866 1 15 4.13401 15 8C15 11.866 11.866 15 8 15C4.13401 15 1 11.866 1 8Z" fill="#1C1917"/>
</svg>
