<svg width="16" height="16" viewBox="0 0 16 16" fill="none" xmlns="http://www.w3.org/2000/svg">
<path d="M9.90007 5.29922C9.90007 4.24934 9.04994 3.39922 8.00007 3.39922C6.95019 3.39922 6.10006 4.24934 6.10006 5.29922C6.10006 6.3491 6.95019 7.19922 8.00007 7.19922C9.04994 7.19922 9.90007 6.3491 9.90007 5.29922ZM11.1001 5.29922C11.1001 7.01184 9.71269 8.39922 8.00007 8.39922C6.28744 8.39922 4.90007 7.01184 4.90007 5.29922C4.90007 3.5866 6.28744 2.19922 8.00007 2.19922C9.71269 2.19922 11.1001 3.5866 11.1001 5.29922ZM3.9334 12.2849C3.9334 12.7975 3.87289 12.7325 4.15693 12.7325H11.8432C12.1272 12.7325 12.0667 12.7975 12.0667 12.2849C12.0667 11.0232 10.2146 10.2659 8.00007 10.2659C5.78553 10.2659 3.9334 11.0232 3.9334 12.2849ZM2.7334 12.2849C2.7334 10.0671 5.18192 9.06588 8.00007 9.06588C10.8182 9.06588 13.2667 10.0671 13.2667 12.2849C13.2667 13.442 12.8097 13.9325 11.8432 13.9325H4.15693C3.19042 13.9325 2.7334 13.442 2.7334 12.2849Z" fill="#1C1917"/>
</svg>
