<svg width="21" height="26" viewBox="0 0 21 26" fill="none" xmlns="http://www.w3.org/2000/svg">
<g filter="url(#filter0_d_3_29641)">
<path fill-rule="evenodd" clip-rule="evenodd" d="M8.00391 9.20703L12.9953 12.0888L7.70332 21.2548C7.32621 21.9079 6.38933 21.9245 5.98943 21.285L5.14129 19.9288L3.5427 19.8724C2.78896 19.8458 2.33483 19.0262 2.71193 18.373L8.00391 9.20703Z" fill="#F55462"/>
</g>
<mask id="mask0_3_29641" style="mask-type:luminance" maskUnits="userSpaceOnUse" x="2" y="9" width="11" height="13">
<path fill-rule="evenodd" clip-rule="evenodd" d="M8.00391 9.20703L12.9953 12.0888L7.70332 21.2548C7.32621 21.9079 6.38933 21.9245 5.98943 21.285L5.14129 19.9288L3.5427 19.8724C2.78896 19.8458 2.33483 19.0262 2.71193 18.373L8.00391 9.20703Z" fill="white"/>
</mask>
<g mask="url(#mask0_3_29641)">
<path fill-rule="evenodd" clip-rule="evenodd" d="M6.37012 14.918L8.86581 16.3589L5.62381 21.9742L3.12812 20.5333L6.37012 14.918Z" fill="white"/>
</g>
<g filter="url(#filter1_d_3_29641)">
<path fill-rule="evenodd" clip-rule="evenodd" d="M12.9956 9.20703L8.00422 12.0888L13.2962 21.2548C13.6733 21.9079 14.6102 21.9245 15.0101 21.285L15.8582 19.9288L17.4568 19.8724C18.2105 19.8458 18.6647 19.0262 18.2876 18.373L12.9956 9.20703Z" fill="#F55462"/>
</g>
<mask id="mask1_3_29641" style="mask-type:luminance" maskUnits="userSpaceOnUse" x="8" y="9" width="11" height="13">
<path fill-rule="evenodd" clip-rule="evenodd" d="M12.9956 9.20703L8.00422 12.0888L13.2962 21.2548C13.6733 21.9079 14.6102 21.9245 15.0101 21.285L15.8582 19.9288L17.4568 19.8724C18.2105 19.8458 18.6647 19.0262 18.2876 18.373L12.9956 9.20703Z" fill="white"/>
</mask>
<g mask="url(#mask1_3_29641)">
<path fill-rule="evenodd" clip-rule="evenodd" d="M14.6299 14.918L12.1342 16.3589L15.3762 21.9742L17.8719 20.5333L14.6299 14.918Z" fill="white"/>
</g>
<path style="mix-blend-mode:multiply" opacity="0.2" fill-rule="evenodd" clip-rule="evenodd" d="M8.49933 3.87515C9.73694 3.16062 11.2617 3.16062 12.4993 3.87515L15.6744 5.70831C16.9121 6.42284 17.6745 7.74335 17.6745 9.17241V12.8387C17.6745 14.2678 16.9121 15.5883 15.6745 16.3028L12.4993 18.136C11.2617 18.8505 9.73694 18.8505 8.49934 18.136L5.32422 16.3028C4.08662 15.5883 3.32422 14.2678 3.32422 12.8387L3.32422 9.17241C3.32422 7.74335 4.08661 6.42284 5.32422 5.70831L8.49933 3.87515Z" fill="#0602F3"/>
<path fill-rule="evenodd" clip-rule="evenodd" d="M16.984 5.91701C16.984 5.5081 17.233 5.1404 17.6127 4.98853L17.9623 4.84866C18.3564 4.69102 18.7852 4.98127 18.7852 5.40575V9.96628C18.7852 10.3752 18.5362 10.7429 18.1565 10.8948L16.984 11.3638V5.91701Z" fill="url(#paint0_linear_3_29641)" stroke="url(#paint1_linear_3_29641)" stroke-linecap="round" stroke-linejoin="round"/>
<mask id="mask2_3_29641" style="mask-type:luminance" maskUnits="userSpaceOnUse" x="16" y="4" width="4" height="8">
<path fill-rule="evenodd" clip-rule="evenodd" d="M16.984 5.84968C16.984 5.48144 17.2082 5.1503 17.5501 5.01354C18.1417 4.77692 18.7852 5.21257 18.7852 5.84968V10.0336C18.7852 10.4018 18.561 10.733 18.2191 10.8697C17.6275 11.1064 16.984 10.6707 16.984 10.0336V5.84968Z" fill="white" stroke="white"/>
</mask>
<g mask="url(#mask2_3_29641)">
<g opacity="0.04">
<path fill-rule="evenodd" clip-rule="evenodd" d="M13.4991 2.98949C11.6427 1.91769 9.35555 1.91769 7.49914 2.98949L5.68285 4.03813C3.82644 5.10992 2.68285 7.09068 2.68285 9.23428V11.3316C2.68285 13.4751 3.82644 15.4559 5.68285 16.5277L7.49914 17.5763C9.35555 18.6481 11.6427 18.6481 13.4991 17.5763L15.3154 16.5277C17.1718 15.4559 18.3154 13.4751 18.3154 11.3315L18.3154 9.23427C18.3154 7.09068 17.1718 5.10992 15.3154 4.03812L13.4991 2.98949Z" fill="#0602F3" style="mix-blend-mode:multiply"/>
</g>
</g>
<path fill-rule="evenodd" clip-rule="evenodd" d="M4.01547 5.91701C4.01547 5.5081 3.76652 5.1404 3.38686 4.98853L3.03719 4.84866C2.64307 4.69102 2.21436 4.98127 2.21436 5.40575V9.96628C2.21436 10.3752 2.46331 10.7429 2.84296 10.8948L4.01547 11.3638V5.91701Z" fill="url(#paint2_linear_3_29641)" stroke="url(#paint3_linear_3_29641)" stroke-linecap="round" stroke-linejoin="round"/>
<mask id="mask3_3_29641" style="mask-type:luminance" maskUnits="userSpaceOnUse" x="1" y="4" width="4" height="8">
<path fill-rule="evenodd" clip-rule="evenodd" d="M4.01547 5.84968C4.01547 5.48144 3.79127 5.1503 3.44937 5.01354C2.85783 4.77692 2.21436 5.21257 2.21436 5.84968V10.0336C2.21436 10.4018 2.43855 10.733 2.78045 10.8697C3.372 11.1064 4.01547 10.6707 4.01547 10.0336V5.84968Z" fill="white" stroke="white"/>
</mask>
<g mask="url(#mask3_3_29641)">
<g opacity="0.04">
<path fill-rule="evenodd" clip-rule="evenodd" d="M7.49891 2.98949C9.35532 1.91769 11.6425 1.91769 13.4989 2.98949L15.3152 4.03813C17.1716 5.10992 18.3152 7.09068 18.3152 9.23428V11.3316C18.3152 13.4751 17.1716 15.4559 15.3152 16.5277L13.4989 17.5763C11.6425 18.6481 9.35531 18.6481 7.49891 17.5763L5.68262 16.5277C3.82621 15.4559 2.68262 13.4751 2.68262 11.3315L2.68262 9.23427C2.68262 7.09068 3.82621 5.10992 5.68262 4.03812L7.49891 2.98949Z" fill="#0602F3" style="mix-blend-mode:multiply"/>
</g>
</g>
<path fill-rule="evenodd" clip-rule="evenodd" d="M15.1827 4.43163C15.1827 3.75882 14.5316 3.27799 13.8886 3.47585L10.4998 4.51856L7.11098 3.47585C6.46793 3.27799 5.81689 3.75882 5.81689 4.43163V8.20145C5.81689 8.75373 6.26461 9.20145 6.81689 9.20145H14.1827C14.735 9.20145 15.1827 8.75373 15.1827 8.20145V4.43163Z" fill="url(#paint4_linear_3_29641)" stroke="url(#paint5_linear_3_29641)" stroke-linecap="round" stroke-linejoin="round"/>
<mask id="mask4_3_29641" style="mask-type:luminance" maskUnits="userSpaceOnUse" x="5" y="2" width="11" height="5">
<path fill-rule="evenodd" clip-rule="evenodd" d="M15.1827 4.43209C15.1827 3.75928 14.5316 3.27844 13.8886 3.47631L10.4998 4.51901L7.11098 3.47631C6.46793 3.27844 5.81689 3.75928 5.81689 4.43208V4.9599C5.81689 5.51219 6.26461 5.9599 6.81689 5.9599H14.1827C14.735 5.9599 15.1827 5.51219 15.1827 4.9599V4.43209Z" fill="white" stroke="white" stroke-linecap="round" stroke-linejoin="round"/>
</mask>
<g mask="url(#mask4_3_29641)">
<g opacity="0.04">
<path fill-rule="evenodd" clip-rule="evenodd" d="M7.4994 2.98753C9.3558 1.91574 11.643 1.91574 13.4994 2.98754L15.3157 4.03617C17.1721 5.10797 18.3157 7.08873 18.3157 9.23232V11.3296C18.3157 13.4732 17.1721 15.454 15.3157 16.5257L13.4994 17.5744C11.643 18.6462 9.3558 18.6462 7.4994 17.5744L5.68311 16.5257C3.8267 15.454 2.68311 13.4732 2.68311 11.3296L2.68311 9.23232C2.68311 7.08873 3.8267 5.10797 5.68311 4.03617L7.4994 2.98753Z" fill="#0602F3" style="mix-blend-mode:multiply"/>
</g>
</g>
<path fill-rule="evenodd" clip-rule="evenodd" d="M8.49947 3.1547C9.73707 2.44017 11.2619 2.44017 12.4995 3.1547L15.6746 4.98785C16.9122 5.70239 17.6746 7.02289 17.6746 8.45196V12.1183C17.6746 13.5473 16.9122 14.8678 15.6746 15.5824L12.4995 17.4155C11.2619 18.1301 9.73707 18.1301 8.49947 17.4155L5.32435 15.5824C4.08675 14.8678 3.32435 13.5473 3.32435 12.1183V8.45196C3.32435 7.02289 4.08675 5.70239 5.32435 4.98785L8.49947 3.1547Z" fill="url(#paint6_linear_3_29641)" stroke="#FFF04D" stroke-opacity="0.4"/>
<path d="M11.1298 2.57321C10.7397 2.34799 10.2591 2.34799 9.86901 2.57321L4.13478 5.88387C3.7447 6.10908 3.50439 6.5253 3.50439 6.97573L3.50439 13.597C3.50439 14.0475 3.7447 14.4637 4.13478 14.6889L9.86901 17.9996C10.2591 18.2248 10.7397 18.2248 11.1298 17.9996L16.864 14.6889C17.2541 14.4637 17.4944 14.0475 17.4944 13.597V6.97573C17.4944 6.5253 17.2541 6.10908 16.864 5.88387L11.1298 2.57321Z" stroke="#F9B307"/>
<path opacity="0.4" d="M11.1299 17.9995C11.8043 17.6102 12.2821 17.3343 12.5634 17.1719" stroke="white" stroke-linecap="round"/>
<path d="M17.4944 13.597V6.97573C17.4944 6.5253 17.2541 6.10908 16.864 5.88387L11.1298 2.57321C10.7397 2.34799 10.2591 2.34799 9.86901 2.57321L4.13478 5.88387C3.7447 6.10908 3.50439 6.5253 3.50439 6.97573L3.50439 13.597" stroke="#FAC00E" stroke-linecap="round"/>
<path opacity="0.6" d="M17.4944 6.97573C17.4944 6.5253 17.2541 6.10908 16.864 5.88387L11.1298 2.57321C10.7397 2.34799 10.2591 2.34799 9.86901 2.57321L4.13478 5.88387C3.7447 6.10908 3.50439 6.5253 3.50439 6.97573" stroke="#FDDB3D" stroke-linecap="round"/>
<path opacity="0.6" d="M11.1298 2.57321C10.7398 2.34799 10.2592 2.34799 9.86907 2.57321C9.86907 2.57321 7.95766 3.67676 7.00195 4.22854" stroke="white" stroke-linecap="round"/>
<path d="M9.8691 2.57227C9.8691 2.57227 8.85751 3.15631 8.43555 3.39993" stroke="white" stroke-linecap="round"/>
<g filter="url(#filter2_d_3_29641)">
<path fill-rule="evenodd" clip-rule="evenodd" d="M9.49939 5.09688C10.1182 4.73962 10.8806 4.73962 11.4994 5.09688L14.4908 6.82396C15.1096 7.18122 15.4908 7.84148 15.4908 8.55601V12.0102C15.4908 12.7247 15.1096 13.3849 14.4908 13.7422L11.4994 15.4693C10.8806 15.8266 10.1182 15.8266 9.4994 15.4693L6.50801 13.7422C5.88921 13.3849 5.50801 12.7247 5.50801 12.0102V8.55601C5.50801 7.84148 5.88921 7.18122 6.50801 6.82396L9.49939 5.09688Z" fill="url(#paint7_linear_3_29641)"/>
<path d="M9.396 4.58496C10.1409 4.21852 11.0243 4.24535 11.7495 4.66406L14.7407 6.39062L14.8823 6.47949C15.5718 6.94136 15.9906 7.71855 15.9907 8.55566V12.0098C15.9907 12.8471 15.5719 13.625 14.8823 14.0869L14.7407 14.1748L11.7495 15.9023C11.0242 16.3211 10.141 16.3471 9.396 15.9805L9.24951 15.9023L6.2583 14.1748C5.4848 13.7282 5.0083 12.9029 5.0083 12.0098V8.55566L5.01318 8.38965C5.06829 7.56129 5.53307 6.80934 6.2583 6.39062L9.24951 4.66406L9.396 4.58496Z" stroke="#F5900D" stroke-opacity="0.1" style="mix-blend-mode:multiply"/>
</g>
<mask id="mask5_3_29641" style="mask-type:luminance" maskUnits="userSpaceOnUse" x="5" y="4" width="11" height="12">
<path fill-rule="evenodd" clip-rule="evenodd" d="M9.49939 5.09688C10.1182 4.73962 10.8806 4.73962 11.4994 5.09688L14.4908 6.82396C15.1096 7.18122 15.4908 7.84148 15.4908 8.55601V12.0102C15.4908 12.7247 15.1096 13.3849 14.4908 13.7422L11.4994 15.4693C10.8806 15.8266 10.1182 15.8266 9.4994 15.4693L6.50801 13.7422C5.88921 13.3849 5.50801 12.7247 5.50801 12.0102V8.55601C5.50801 7.84148 5.88921 7.18122 6.50801 6.82396L9.49939 5.09688Z" fill="white"/>
</mask>
<g mask="url(#mask5_3_29641)">
<g style="mix-blend-mode:multiply" opacity="0.3">
<path fill-rule="evenodd" clip-rule="evenodd" d="M10.4994 10.2831L4.73584 11.724V8.8422L10.4994 10.2831ZM10.4994 10.2831L11.9403 4.51953H9.05851L10.4994 10.2831ZM10.4994 10.2831L16.263 8.8422V11.724L10.4994 10.2831ZM10.4994 10.2831L13.556 5.18878L15.5937 7.2265L10.4994 10.2831ZM10.4994 10.2831L13.556 15.3774L15.5937 13.3397L10.4994 10.2831ZM10.4994 10.2831L9.05851 16.0466H11.9403L10.4994 10.2831ZM10.4994 10.2831L7.44281 15.3774L5.40508 13.3397L10.4994 10.2831Z" fill="#FFD640"/>
<path d="M7.44281 5.18878L5.40508 7.2265L10.4994 10.2831L7.44281 5.18878Z" fill="#FFD640"/>
</g>
<path opacity="0.4" d="M15.0407 7.35072L10.7698 4.88489C10.6026 4.78837 10.3966 4.78837 10.2294 4.88489C9.72714 5.17489 9.37122 5.38038 9.1617 5.50135C8.72566 5.7531 8.36975 5.95858 8.09397 6.11781C7.61942 6.39179 6.90759 6.80276 5.9585 7.35072" stroke="white" stroke-linecap="round"/>
<path opacity="0.4" d="M15.0408 13.2059L10.7698 15.6717C10.6026 15.7683 10.3967 15.7683 10.2295 15.6717" stroke="white" stroke-linecap="round"/>
<path d="M10.2294 4.88477C9.72705 5.17477 9.37114 5.38026 9.16162 5.50122" stroke="white" stroke-linecap="round"/>
</g>
<g filter="url(#filter3_d_3_29641)">
<path d="M9.58065 9.02009L10.4993 7.67969L11.4179 9.02009L12.9766 9.47956L11.9857 10.7674L12.0303 12.3918L10.4993 11.8474L8.96822 12.3918L9.0129 10.7674L8.02197 9.47956L9.58065 9.02009Z" fill="white"/>
<path d="M10.4995 7.17969C10.6643 7.17976 10.8184 7.2615 10.9116 7.39746L11.729 8.58984L13.1177 9C13.2759 9.04663 13.4007 9.16836 13.4517 9.3252C13.5026 9.48202 13.4731 9.65349 13.3726 9.78418L12.4897 10.9307L12.5298 12.3779C12.5343 12.5426 12.4578 12.6989 12.3247 12.7959C12.1913 12.8928 12.0181 12.9185 11.8628 12.8633L10.4985 12.3779L9.13623 12.8633C8.98085 12.9185 8.80773 12.8928 8.67432 12.7959C8.54103 12.699 8.46373 12.5427 8.46826 12.3779L8.50732 10.9307L7.62549 9.78418C7.52513 9.65356 7.49553 9.48188 7.54639 9.3252C7.59732 9.16843 7.7223 9.04668 7.88037 9L9.26904 8.58984L10.0864 7.39746L10.1675 7.30566C10.2579 7.22543 10.3758 7.17969 10.4995 7.17969Z" stroke="white" stroke-linejoin="round"/>
</g>
<path d="M9.58065 9.02009L10.4993 7.67969L11.4179 9.02009L12.9766 9.47956L11.9857 10.7674L12.0303 12.3918L10.4993 11.8474L8.96822 12.3918L9.0129 10.7674L8.02197 9.47956L9.58065 9.02009Z" fill="url(#paint8_linear_3_29641)"/>
<path opacity="0.4" d="M10.4992 10.2845V7.67969L9.56836 9.00165L10.4992 10.2845Z" fill="url(#paint9_linear_3_29641)"/>
<path opacity="0.8" d="M10.4993 10.2848L9.56843 9.00195L8.02197 9.47986L10.4993 10.2848Z" fill="url(#paint10_linear_3_29641)"/>
<path opacity="0.5" d="M10.4993 10.2832L8.99211 10.7736L8.96826 12.3905L10.4993 10.2832Z" fill="url(#paint11_linear_3_29641)"/>
<path opacity="0.4" d="M12.0306 12.3905L12.0067 10.7736L10.4995 10.2832L12.0306 12.3905Z" fill="url(#paint12_linear_3_29641)"/>
<path d="M12.0067 10.7758L12.9768 9.48047L10.4995 10.2854L12.0067 10.7758Z" fill="#FEBA1B"/>
<path opacity="0.6" d="M12.9768 9.47986L11.4304 9.00195L10.4995 10.2848L12.9768 9.47986Z" fill="url(#paint13_linear_3_29641)"/>
<g filter="url(#filter4_d_3_29641)">
<path fill-rule="evenodd" clip-rule="evenodd" d="M14.4297 8.04326L14.2426 7.96947C14.1282 7.92435 14.072 7.79502 14.1172 7.6806C14.1398 7.62321 14.1852 7.57778 14.2426 7.55514L14.4297 7.48136C14.6454 7.39627 14.8162 7.2255 14.9013 7.00977L14.9751 6.82269C15.0202 6.70828 15.1495 6.65211 15.2639 6.69723C15.3213 6.71987 15.3668 6.7653 15.3894 6.82269L15.4632 7.00977C15.5483 7.2255 15.719 7.39627 15.9348 7.48136L16.1218 7.55514C16.2363 7.60026 16.2924 7.7296 16.2473 7.84401C16.2247 7.90141 16.1792 7.94684 16.1218 7.96947L15.9348 8.04326C15.719 8.12834 15.5483 8.29911 15.4632 8.51485L15.3894 8.70192C15.3443 8.81634 15.2149 8.87251 15.1005 8.82738C15.0431 8.80475 14.9977 8.75932 14.9751 8.70192L14.9013 8.51485C14.8162 8.29911 14.6454 8.12834 14.4297 8.04326Z" fill="white"/>
</g>
<g filter="url(#filter5_d_3_29641)">
<path fill-rule="evenodd" clip-rule="evenodd" d="M6.39551 14.0718L6.27079 14.0226C6.19452 13.9925 6.15707 13.9063 6.18715 13.83C6.20224 13.7918 6.23253 13.7615 6.27079 13.7464L6.39551 13.6972C6.53933 13.6405 6.65318 13.5266 6.7099 13.3828L6.75909 13.2581C6.78917 13.1818 6.8754 13.1444 6.95167 13.1745C6.98994 13.1895 7.02022 13.2198 7.03531 13.2581L7.0845 13.3828C7.14122 13.5266 7.25507 13.6405 7.3989 13.6972L7.52361 13.7464C7.59989 13.7765 7.63734 13.8627 7.60725 13.939C7.59216 13.9772 7.56188 14.0075 7.52361 14.0226L7.3989 14.0718C7.25507 14.1285 7.14122 14.2424 7.0845 14.3862L7.03531 14.5109C7.00523 14.5872 6.91901 14.6246 6.84273 14.5946C6.80447 14.5795 6.77418 14.5492 6.75909 14.5109L6.7099 14.3862C6.65318 14.2424 6.53933 14.1285 6.39551 14.0718Z" fill="white"/>
</g>
<g filter="url(#filter6_d_3_29641)">
<path fill-rule="evenodd" clip-rule="evenodd" d="M5.00928 8.53702L4.85338 8.47554C4.75804 8.43793 4.71123 8.33016 4.74883 8.23481C4.76769 8.18698 4.80555 8.14912 4.85338 8.13026L5.00928 8.06877C5.18906 7.99787 5.33137 7.85556 5.40227 7.67578L5.46376 7.51989C5.50136 7.42454 5.60914 7.37773 5.70448 7.41534C5.75231 7.4342 5.79017 7.47206 5.80903 7.51989L5.87052 7.67578C5.94142 7.85556 6.08373 7.99787 6.26351 8.06877L6.41941 8.13026C6.51475 8.16786 6.56156 8.27564 6.52396 8.37099C6.5051 8.41882 6.46724 8.45668 6.41941 8.47554L6.26351 8.53702C6.08373 8.60793 5.94142 8.75024 5.87052 8.93002L5.80903 9.08591C5.77143 9.18126 5.66365 9.22807 5.56831 9.19046C5.52048 9.1716 5.48262 9.13374 5.46376 9.08591L5.40227 8.93002C5.33137 8.75024 5.18906 8.60793 5.00928 8.53702Z" fill="white"/>
</g>
<g filter="url(#filter7_d_3_29641)">
<path fill-rule="evenodd" clip-rule="evenodd" d="M14.2656 13.8449L14.1721 13.808C14.1149 13.7854 14.0868 13.7208 14.1094 13.6635C14.1207 13.6348 14.1434 13.6121 14.1721 13.6008L14.2656 13.5639C14.3735 13.5214 14.4589 13.436 14.5014 13.3281L14.5383 13.2346C14.5609 13.1774 14.6255 13.1493 14.6827 13.1719C14.7114 13.1832 14.7342 13.2059 14.7455 13.2346L14.7824 13.3281C14.8249 13.436 14.9103 13.5214 15.0182 13.5639L15.1117 13.6008C15.1689 13.6234 15.197 13.688 15.1744 13.7452C15.1631 13.7739 15.1404 13.7967 15.1117 13.808L15.0182 13.8449C14.9103 13.8874 14.8249 13.9728 14.7824 14.0807L14.7455 14.1742C14.7229 14.2314 14.6583 14.2595 14.601 14.2369C14.5723 14.2256 14.5496 14.2029 14.5383 14.1742L14.5014 14.0807C14.4589 13.9728 14.3735 13.8874 14.2656 13.8449Z" fill="white"/>
</g>
<defs>
<filter id="filter0_d_3_29641" x="0.57666" y="9.20703" width="14.4185" height="16.5469" filterUnits="userSpaceOnUse" color-interpolation-filters="sRGB">
<feFlood flood-opacity="0" result="BackgroundImageFix"/>
<feColorMatrix in="SourceAlpha" type="matrix" values="0 0 0 0 0 0 0 0 0 0 0 0 0 0 0 0 0 0 127 0" result="hardAlpha"/>
<feOffset dy="2"/>
<feGaussianBlur stdDeviation="1"/>
<feColorMatrix type="matrix" values="0 0 0 0 0.401412 0 0 0 0 0.333333 0 0 0 0 0.819608 0 0 0 0.2 0"/>
<feBlend mode="darken" in2="BackgroundImageFix" result="effect1_dropShadow_3_29641"/>
<feBlend mode="normal" in="SourceGraphic" in2="effect1_dropShadow_3_29641" result="shape"/>
</filter>
<filter id="filter1_d_3_29641" x="6.00439" y="9.20703" width="14.4185" height="16.5469" filterUnits="userSpaceOnUse" color-interpolation-filters="sRGB">
<feFlood flood-opacity="0" result="BackgroundImageFix"/>
<feColorMatrix in="SourceAlpha" type="matrix" values="0 0 0 0 0 0 0 0 0 0 0 0 0 0 0 0 0 0 127 0" result="hardAlpha"/>
<feOffset dy="2"/>
<feGaussianBlur stdDeviation="1"/>
<feColorMatrix type="matrix" values="0 0 0 0 0.401412 0 0 0 0 0.333333 0 0 0 0 0.819608 0 0 0 0.2 0"/>
<feBlend mode="darken" in2="BackgroundImageFix" result="effect1_dropShadow_3_29641"/>
<feBlend mode="normal" in="SourceGraphic" in2="effect1_dropShadow_3_29641" result="shape"/>
</filter>
<filter id="filter2_d_3_29641" x="2.50781" y="2.82812" width="15.9834" height="16.9082" filterUnits="userSpaceOnUse" color-interpolation-filters="sRGB">
<feFlood flood-opacity="0" result="BackgroundImageFix"/>
<feColorMatrix in="SourceAlpha" type="matrix" values="0 0 0 0 0 0 0 0 0 0 0 0 0 0 0 0 0 0 127 0" result="hardAlpha"/>
<feOffset dy="1"/>
<feGaussianBlur stdDeviation="1"/>
<feColorMatrix type="matrix" values="0 0 0 0 0.927721 0 0 0 0 0.665867 0 0 0 0 0.0535899 0 0 0 0.4 0"/>
<feBlend mode="normal" in2="BackgroundImageFix" result="effect1_dropShadow_3_29641"/>
<feBlend mode="normal" in="SourceGraphic" in2="effect1_dropShadow_3_29641" result="shape"/>
</filter>
<filter id="filter3_d_3_29641" x="5.02197" y="5.67969" width="10.9546" height="10.7129" filterUnits="userSpaceOnUse" color-interpolation-filters="sRGB">
<feFlood flood-opacity="0" result="BackgroundImageFix"/>
<feColorMatrix in="SourceAlpha" type="matrix" values="0 0 0 0 0 0 0 0 0 0 0 0 0 0 0 0 0 0 127 0" result="hardAlpha"/>
<feOffset dy="1"/>
<feGaussianBlur stdDeviation="1"/>
<feColorMatrix type="matrix" values="0 0 0 0 0.996078 0 0 0 0 0.733333 0 0 0 0 0.105882 0 0 0 1 0"/>
<feBlend mode="normal" in2="BackgroundImageFix" result="effect1_dropShadow_3_29641"/>
<feBlend mode="normal" in="SourceGraphic" in2="effect1_dropShadow_3_29641" result="shape"/>
</filter>
<filter id="filter4_d_3_29641" x="12.1016" y="4.68164" width="6.16113" height="6.16211" filterUnits="userSpaceOnUse" color-interpolation-filters="sRGB">
<feFlood flood-opacity="0" result="BackgroundImageFix"/>
<feColorMatrix in="SourceAlpha" type="matrix" values="0 0 0 0 0 0 0 0 0 0 0 0 0 0 0 0 0 0 127 0" result="hardAlpha"/>
<feOffset/>
<feGaussianBlur stdDeviation="1"/>
<feColorMatrix type="matrix" values="0 0 0 0 1 0 0 0 0 0.94902 0 0 0 0 0.305882 0 0 0 1 0"/>
<feBlend mode="normal" in2="BackgroundImageFix" result="effect1_dropShadow_3_29641"/>
<feBlend mode="normal" in="SourceGraphic" in2="effect1_dropShadow_3_29641" result="shape"/>
</filter>
<filter id="filter5_d_3_29641" x="4.17676" y="11.1641" width="5.44092" height="5.44141" filterUnits="userSpaceOnUse" color-interpolation-filters="sRGB">
<feFlood flood-opacity="0" result="BackgroundImageFix"/>
<feColorMatrix in="SourceAlpha" type="matrix" values="0 0 0 0 0 0 0 0 0 0 0 0 0 0 0 0 0 0 127 0" result="hardAlpha"/>
<feOffset/>
<feGaussianBlur stdDeviation="1"/>
<feColorMatrix type="matrix" values="0 0 0 0 1 0 0 0 0 0.94902 0 0 0 0 0.305882 0 0 0 1 0"/>
<feBlend mode="normal" in2="BackgroundImageFix" result="effect1_dropShadow_3_29641"/>
<feBlend mode="normal" in="SourceGraphic" in2="effect1_dropShadow_3_29641" result="shape"/>
</filter>
<filter id="filter6_d_3_29641" x="2.73584" y="5.40234" width="5.80127" height="5.80078" filterUnits="userSpaceOnUse" color-interpolation-filters="sRGB">
<feFlood flood-opacity="0" result="BackgroundImageFix"/>
<feColorMatrix in="SourceAlpha" type="matrix" values="0 0 0 0 0 0 0 0 0 0 0 0 0 0 0 0 0 0 127 0" result="hardAlpha"/>
<feOffset/>
<feGaussianBlur stdDeviation="1"/>
<feColorMatrix type="matrix" values="0 0 0 0 1 0 0 0 0 0.94902 0 0 0 0 0.305882 0 0 0 1 0"/>
<feBlend mode="normal" in2="BackgroundImageFix" result="effect1_dropShadow_3_29641"/>
<feBlend mode="normal" in="SourceGraphic" in2="effect1_dropShadow_3_29641" result="shape"/>
</filter>
<filter id="filter7_d_3_29641" x="12.1016" y="11.1641" width="5.08105" height="5.08008" filterUnits="userSpaceOnUse" color-interpolation-filters="sRGB">
<feFlood flood-opacity="0" result="BackgroundImageFix"/>
<feColorMatrix in="SourceAlpha" type="matrix" values="0 0 0 0 0 0 0 0 0 0 0 0 0 0 0 0 0 0 127 0" result="hardAlpha"/>
<feOffset/>
<feGaussianBlur stdDeviation="1"/>
<feColorMatrix type="matrix" values="0 0 0 0 1 0 0 0 0 0.94902 0 0 0 0 0.305882 0 0 0 1 0"/>
<feBlend mode="normal" in2="BackgroundImageFix" result="effect1_dropShadow_3_29641"/>
<feBlend mode="normal" in="SourceGraphic" in2="effect1_dropShadow_3_29641" result="shape"/>
</filter>
<linearGradient id="paint0_linear_3_29641" x1="18.7852" y1="4.51953" x2="18.7852" y2="11.3638" gradientUnits="userSpaceOnUse">
<stop stop-color="#F7C71A"/>
<stop offset="1" stop-color="#FBAA00"/>
</linearGradient>
<linearGradient id="paint1_linear_3_29641" x1="18.7852" y1="4.51953" x2="18.7852" y2="11.3638" gradientUnits="userSpaceOnUse">
<stop stop-color="#FFDF6B"/>
<stop offset="1" stop-color="#F8A60A"/>
</linearGradient>
<linearGradient id="paint2_linear_3_29641" x1="2.21436" y1="4.51953" x2="2.21436" y2="11.3638" gradientUnits="userSpaceOnUse">
<stop stop-color="#F7C71A"/>
<stop offset="1" stop-color="#FBAA00"/>
</linearGradient>
<linearGradient id="paint3_linear_3_29641" x1="2.21436" y1="4.51953" x2="2.21436" y2="11.3638" gradientUnits="userSpaceOnUse">
<stop stop-color="#FFDF6B"/>
<stop offset="1" stop-color="#F8A60A"/>
</linearGradient>
<linearGradient id="paint4_linear_3_29641" x1="5.81689" y1="3.20508" x2="5.81689" y2="9.20145" gradientUnits="userSpaceOnUse">
<stop stop-color="#F7C71A"/>
<stop offset="1" stop-color="#FBAA00"/>
</linearGradient>
<linearGradient id="paint5_linear_3_29641" x1="5.81689" y1="3.20508" x2="5.81689" y2="9.20145" gradientUnits="userSpaceOnUse">
<stop stop-color="#FFDF6B"/>
<stop offset="1" stop-color="#F8A60A"/>
</linearGradient>
<linearGradient id="paint6_linear_3_29641" x1="2.21436" y1="2" x2="2.21436" y2="18.5702" gradientUnits="userSpaceOnUse">
<stop stop-color="#FDE046"/>
<stop offset="1" stop-color="#F9B800"/>
</linearGradient>
<linearGradient id="paint7_linear_3_29641" x1="4.73584" y1="4.51953" x2="4.73584" y2="16.0466" gradientUnits="userSpaceOnUse">
<stop stop-color="#FFF550"/>
<stop offset="1" stop-color="#FFD541"/>
</linearGradient>
<linearGradient id="paint8_linear_3_29641" x1="7.89447" y1="7.67969" x2="7.89447" y2="12.8893" gradientUnits="userSpaceOnUse">
<stop stop-color="#FCA50E"/>
<stop offset="1" stop-color="#FFC823"/>
</linearGradient>
<linearGradient id="paint9_linear_3_29641" x1="9.56836" y1="7.02849" x2="8.02805" y2="8.12938" gradientUnits="userSpaceOnUse">
<stop stop-color="#FFEC36" stop-opacity="0.467505"/>
<stop offset="1" stop-color="#FFF7AB"/>
</linearGradient>
<linearGradient id="paint10_linear_3_29641" x1="8.03763" y1="9.31861" x2="9.4892" y2="11.1054" gradientUnits="userSpaceOnUse">
<stop stop-color="#FFED08" stop-opacity="0.8"/>
<stop offset="1" stop-color="white"/>
</linearGradient>
<linearGradient id="paint11_linear_3_29641" x1="9.73379" y1="12.9174" x2="10.964" y2="11.1298" gradientUnits="userSpaceOnUse">
<stop stop-color="#FFED08" stop-opacity="0.01"/>
<stop offset="1" stop-color="#FFEF63"/>
</linearGradient>
<linearGradient id="paint12_linear_3_29641" x1="10.4995" y1="9.75637" x2="9.26933" y2="11.5439" gradientUnits="userSpaceOnUse">
<stop stop-color="#FFEC36" stop-opacity="0.467505"/>
<stop offset="1" stop-color="#FFE94A"/>
</linearGradient>
<linearGradient id="paint13_linear_3_29641" x1="10.4995" y1="8.68124" x2="10.1104" y2="10.184" gradientUnits="userSpaceOnUse">
<stop stop-color="#FFEC36" stop-opacity="0.467505"/>
<stop offset="1" stop-color="#FFF7AB"/>
</linearGradient>
</defs>
</svg>
