<svg width="16" height="16" viewBox="0 0 16 16" fill="none" xmlns="http://www.w3.org/2000/svg">
<path d="M11.3331 9.00004C13.792 9.00004 15.9331 9.87284 15.9331 11.8381C15.9331 12.8742 15.5039 13.3334 14.6272 13.3334L10.8966 13.3334C10.5345 13.3334 10.2786 12.9661 10.3502 12.6111C10.4003 12.362 10.6094 12.1334 10.8635 12.1334C12.3697 12.1336 14.7184 12.1347 14.7184 12.1347C14.7184 12.1347 14.7331 11.9368 14.7331 11.8381C14.7331 10.83 13.1878 10.2 11.3331 10.2C11.0184 10.2 10.7126 10.2182 10.4217 10.2532C10.1982 10.2801 9.98188 10.1739 9.85526 9.98781C9.62129 9.64393 9.74455 9.12375 10.1572 9.07143C10.5351 9.02351 10.9298 9.00004 11.3331 9.00004ZM4.66641 9.00004C7.12537 9.00004 9.26641 9.87284 9.26641 11.8381C9.26641 12.8742 8.83727 13.3334 7.96052 13.3334H1.37229C0.495546 13.3334 0.0664062 12.8742 0.0664062 11.8381C0.0664062 9.87284 2.20744 9.00004 4.66641 9.00004ZM4.66641 10.2C2.81165 10.2 1.26641 10.83 1.26641 11.8381C1.26641 11.9373 1.27974 12.1347 1.27974 12.1347H8.05174C8.05174 12.1347 8.06641 11.9368 8.06641 11.8381C8.06641 10.83 6.52116 10.2 4.66641 10.2ZM11.3331 2.80005C12.8615 2.80005 14.0997 4.03826 14.0997 5.56672C14.0997 7.09517 12.8615 8.33338 11.3331 8.33338C9.80462 8.33338 8.56641 7.09517 8.56641 5.56672C8.56641 4.03826 9.80462 2.80005 11.3331 2.80005ZM4.66641 2.80005C6.19486 2.80005 7.43307 4.03826 7.43307 5.56672C7.43307 7.09517 6.19486 8.33338 4.66641 8.33338C3.13795 8.33338 1.89974 7.09517 1.89974 5.56672C1.89974 4.03826 3.13795 2.80005 4.66641 2.80005ZM11.3331 4.00005C10.4674 4.00005 9.76641 4.701 9.76641 5.56672C9.76641 6.43243 10.4674 7.13338 11.3331 7.13338C12.1988 7.13338 12.8997 6.43243 12.8997 5.56672C12.8997 4.701 12.1988 4.00005 11.3331 4.00005ZM4.66641 4.00005C3.80069 4.00005 3.09974 4.701 3.09974 5.56672C3.09974 6.43243 3.80069 7.13338 4.66641 7.13338C5.53212 7.13338 6.23307 6.43243 6.23307 5.56672C6.23307 4.701 5.53212 4.00005 4.66641 4.00005Z" fill="#1C1917"/>
</svg>
