<svg width="16" height="16" viewBox="0 0 16 16" fill="none" xmlns="http://www.w3.org/2000/svg">
<path fill-rule="evenodd" clip-rule="evenodd" d="M5.66654 5.39998C5.66654 4.11132 6.71121 3.06665 7.99987 3.06665C9.28853 3.06665 10.3332 4.11132 10.3332 5.39998C10.3332 6.68865 9.28853 7.73332 7.99987 7.73332C6.71121 7.73332 5.66654 6.68865 5.66654 5.39998ZM7.99987 6.53332C7.37395 6.53332 6.86654 6.02591 6.86654 5.39998C6.86654 4.77406 7.37395 4.26665 7.99987 4.26665C8.62579 4.26665 9.1332 4.77406 9.1332 5.39998C9.1332 6.02591 8.62579 6.53332 7.99987 6.53332Z" fill="#1C1917"/>
<path fill-rule="evenodd" clip-rule="evenodd" d="M8.00012 8.73336C6.99744 8.73336 6.04976 8.96909 5.33207 9.41002C4.61348 9.8515 4.06679 10.5449 4.06679 11.4365C4.06679 11.9761 4.25244 12.4581 4.63426 12.7983C5.00638 13.13 5.49683 13.2667 6.00013 13.2667H10.0001C10.5034 13.2667 10.9939 13.13 11.366 12.7983C11.7478 12.4581 11.9335 11.9761 11.9335 11.4365C11.9335 10.5449 11.3868 9.8515 10.6682 9.41002C9.95049 8.96909 9.00281 8.73336 8.00012 8.73336ZM5.26679 11.4365C5.26679 11.0916 5.47037 10.7334 5.96024 10.4325C6.45101 10.131 7.17 9.93336 8.00012 9.93336C8.83025 9.93336 9.54924 10.131 10.04 10.4325C10.5299 10.7334 10.7335 11.0916 10.7335 11.4365C10.7335 11.6937 10.6524 11.8269 10.5676 11.9025C10.473 11.9867 10.2968 12.0667 10.0001 12.0667H6.00013C5.70342 12.0667 5.5272 11.9867 5.43265 11.9025C5.34781 11.8269 5.26679 11.6937 5.26679 11.4365Z" fill="#1C1917"/>
<path d="M3.93548 9.13333C3.93548 8.80196 3.66685 8.53333 3.33548 8.53333C1.99765 8.53333 0.702148 9.38398 0.702148 10.7714C0.702148 11.6134 1.28225 12.6 2.44022 12.6C2.77159 12.6 3.04022 12.3314 3.04022 12C3.04022 11.6686 2.77159 11.4 2.44022 11.4C2.25892 11.4 2.14033 11.3305 2.05666 11.2307C1.96343 11.1194 1.90215 10.9528 1.90215 10.7714C1.90215 10.2841 2.395 9.73333 3.33548 9.73333C3.66685 9.73333 3.93548 9.4647 3.93548 9.13333Z" fill="#1C1917"/>
<path d="M4.20956 3.63936C4.5376 3.5925 4.84152 3.82043 4.88839 4.14847C4.93525 4.47651 4.70732 4.78044 4.37928 4.8273C3.97399 4.88521 3.6667 5.23173 3.6667 5.6443C3.6667 6.09713 4.0367 6.46982 4.50003 6.46982C4.8314 6.46982 5.10003 6.73844 5.10003 7.06982C5.10003 7.40119 4.8314 7.66982 4.50003 7.66982C3.38015 7.66982 2.4667 6.76605 2.4667 5.6443C2.4667 4.62115 3.22646 3.77982 4.20956 3.63936Z" fill="#1C1917"/>
<path d="M12.0643 9.13333C12.0643 8.80196 12.3329 8.53333 12.6643 8.53333C14.0021 8.53333 15.2976 9.38398 15.2976 10.7714C15.2976 11.6134 14.7175 12.6 13.5595 12.6C13.2282 12.6 12.9595 12.3314 12.9595 12C12.9595 11.6686 13.2282 11.4 13.5595 11.4C13.7408 11.4 13.8594 11.3305 13.9431 11.2307C14.0363 11.1194 14.0976 10.9528 14.0976 10.7714C14.0976 10.2841 13.6047 9.73333 12.6643 9.73333C12.3329 9.73333 12.0643 9.4647 12.0643 9.13333Z" fill="#1C1917"/>
<path d="M11.7905 3.63936C11.4625 3.5925 11.1585 3.82043 11.1117 4.14847C11.0648 4.47651 11.2927 4.78044 11.6208 4.8273C12.0261 4.88521 12.3334 5.23173 12.3334 5.6443C12.3334 6.09713 11.9634 6.46982 11.5 6.46982C11.1687 6.46982 10.9 6.73844 10.9 7.06982C10.9 7.40119 11.1687 7.66982 11.5 7.66982C12.6199 7.66982 13.5334 6.76605 13.5334 5.6443C13.5334 4.62115 12.7736 3.77982 11.7905 3.63936Z" fill="#1C1917"/>
</svg>
