<svg width="16" height="16" viewBox="0 0 16 16" fill="none" xmlns="http://www.w3.org/2000/svg">
<path fill-rule="evenodd" clip-rule="evenodd" d="M3.66448 2.84544C3.89784 3.0807 3.89629 3.4606 3.66102 3.69396C2.55214 4.79384 1.8665 6.31694 1.8665 8.0013C1.8665 9.68565 2.55214 11.2087 3.66101 12.3086C3.89628 12.542 3.89782 12.9219 3.66446 13.1572C3.43111 13.3924 3.05121 13.394 2.81594 13.1606C1.48922 11.8446 0.666504 10.0185 0.666504 8.0013C0.666504 5.9841 1.48923 4.15794 2.81596 2.84198C3.05123 2.60862 3.43112 2.61017 3.66448 2.84544Z" fill="#57534E"/>
<path fill-rule="evenodd" clip-rule="evenodd" d="M12.3338 2.84544C12.5672 2.61017 12.9471 2.60862 13.1824 2.84198C14.5091 4.15794 15.3318 5.9841 15.3318 8.0013C15.3318 10.0185 14.5091 11.8446 13.1824 13.1606C12.9471 13.394 12.5672 13.3924 12.3339 13.1572C12.1005 12.9219 12.102 12.542 12.3373 12.3086C13.4462 11.2087 14.1318 9.68565 14.1318 8.0013C14.1318 6.31694 13.4462 4.79384 12.3373 3.69396C12.102 3.4606 12.1005 3.0807 12.3338 2.84544Z" fill="#57534E"/>
<path fill-rule="evenodd" clip-rule="evenodd" d="M5.42281 4.82999C5.6647 5.05647 5.67719 5.43617 5.45071 5.67806C4.88108 6.28643 4.53317 7.10258 4.53317 8.0013C4.53317 8.88286 4.86698 9.7403 5.39878 10.3345C5.61977 10.5814 5.59876 10.9607 5.35184 11.1817C5.10493 11.4027 4.72561 11.3817 4.50461 11.1348C3.76964 10.3136 3.33317 9.16868 3.33317 8.0013C3.33317 6.78608 3.80519 5.67978 4.57474 4.85788C4.80123 4.61599 5.18092 4.6035 5.42281 4.82999Z" fill="#57534E"/>
<path fill-rule="evenodd" clip-rule="evenodd" d="M10.5765 4.82999C10.8184 4.6035 11.1981 4.61599 11.4245 4.85788C12.1941 5.67978 12.6661 6.78608 12.6661 8.0013C12.6661 9.16868 12.2296 10.3136 11.4947 11.1348C11.2737 11.3817 10.8944 11.4027 10.6474 11.1817C10.4005 10.9607 10.3795 10.5814 10.6005 10.3345C11.1323 9.7403 11.4661 8.88286 11.4661 8.0013C11.4661 7.10258 11.1182 6.28643 10.5486 5.67806C10.3221 5.43617 10.3346 5.05647 10.5765 4.82999Z" fill="#57534E"/>
<path d="M9.33324 8.00129C9.33324 8.73767 8.73628 9.33462 7.9999 9.33462C7.26352 9.33462 6.66657 8.73767 6.66657 8.00129C6.66657 7.26491 7.26352 6.66795 7.9999 6.66795C8.73628 6.66795 9.33324 7.26491 9.33324 8.00129Z" fill="#57534E"/>
</svg>
