<svg width="16" height="17" viewBox="0 0 16 17" fill="none" xmlns="http://www.w3.org/2000/svg">
<path fill-rule="evenodd" clip-rule="evenodd" d="M3.66497 3.34446C3.89833 3.57973 3.89678 3.95962 3.66151 4.19298C2.55263 5.29286 1.86699 6.81597 1.86699 8.50033C1.86699 10.1847 2.55262 11.7078 3.6615 12.8077C3.89676 13.041 3.89831 13.4209 3.66495 13.6562C3.43159 13.8914 3.0517 13.893 2.81643 13.6596C1.48971 12.3437 0.666992 10.5175 0.666992 8.50033C0.666992 6.48312 1.48972 4.65696 2.81645 3.341C3.05172 3.10765 3.43161 3.10919 3.66497 3.34446Z" fill="#1C1917"/>
<path fill-rule="evenodd" clip-rule="evenodd" d="M12.3343 3.34446C12.5677 3.10919 12.9476 3.10765 13.1829 3.341C14.5096 4.65696 15.3323 6.48312 15.3323 8.50033C15.3323 10.5175 14.5096 12.3437 13.1829 13.6596C12.9476 13.893 12.5677 13.8914 12.3343 13.6562C12.101 13.4209 12.1025 13.041 12.3378 12.8077C13.4467 11.7078 14.1323 10.1847 14.1323 8.50033C14.1323 6.81597 13.4467 5.29286 12.3378 4.19298C12.1025 3.95962 12.101 3.57973 12.3343 3.34446Z" fill="#1C1917"/>
<path fill-rule="evenodd" clip-rule="evenodd" d="M5.4233 5.32901C5.66519 5.5555 5.67768 5.93519 5.4512 6.17708C4.88157 6.78545 4.53366 7.6016 4.53366 8.50033C4.53366 9.38189 4.86747 10.2393 5.39926 10.8335C5.62026 11.0804 5.59925 11.4597 5.35233 11.6807C5.10542 11.9017 4.7261 11.8807 4.5051 11.6338C3.77012 10.8126 3.33366 9.66771 3.33366 8.50033C3.33366 7.2851 3.80568 6.1788 4.57523 5.3569C4.80172 5.11501 5.18141 5.10253 5.4233 5.32901Z" fill="#1C1917"/>
<path fill-rule="evenodd" clip-rule="evenodd" d="M10.577 5.32901C10.8188 5.10253 11.1985 5.11501 11.425 5.3569C12.1946 6.1788 12.6666 7.2851 12.6666 8.50033C12.6666 9.66771 12.2301 10.8126 11.4952 11.6338C11.2742 11.8807 10.8948 11.9017 10.6479 11.6807C10.401 11.4597 10.38 11.0804 10.601 10.8335C11.1328 10.2393 11.4666 9.38189 11.4666 8.50033C11.4666 7.6016 11.1187 6.78545 10.5491 6.17708C10.3226 5.93519 10.3351 5.5555 10.577 5.32901Z" fill="#1C1917"/>
<path d="M9.33372 8.50031C9.33372 9.23669 8.73677 9.83364 8.00039 9.83364C7.26401 9.83364 6.66706 9.23669 6.66706 8.50031C6.66706 7.76393 7.26401 7.16698 8.00039 7.16698C8.73677 7.16698 9.33372 7.76393 9.33372 8.50031Z" fill="#1C1917"/>
</svg>
