<svg width="16" height="16" viewBox="0 0 16 16" fill="none" xmlns="http://www.w3.org/2000/svg">
<path fill-rule="evenodd" clip-rule="evenodd" d="M7.99976 5.86667C7.37383 5.86667 6.86642 6.37408 6.86642 7C6.86642 7.62592 7.37383 8.13333 7.99976 8.13333C8.62568 8.13333 9.13309 7.62592 9.13309 7C9.13309 6.37408 8.62568 5.86667 7.99976 5.86667ZM5.66642 7C5.66642 5.71134 6.71109 4.66667 7.99976 4.66667C9.28842 4.66667 10.3331 5.71134 10.3331 7C10.3331 8.28866 9.28842 9.33333 7.99976 9.33333C6.71109 9.33333 5.66642 8.28866 5.66642 7Z" fill="#1C1917"/>
<path fill-rule="evenodd" clip-rule="evenodd" d="M5.48492 2.06665C4.43849 2.06665 3.93871 2.15109 3.43061 2.42283C2.99759 2.65441 2.65417 2.99783 2.42258 3.43086C2.15085 3.93896 2.06641 4.43873 2.06641 5.48516V10.5148C2.06641 11.5612 2.15085 12.061 2.42258 12.5691C2.65417 13.0021 2.99759 13.3456 3.43061 13.5771C3.93871 13.8489 4.43849 13.9333 5.48492 13.9333H10.5146C11.561 13.9333 12.0608 13.8489 12.5689 13.5771C13.0019 13.3456 13.3453 13.0021 13.5769 12.5691C13.8486 12.061 13.9331 11.5612 13.9331 10.5148V5.48516C13.9331 4.43873 13.8486 3.93896 13.5769 3.43086C13.3453 2.99783 13.0019 2.65441 12.5689 2.42283C12.0608 2.15109 11.561 2.06665 10.5146 2.06665H5.48492ZM5.48492 3.26665C4.49381 3.26665 4.23785 3.35194 3.99653 3.481C3.77263 3.60075 3.6005 3.77288 3.48076 3.99677C3.3517 4.2381 3.26641 4.49405 3.26641 5.48516V10.5148C3.26641 11.5059 3.3517 11.7619 3.48076 12.0032C3.52695 12.0896 3.58094 12.1682 3.6427 12.2392C4.72604 11.0678 6.27701 10.3333 7.99973 10.3333C9.72246 10.3333 11.2734 11.0678 12.3568 12.2392C12.4185 12.1682 12.4725 12.0896 12.5187 12.0032C12.6478 11.7619 12.7331 11.5059 12.7331 10.5148V5.48516C12.7331 4.49405 12.6478 4.2381 12.5187 3.99677C12.399 3.77288 12.2268 3.60075 12.0029 3.481C11.7616 3.35194 11.5057 3.26665 10.5146 3.26665H5.48492ZM7.99976 4.66667C6.71109 4.66667 5.66642 5.71134 5.66642 7C5.66642 8.28866 6.71109 9.33333 7.99976 9.33333C9.28842 9.33333 10.3331 8.28866 10.3331 7C10.3331 5.71134 9.28842 4.66667 7.99976 4.66667ZM6.86642 7C6.86642 6.37408 7.37383 5.86667 7.99976 5.86667C8.62568 5.86667 9.13309 6.37408 9.13309 7C9.13309 7.62592 8.62568 8.13333 7.99976 8.13333C7.37383 8.13333 6.86642 7.62592 6.86642 7ZM5.48492 12.7333H10.5146C10.7628 12.7333 10.9649 12.728 11.1322 12.7179C10.2972 11.9802 9.2006 11.5333 7.99973 11.5333C6.79887 11.5333 5.70224 11.9802 4.86726 12.7179C5.03458 12.728 5.23669 12.7333 5.48492 12.7333Z" fill="#1C1917"/>
</svg>
