<svg width="16" height="16" viewBox="0 0 16 16" fill="none" xmlns="http://www.w3.org/2000/svg">
<path fill-rule="evenodd" clip-rule="evenodd" d="M11.5194 13C11.1349 13 10.8232 12.675 10.8232 12.2741L10.8232 5.46224L9.22704 7.12665C8.95518 7.41013 8.51442 7.41013 8.24256 7.12665C7.9707 6.84317 7.9707 6.38355 8.24256 6.10007L10.9724 3.25351C11.2745 2.93854 11.7642 2.93853 12.0663 3.25351L14.7961 6.10008C15.068 6.38356 15.068 6.84317 14.7961 7.12665C14.5242 7.41014 14.0835 7.41013 13.8116 7.12665L12.2155 5.46225L12.2155 12.2741C12.2155 12.675 11.9038 13 11.5194 13Z" fill="#A8A29E"/>
<path fill-rule="evenodd" clip-rule="evenodd" d="M3.78452 11.9676L3.78451 3.7259C3.78451 3.325 4.09618 3 4.48065 3C4.86511 3 5.17678 3.325 5.17678 3.7259L5.17679 11.9676C5.17679 12.3685 4.86512 12.6935 4.48066 12.6935C4.09619 12.6935 3.78452 12.3685 3.78452 11.9676Z" fill="#A8A29E"/>
<path fill-rule="evenodd" clip-rule="evenodd" d="M7.75744 8.87335C8.0293 9.15683 8.0293 9.61645 7.75744 9.89993L5.02759 12.7465C4.72553 13.0615 4.23579 13.0615 3.93372 12.7465L1.20389 9.89992C0.932036 9.61644 0.932036 9.15683 1.20389 8.87335C1.47575 8.58987 1.91652 8.58987 2.18838 8.87335L4.48066 11.2637L6.77296 8.87335C7.04482 8.58987 7.48558 8.58987 7.75744 8.87335Z" fill="#A8A29E"/>
</svg>
