<svg width="16" height="17" viewBox="0 0 16 17" fill="none" xmlns="http://www.w3.org/2000/svg">
<path fill-rule="evenodd" clip-rule="evenodd" d="M7.99984 3.03325C5.72937 3.03325 3.8665 4.95843 3.8665 7.39689C3.8665 8.66011 4.26649 9.4294 4.75786 10.0568C4.9615 10.3169 5.17556 10.5466 5.40253 10.7901C5.46533 10.8575 5.52912 10.926 5.59394 10.9964C5.8258 11.2484 6.06762 11.5227 6.27475 11.8332H7.39985V10.4638L6.2362 9.57718C5.97262 9.37636 5.92174 8.99988 6.12256 8.7363C6.32338 8.47271 6.69986 8.42183 6.96344 8.62266L7.99984 9.41228L9.03619 8.62265C9.29977 8.42182 9.67624 8.47269 9.87707 8.73627C10.0779 8.99985 10.027 9.37632 9.76346 9.57715L8.59985 10.4637V11.8332H9.72492C9.93206 11.5227 10.1739 11.2484 10.4057 10.9964C10.4706 10.926 10.5343 10.8575 10.5971 10.7901C10.8241 10.5466 11.0382 10.3169 11.2418 10.0568C11.7332 9.4294 12.1332 8.66011 12.1332 7.39689C12.1332 4.9435 10.2716 3.03325 7.99984 3.03325ZM9.32636 13.0332H6.67332L6.77132 13.4443C6.81518 13.6283 6.84105 13.7352 6.86593 13.8138C6.88117 13.8619 6.89072 13.8812 6.89353 13.8863C6.91446 13.9143 6.94237 13.9363 6.97448 13.9502C6.98005 13.9518 7.00108 13.9566 7.05142 13.9602C7.1336 13.9662 7.24361 13.9666 7.43278 13.9666H8.5669C8.75607 13.9666 8.86608 13.9662 8.94826 13.9602C8.99859 13.9566 9.01962 13.9518 9.02519 13.9502C9.0573 13.9363 9.08522 13.9143 9.10615 13.8863C9.10895 13.8812 9.11851 13.8619 9.13374 13.8138C9.15862 13.7352 9.18449 13.6283 9.22836 13.4443L9.32636 13.0332ZM9.02678 13.9497C9.02679 13.9497 9.02607 13.95 9.02519 13.9502L9.02678 13.9497ZM6.97289 13.9497C6.97289 13.9497 6.97369 13.9499 6.97448 13.9502L6.97289 13.9497ZM5.33357 12.5881C5.17615 12.332 4.96722 12.0875 4.71094 11.809C4.65705 11.7504 4.6006 11.6899 4.54236 11.6275C4.31114 11.3796 4.05181 11.1015 3.81311 10.7967C3.18689 9.9971 2.6665 8.97397 2.6665 7.39689C2.6665 4.35267 5.01105 1.83325 7.99984 1.83325C10.9874 1.83325 13.3332 4.33512 13.3332 7.39689C13.3332 8.97397 12.8128 9.9971 12.1866 10.7967C11.9479 11.1015 11.6885 11.3796 11.4573 11.6275C11.3991 11.6899 11.3426 11.7504 11.2887 11.809C11.0324 12.0875 10.8235 12.332 10.6661 12.5881L10.3915 13.7399C10.3532 13.9006 10.3174 14.0508 10.2777 14.1761C10.2344 14.3131 10.1753 14.4582 10.073 14.5971C9.92405 14.7992 9.72354 14.9575 9.49243 15.0555C9.33361 15.1228 9.17872 15.1466 9.03539 15.1571C8.90431 15.1666 8.74993 15.1666 8.58474 15.1666H7.41493C7.24975 15.1666 7.09536 15.1666 6.96429 15.1571C6.82096 15.1466 6.66606 15.1228 6.50725 15.0555C6.27614 14.9575 6.07563 14.7992 5.92671 14.5971C5.82438 14.4582 5.76532 14.3131 5.72193 14.1761C5.68225 14.0508 5.64646 13.9006 5.60817 13.7399L5.33357 12.5881Z" fill="#18181B"/>
</svg>
