<svg width="16" height="16" viewBox="0 0 16 16" fill="none" xmlns="http://www.w3.org/2000/svg">
<path d="M8.00263 2C10.5919 2 12.5714 4.16804 12.5714 6.90369L12.5688 7.94749C12.569 8.12308 12.6826 8.3261 12.9906 8.68857C13.0293 8.73409 13.0657 8.7763 13.1453 8.86827C13.7568 9.5758 14 9.98541 14 10.6218C14 10.9082 13.9674 11.1306 13.8318 11.3975C13.5426 11.9662 12.9247 12.2857 12 12.2857L10.5136 12.2861C10.132 13.5797 9.26418 14.2857 8 14.2857C6.73582 14.2857 5.86803 13.5797 5.48637 12.2861L4 12.2857C3.04847 12.2857 2.42402 11.9576 2.14741 11.3693C2.02744 11.1141 2 10.9071 2 10.6218C2 9.9857 2.24272 9.57611 2.85305 8.86866C2.93252 8.77669 2.96887 8.73449 3.00748 8.68896C3.31526 8.32604 3.42857 8.12293 3.42857 7.94693V6.90226C3.42857 4.16898 5.41259 2 8.00263 2ZM9.30252 12.2862H6.69748C6.95508 12.8818 7.37066 13.1429 8 13.1429C8.62934 13.1429 9.04492 12.8818 9.30252 12.2862ZM8.00263 3.14286C6.06763 3.14286 4.57143 4.77855 4.57143 6.90226V7.94693C4.57143 8.47706 4.35177 8.8708 3.87909 9.42816C3.83719 9.47756 3.79764 9.52348 3.71838 9.6152C3.28407 10.1186 3.14286 10.3569 3.14286 10.6218C3.14286 10.7511 3.15198 10.8199 3.18167 10.883C3.25248 11.0336 3.46033 11.1429 4 11.1429H12C12.5224 11.1429 12.735 11.0329 12.813 10.8795C12.8468 10.8131 12.8571 10.7423 12.8571 10.6218C12.8571 10.3572 12.7157 10.1189 12.2806 9.61559C12.2012 9.52388 12.1616 9.47796 12.1196 9.42855C11.646 8.87112 11.4259 8.47733 11.4259 7.94693L11.4286 6.90226C11.4286 4.77719 9.93636 3.14286 8.00263 3.14286Z" fill="#57534E"/>
</svg>
