<svg width="16" height="16" viewBox="0 0 16 16" fill="none" xmlns="http://www.w3.org/2000/svg">
<path d="M8.64553 1.53896L13.7522 6.39032C14.0929 6.71396 14.2858 7.16327 14.2858 7.63317V12.5711C14.2858 13.3601 13.6462 13.9997 12.8572 13.9997H9.42864C9.11305 13.9997 8.85721 13.7438 8.85721 13.4282V10.2853C8.85721 9.81192 8.47346 9.42816 8.00007 9.42816C7.52668 9.42816 7.14293 9.81192 7.14293 10.2853V13.4282C7.14293 13.7438 6.88709 13.9997 6.5715 13.9997H3.14293C2.35395 13.9997 1.71436 13.3601 1.71436 12.5711V7.63317C1.71436 7.16327 1.90725 6.71396 2.24793 6.39032L7.35461 1.53896C7.71632 1.19535 8.28382 1.19535 8.64553 1.53896ZM8.00007 2.50214L3.03507 7.21889C2.92151 7.32677 2.85721 7.47654 2.85721 7.63317V12.5711C2.85721 12.7289 2.98513 12.8568 3.14293 12.8568H6.00007V10.2853C6.00007 9.18074 6.8955 8.28531 8.00007 8.28531C9.10464 8.28531 10.0001 9.18074 10.0001 10.2853V12.8568H12.8572C13.015 12.8568 13.1429 12.7289 13.1429 12.5711V7.63317C13.1429 7.47654 13.0786 7.32677 12.9651 7.21889L8.00007 2.50214Z" fill="#1C1917"/>
</svg>
