<svg width="12" height="12" viewBox="0 0 12 12" fill="none" xmlns="http://www.w3.org/2000/svg">
<path d="M8.01775 3.55521C8.17224 3.70971 8.18413 3.95281 8.0534 4.12093L8.01775 4.1613L3.73204 8.44702C3.57754 8.60151 3.33444 8.6134 3.16632 8.48267L3.12594 8.44702L1.41166 6.73273C1.24429 6.56537 1.24429 6.29401 1.41166 6.12664C1.56615 5.97215 1.80925 5.96026 1.97738 6.09099L2.01775 6.12664L3.42899 7.53754L7.41166 3.55521C7.57903 3.38785 7.85038 3.38785 8.01775 3.55521ZM10.5892 3.55521C10.7437 3.70971 10.7556 3.95281 10.6248 4.12093L10.5892 4.1613L6.30346 8.44702C6.1361 8.61439 5.86474 8.61439 5.69737 8.44702C5.54288 8.29253 5.531 8.04943 5.66172 7.8813L5.69737 7.84093L9.98309 3.55521C10.1505 3.38785 10.4218 3.38785 10.5892 3.55521Z" fill="black"/>
</svg>
