<svg width="16" height="16" viewBox="0 0 16 16" fill="none" xmlns="http://www.w3.org/2000/svg">
<path fill-rule="evenodd" clip-rule="evenodd" d="M6.10605 1.65527C3.12112 1.65527 0.5 3.72368 0.5 6.50375C0.5 7.42057 0.793601 8.27193 1.29245 8.99325C1.12216 9.79527 0.851863 10.4898 0.692192 10.8592C0.447401 11.4256 0.870212 12.1666 1.59828 12.0687C2.15876 11.9933 3.36777 11.7711 4.43807 11.1344C4.96623 11.2763 5.52667 11.3522 6.10605 11.3522C9.09098 11.3522 11.7121 9.28381 11.7121 6.50375C11.7121 3.72368 9.09098 1.65527 6.10605 1.65527ZM1.86363 6.50375C1.86363 4.68145 3.65182 3.01891 6.10605 3.01891C8.56028 3.01891 10.3485 4.68145 10.3485 6.50375C10.3485 8.32605 8.56028 9.98859 6.10605 9.98859C5.55297 9.98859 5.02686 9.90145 4.54553 9.74429C4.34401 9.67849 4.12334 9.71018 3.94847 9.83002C3.42273 10.1903 2.8016 10.4136 2.27178 10.5497C2.42663 10.0972 2.58578 9.54355 2.69043 8.94602C2.72409 8.75384 2.6738 8.55644 2.5523 8.40379C2.11046 7.84868 1.86363 7.19591 1.86363 6.50375Z" fill="#1C1917"/>
<path d="M13.2844 5.68911C13.0099 5.94691 12.9964 6.3784 13.2542 6.65287C13.7261 7.15528 14.0264 7.75447 14.1115 8.39769H14.1106C14.1273 8.52034 14.136 8.64424 14.1364 8.76889L14.1364 8.77647L14.1362 8.80356C14.1299 9.48566 13.8838 10.1287 13.4477 10.6765C13.3262 10.8292 13.2759 11.0266 13.3096 11.2187C13.4142 11.8163 13.5734 12.3699 13.7282 12.8225C13.1984 12.6863 12.5773 12.463 12.0515 12.1027C11.8767 11.9829 11.656 11.9512 11.4545 12.017C11.2745 12.0758 11.0882 12.1248 10.8967 12.163C10.6962 12.2031 10.4899 12.2315 10.2788 12.2471C10.1522 12.2565 10.0238 12.2613 9.89395 12.2613C9.62291 12.2613 9.35835 12.2404 9.10235 12.2005C8.73027 12.1426 8.3817 12.3973 8.32379 12.7694C8.26588 13.1415 8.52057 13.4901 8.89265 13.548C9.21802 13.5986 9.55269 13.6249 9.89395 13.6249C10.0212 13.6249 10.1475 13.6213 10.2727 13.6141C10.5767 13.5966 10.8744 13.5581 11.1639 13.5002C11.2985 13.4733 11.4312 13.4423 11.5619 13.4072C12.6322 14.0438 13.8412 14.266 14.4017 14.3414C15.1298 14.4394 15.5526 13.6983 15.3078 13.1319C15.1481 12.7625 14.8778 12.068 14.7075 11.266C15.2064 10.5447 15.5 9.6933 15.5 8.77647C15.5 8.64866 15.4945 8.52236 15.4836 8.39769C15.3926 7.37586 14.9366 6.4523 14.2481 5.71931C13.9903 5.44484 13.5589 5.43132 13.2844 5.68911Z" fill="#1C1917"/>
</svg>
