<svg width="16" height="16" viewBox="0 0 16 16" fill="none" xmlns="http://www.w3.org/2000/svg">
<path fill-rule="evenodd" clip-rule="evenodd" d="M6.10605 1.65625C3.12112 1.65625 0.5 3.72466 0.5 6.50473C0.5 7.42155 0.793601 8.27291 1.29245 8.99423C1.12216 9.79625 0.851863 10.4907 0.692192 10.8602C0.447401 11.4266 0.870212 12.1676 1.59828 12.0697C2.15876 11.9943 3.36777 11.7721 4.43807 11.1354C4.96623 11.2772 5.52667 11.3532 6.10605 11.3532C9.09098 11.3532 11.7121 9.28479 11.7121 6.50473C11.7121 3.72466 9.09098 1.65625 6.10605 1.65625ZM1.86363 6.50473C1.86363 4.68243 3.65182 3.01988 6.10605 3.01988C8.56028 3.01988 10.3485 4.68243 10.3485 6.50473C10.3485 8.32702 8.56028 9.98957 6.10605 9.98957C5.55297 9.98957 5.02686 9.90242 4.54553 9.74527C4.34401 9.67947 4.12334 9.71116 3.94847 9.831C3.42273 10.1913 2.8016 10.4145 2.27178 10.5507C2.42663 10.0981 2.58578 9.54453 2.69043 8.947C2.72409 8.75481 2.6738 8.55742 2.5523 8.40476C2.11046 7.84966 1.86363 7.19689 1.86363 6.50473Z" fill="#57534E"/>
<path d="M13.2844 5.69009C13.0099 5.94788 12.9964 6.37937 13.2542 6.65385C13.7261 7.15626 14.0264 7.75545 14.1115 8.39866H14.1106C14.1273 8.52132 14.136 8.64522 14.1364 8.76987L14.1364 8.77745L14.1362 8.80453C14.1299 9.48664 13.8838 10.1296 13.4477 10.6775C13.3262 10.8301 13.2759 11.0275 13.3096 11.2197C13.4142 11.8173 13.5734 12.3709 13.7282 12.8234C13.1984 12.6873 12.5773 12.464 12.0515 12.1037C11.8767 11.9839 11.656 11.9522 11.4545 12.018C11.2745 12.0768 11.0882 12.1257 10.8967 12.164C10.6962 12.2041 10.4899 12.2325 10.2788 12.2481C10.1522 12.2575 10.0238 12.2623 9.89395 12.2623C9.62291 12.2623 9.35835 12.2414 9.10235 12.2015C8.73027 12.1436 8.3817 12.3983 8.32379 12.7704C8.26588 13.1425 8.52057 13.491 8.89265 13.5489C9.21802 13.5996 9.55269 13.6259 9.89395 13.6259C10.0212 13.6259 10.1475 13.6223 10.2727 13.615C10.5767 13.5975 10.8744 13.5591 11.1639 13.5012C11.2985 13.4743 11.4312 13.4432 11.5619 13.4081C12.6322 14.0448 13.8412 14.267 14.4017 14.3424C15.1298 14.4403 15.5526 13.6993 15.3078 13.1329C15.1481 12.7635 14.8778 12.069 14.7075 11.267C15.2064 10.5456 15.5 9.69428 15.5 8.77745C15.5 8.64964 15.4945 8.52333 15.4836 8.39866C15.3926 7.37683 14.9366 6.45328 14.2481 5.72029C13.9903 5.44581 13.5589 5.43229 13.2844 5.69009Z" fill="#57534E"/>
</svg>
