<svg width="16" height="17" viewBox="0 0 16 17" fill="none" xmlns="http://www.w3.org/2000/svg">
<path fill-rule="evenodd" clip-rule="evenodd" d="M7.97947 1.50004C8.19091 1.49979 8.39328 1.49955 8.59051 1.54427C8.76333 1.58346 8.92855 1.64809 9.08009 1.7358C9.25303 1.8359 9.39595 1.97122 9.54528 2.11261L12.6427 5.03812C12.7924 5.17916 12.9357 5.31414 13.0417 5.47747C13.1345 5.6206 13.203 5.77664 13.2445 5.93986C13.2918 6.12614 13.2916 6.31727 13.2913 6.51698L13.2913 8.89649C13.2913 9.2278 13.0069 9.49637 12.6561 9.49637C12.3054 9.49637 12.021 9.2278 12.021 8.89649V6.83231L10.514 6.83231H10.514C10.1401 6.83232 9.8217 6.83233 9.56029 6.81215C9.28566 6.79096 9.01848 6.74455 8.76307 6.62163C8.37798 6.43631 8.0649 6.14061 7.8687 5.77691C7.73855 5.53567 7.68941 5.28333 7.66697 5.02394C7.64562 4.77704 7.64562 4.47631 7.64563 4.12315V2.69982L6.58708 2.69983C5.88494 2.69983 5.39654 2.70032 5.01653 2.72965C4.64394 2.7584 4.43182 2.81188 4.2721 2.88874C3.92686 3.05489 3.64616 3.32 3.47025 3.64608C3.38887 3.79693 3.33225 3.99727 3.30181 4.34917C3.27076 4.70809 3.27027 5.16938 3.27027 5.83253V8.16538V10.4982C3.27027 11.1614 3.27076 11.6227 3.30181 11.9816C3.33225 12.3335 3.38887 12.5338 3.47025 12.6847C3.64617 13.0108 3.92686 13.2759 4.2721 13.442C4.43182 13.5189 4.64394 13.5724 5.01653 13.6011C5.39654 13.6304 5.88494 13.6309 6.58708 13.6309H7.01035C7.36112 13.6309 7.64548 13.8995 7.64548 14.2308C7.64548 14.5621 7.36112 14.8306 7.01035 14.8306H6.55997C5.89132 14.8306 5.35092 14.8307 4.91309 14.7969C4.46194 14.7621 4.06405 14.6884 3.69541 14.511C3.11115 14.2298 2.63613 13.7812 2.33844 13.2294C2.15061 12.8812 2.07262 12.5054 2.03576 12.0793C1.99999 11.6657 1.99999 11.1554 2 10.5238V5.80693C1.99999 5.1754 1.99999 4.665 2.03576 4.25148C2.07262 3.82537 2.15061 3.44957 2.33844 3.1014C2.63613 2.54957 3.11115 2.10093 3.69541 1.81976C4.06405 1.64235 4.46194 1.5687 4.91309 1.53388C5.35093 1.5001 5.89132 1.5001 6.55998 1.50011L7.97947 1.50004ZM10.1958 4.42374L11.4756 5.63256H10.539C10.1333 5.63256 9.86723 5.63209 9.66373 5.61639C9.46765 5.60126 9.38626 5.57502 9.33976 5.55265C9.19369 5.48235 9.07494 5.37019 9.00051 5.23224C8.97682 5.18832 8.94904 5.11144 8.93302 4.92625C8.9164 4.73405 8.9159 4.48274 8.9159 4.09955V3.21492L10.1958 4.42374ZM11.8123 10.7677C11.8123 10.4364 11.528 10.1678 11.1772 10.1678C10.8264 10.1678 10.542 10.4364 10.542 10.7677V12.234H8.9895C8.63872 12.234 8.35436 12.5026 8.35436 12.8339C8.35436 13.1652 8.63872 13.4338 8.9895 13.4338H10.542V14.9001C10.542 15.2314 10.8264 15.5 11.1772 15.5C11.528 15.5 11.8123 15.2314 11.8123 14.9001V13.4338H13.3649C13.7156 13.4338 14 13.1652 14 12.8339C14 12.5026 13.7156 12.234 13.3649 12.234H11.8123V10.7677Z" fill="#1C1917"/>
</svg>
