<svg width="16" height="16" viewBox="0 0 16 16" fill="none" xmlns="http://www.w3.org/2000/svg">
<path fill-rule="evenodd" clip-rule="evenodd" d="M7.97947 1.00004C8.19091 0.999787 8.39328 0.999548 8.59051 1.04427C8.76333 1.08346 8.92855 1.14809 9.08009 1.2358C9.25303 1.3359 9.39595 1.47122 9.54528 1.61261L12.6427 4.53812C12.7924 4.67916 12.9357 4.81414 13.0417 4.97747C13.1345 5.1206 13.203 5.27664 13.2445 5.43986C13.2918 5.62614 13.2916 5.81727 13.2913 6.01698L13.2913 8.39649C13.2913 8.7278 13.0069 8.99637 12.6561 8.99637C12.3054 8.99637 12.021 8.7278 12.021 8.39649V6.33231L10.514 6.33231H10.514C10.1401 6.33232 9.8217 6.33233 9.56029 6.31215C9.28566 6.29096 9.01848 6.24455 8.76307 6.12163C8.37798 5.93631 8.0649 5.64061 7.8687 5.27691C7.73855 5.03567 7.68941 4.78333 7.66697 4.52394C7.64562 4.27704 7.64562 3.97631 7.64563 3.62315V2.19982L6.58708 2.19983C5.88494 2.19983 5.39654 2.20032 5.01653 2.22965C4.64394 2.2584 4.43182 2.31188 4.2721 2.38874C3.92686 2.55489 3.64616 2.82 3.47025 3.14608C3.38887 3.29693 3.33225 3.49727 3.30181 3.84917C3.27076 4.20809 3.27027 4.66938 3.27027 5.33253V7.66538V9.99822C3.27027 10.6614 3.27076 11.1227 3.30181 11.4816C3.33225 11.8335 3.38887 12.0338 3.47025 12.1847C3.64617 12.5108 3.92686 12.7759 4.2721 12.942C4.43182 13.0189 4.64394 13.0724 5.01653 13.1011C5.39654 13.1304 5.88494 13.1309 6.58708 13.1309H7.01035C7.36112 13.1309 7.64548 13.3995 7.64548 13.7308C7.64548 14.0621 7.36112 14.3306 7.01035 14.3306H6.55997C5.89132 14.3306 5.35092 14.3307 4.91309 14.2969C4.46194 14.2621 4.06405 14.1884 3.69541 14.011C3.11115 13.7298 2.63613 13.2812 2.33844 12.7294C2.15061 12.3812 2.07262 12.0054 2.03576 11.5793C1.99999 11.1657 1.99999 10.6554 2 10.0238V5.30693C1.99999 4.6754 1.99999 4.165 2.03576 3.75148C2.07262 3.32537 2.15061 2.94957 2.33844 2.6014C2.63613 2.04957 3.11115 1.60093 3.69541 1.31976C4.06405 1.14235 4.46194 1.0687 4.91309 1.03388C5.35093 1.0001 5.89132 1.0001 6.55998 1.00011L7.97947 1.00004ZM10.1958 3.92374L11.4756 5.13256H10.539C10.1333 5.13256 9.86723 5.13209 9.66373 5.11639C9.46765 5.10126 9.38626 5.07502 9.33976 5.05265C9.19369 4.98235 9.07494 4.87019 9.00051 4.73224C8.97682 4.68832 8.94904 4.61144 8.93302 4.42625C8.9164 4.23405 8.9159 3.98274 8.9159 3.59955V2.71492L10.1958 3.92374ZM11.8123 10.2677C11.8123 9.93636 11.528 9.66779 11.1772 9.66779C10.8264 9.66779 10.542 9.93636 10.542 10.2677V11.734H8.9895C8.63872 11.734 8.35436 12.0026 8.35436 12.3339C8.35436 12.6652 8.63872 12.9338 8.9895 12.9338H10.542V14.4001C10.542 14.7314 10.8264 15 11.1772 15C11.528 15 11.8123 14.7314 11.8123 14.4001V12.9338H13.3649C13.7156 12.9338 14 12.6652 14 12.3339C14 12.0026 13.7156 11.734 13.3649 11.734H11.8123V10.2677Z" fill="#57534E"/>
</svg>
