<svg width="16" height="16" viewBox="0 0 16 16" fill="none" xmlns="http://www.w3.org/2000/svg">
<path fill-rule="evenodd" clip-rule="evenodd" d="M3.33349 3.333C4.52719 2.13929 6.17802 1.3999 8.00039 1.3999C9.82276 1.3999 11.4736 2.13929 12.6673 3.333C13.861 4.52671 14.6004 6.17753 14.6004 7.9999C14.6004 9.82228 13.861 11.4731 12.6673 12.6668C11.4736 13.8605 9.82276 14.5999 8.00039 14.5999C6.17802 14.5999 4.52719 13.8605 3.33349 12.6668C2.13978 11.4731 1.40039 9.82228 1.40039 7.9999C1.40039 6.17753 2.13978 4.52671 3.33349 3.333ZM8.00039 2.5999C6.50906 2.5999 5.15988 3.20366 4.18201 4.18153C3.20415 5.15939 2.60039 6.50857 2.60039 7.9999C2.60039 9.49124 3.20415 10.8404 4.18201 11.8183C5.15988 12.7961 6.50906 13.3999 8.00039 13.3999C9.49173 13.3999 10.8409 12.7961 11.8188 11.8183C12.7966 10.8404 13.4004 9.49124 13.4004 7.9999C13.4004 6.50857 12.7966 5.15939 11.8188 4.18153C10.8409 3.20366 9.49173 2.5999 8.00039 2.5999Z" fill="#1C1917"/>
<path fill-rule="evenodd" clip-rule="evenodd" d="M6.49881 5.17871C6.91606 4.86993 7.44408 4.73324 7.95218 4.73324C8.7871 4.73324 9.69213 5.09492 10.0104 5.93293C10.1281 6.24271 9.9723 6.58921 9.66252 6.70687C9.35274 6.82452 9.00623 6.66877 8.88858 6.35899C8.8196 6.17736 8.52943 5.93324 7.95218 5.93324C7.64365 5.93324 7.38146 6.01837 7.21265 6.1433C7.06051 6.25589 6.97176 6.4053 6.97176 6.62438C6.97176 6.7553 7.00018 6.82983 7.02852 6.8773C7.0588 6.928 7.11073 6.9837 7.2061 7.04368C7.42172 7.17931 7.73442 7.26724 8.17313 7.38353C8.18527 7.38674 8.19753 7.38999 8.20991 7.39326C8.59199 7.49438 9.08438 7.62469 9.47511 7.87423C9.68908 8.01087 9.89371 8.19487 10.0426 8.44796C10.1932 8.70392 10.2671 8.9972 10.2671 9.32052C10.2671 10.0089 9.91993 10.5216 9.44546 10.8385C8.9919 11.1413 8.42862 11.2666 7.9114 11.2666C7.0688 11.2666 6.29009 10.9674 5.83908 10.3105C5.65153 10.0373 5.72094 9.66384 5.99412 9.47628C6.2673 9.28872 6.64081 9.35813 6.82837 9.63132C6.99014 9.86695 7.33258 10.0666 7.9114 10.0666C8.25559 10.0666 8.57013 9.98003 8.77905 9.84051C8.96706 9.71496 9.06706 9.55466 9.06706 9.32052C9.06706 9.18519 9.03794 9.1068 9.00832 9.05644C8.977 9.00321 8.92419 8.94623 8.82923 8.88558C8.61475 8.74861 8.30265 8.6593 7.86568 8.54347C7.85007 8.53933 7.83424 8.53515 7.81823 8.53092C7.4393 8.43074 6.95313 8.30221 6.5672 8.05946C6.35364 7.92514 6.14812 7.74358 5.99818 7.49244C5.84631 7.23806 5.77176 6.94615 5.77176 6.62438C5.77176 5.99598 6.0649 5.49982 6.49881 5.17871Z" fill="#1C1917"/>
<path fill-rule="evenodd" clip-rule="evenodd" d="M8.00039 3.73324C8.33176 3.73324 8.60039 4.00186 8.60039 4.33324V4.9999C8.60039 5.33127 8.33176 5.5999 8.00039 5.5999C7.66902 5.5999 7.40039 5.33127 7.40039 4.9999V4.33324C7.40039 4.00186 7.66902 3.73324 8.00039 3.73324Z" fill="#1C1917"/>
<path fill-rule="evenodd" clip-rule="evenodd" d="M8.00039 10.3999C8.33176 10.3999 8.60039 10.6685 8.60039 10.9999V11.6666C8.60039 11.9979 8.33176 12.2666 8.00039 12.2666C7.66902 12.2666 7.40039 11.9979 7.40039 11.6666V10.9999C7.40039 10.6685 7.66902 10.3999 8.00039 10.3999Z" fill="#1C1917"/>
</svg>
