<svg width="16" height="16" viewBox="0 0 16 16" fill="none" xmlns="http://www.w3.org/2000/svg">
<path d="M3.50876 3.50923C3.74308 3.27492 4.12298 3.27492 4.35729 3.50923L7.99968 7.15165L11.6421 3.50925C11.8764 3.27493 12.2563 3.27493 12.4906 3.50925C12.7249 3.74356 12.7249 4.12346 12.4906 4.35778L8.84821 8.00018L12.4906 11.6426C12.7249 11.8769 12.7249 12.2568 12.4906 12.4911C12.2563 12.7254 11.8764 12.7254 11.6421 12.4911L7.99968 8.8487L4.35727 12.4911C4.12296 12.7254 3.74306 12.7254 3.50874 12.4911C3.27443 12.2568 3.27443 11.8769 3.50874 11.6426L7.15115 8.00017L3.50876 4.35776C3.27444 4.12344 3.27445 3.74354 3.50876 3.50923Z" fill="#C026D3"/>
</svg>
