<svg width="16" height="16" viewBox="0 0 16 16" fill="none" xmlns="http://www.w3.org/2000/svg">
<path d="M13.1609 8.31209C12.9477 8.09578 12.6107 8.07549 12.3742 8.25281L12.3124 8.30607L8.60033 11.9667L8.60033 2.6C8.60033 2.26863 8.3317 2 8.00033 2C7.69445 2 7.44203 2.22889 7.405 2.52474L7.40033 2.6V11.9667L3.68824 8.30607C3.47193 8.09281 3.13469 8.0773 2.90079 8.25796L2.83973 8.31209C2.62647 8.5284 2.61096 8.86563 2.79162 9.09953L2.84575 9.1606L7.57908 13.8273C7.79322 14.0384 8.1264 14.056 8.36038 13.88L8.42157 13.8273L13.1549 9.1606C13.3909 8.92795 13.3936 8.54806 13.1609 8.31209Z" fill="#C026D3"/>
</svg>
