<svg width="16" height="16" viewBox="0 0 16 16" fill="none" xmlns="http://www.w3.org/2000/svg">
<path fill-rule="evenodd" clip-rule="evenodd" d="M6.31302 1.85577C6.11212 2.02633 5.8859 2.25256 5.62024 2.51824L5.2733 2.86517L4.06996 4.06852L2.86661 5.27186L2.5197 5.61877C2.25402 5.88443 2.0278 6.11065 1.85724 6.31155C1.67806 6.52262 1.52315 6.74736 1.43414 7.02129C1.29995 7.43429 1.29995 7.87917 1.43414 8.29217C1.52315 8.56611 1.67806 8.79085 1.85724 9.00191C2.0278 9.20282 2.25402 9.42903 2.5197 9.6947L3.46273 10.6377C3.7284 10.9034 3.95461 11.1296 4.15552 11.3002C4.36658 11.4794 4.59132 11.6343 4.86526 11.7233C5.27826 11.8575 5.72314 11.8575 6.13614 11.7233C6.41007 11.6343 6.63481 11.4794 6.84588 11.3002C7.04678 11.1296 7.273 10.9034 7.53866 10.6377L7.88558 10.2908L11.819 14.2242L11.83 14.2353C11.8903 14.2956 11.9596 14.3649 12.0253 14.4207C12.1007 14.4847 12.2121 14.5672 12.3646 14.6168C12.5639 14.6816 12.7787 14.6816 12.9781 14.6168C13.1306 14.5672 13.242 14.4847 13.3174 14.4207C13.383 14.3649 13.4524 14.2956 13.5126 14.2353L14.2367 13.5112C14.297 13.4509 14.3664 13.3816 14.4221 13.3159C14.4862 13.2405 14.5687 13.1291 14.6182 12.9766C14.683 12.7773 14.683 12.5625 14.6182 12.3631C14.5687 12.2106 14.4862 12.0992 14.4221 12.0238C14.3664 11.9582 14.297 11.8888 14.2367 11.8286L14.2257 11.8175L10.2923 7.88412L10.6392 7.53719C10.9049 7.27153 11.1311 7.04531 11.3017 6.84441C11.4808 6.63334 11.6358 6.4086 11.7248 6.13467C11.859 5.72167 11.859 5.27679 11.7248 4.86379C11.6358 4.58985 11.4808 4.36511 11.3017 4.15405C11.1311 3.95314 10.9049 3.72693 10.6392 3.46127L9.69617 2.51824C9.4305 2.25256 9.20429 2.02633 9.00339 1.85577C8.79232 1.67659 8.56758 1.52168 8.29364 1.43268C7.88064 1.29848 7.43576 1.29848 7.02276 1.43268C6.74883 1.52168 6.52409 1.67659 6.31302 1.85577ZM2.83025 7.13757C2.70232 7.28827 2.66422 7.36583 2.64801 7.4157C2.59711 7.57236 2.59711 7.74111 2.64801 7.89776C2.66422 7.94763 2.70232 8.0252 2.83024 8.17589C2.96301 8.33228 3.15171 8.52169 3.43996 8.80994L4.34749 9.71746C4.63574 10.0057 4.82515 10.1944 4.98154 10.3272C5.13223 10.4551 5.2098 10.4932 5.25967 10.5094C5.41632 10.5603 5.58507 10.5603 5.74173 10.5094C5.7916 10.4932 5.86916 10.4551 6.01986 10.3272C6.17625 10.1944 6.36565 10.0057 6.65391 9.71746L9.71894 6.65243C10.0072 6.36418 10.1959 6.17478 10.3287 6.01839C10.4566 5.8677 10.4947 5.79013 10.5109 5.74026C10.5618 5.5836 10.5618 5.41486 10.5109 5.2582C10.4947 5.20833 10.4566 5.13076 10.3287 4.98007C10.1959 4.82368 10.0072 4.63428 9.71894 4.34602L8.81141 3.4385C8.52316 3.15025 8.33376 2.96155 8.17736 2.82878C8.02667 2.70085 7.9491 2.66275 7.89923 2.64655C7.74258 2.59565 7.57383 2.59565 7.41718 2.64655C7.36731 2.66275 7.28974 2.70085 7.13904 2.82878C6.98265 2.96155 6.79325 3.15025 6.505 3.4385L3.43996 6.50353C3.15171 6.79178 2.96301 6.98118 2.83025 7.13757ZM12.6713 13.2715L13.273 12.6699L9.38976 8.78663L8.78809 9.3883L12.6713 13.2715Z" fill="#1C1917"/>
</svg>
