<svg xmlns="http://www.w3.org/2000/svg" version="1.1" xmlns:xlink="http://www.w3.org/1999/xlink" width="512" height="512" x="0" y="0" viewBox="0 0 53 53" style="enable-background:new 0 0 512 512" xml:space="preserve" class=""><g><path fill="#f30040" d="M53 26.5c0 1.69-.16 3.35-.47 4.95H32.11V52.4a26.563 26.563 0 0 1-11.23 0V31.45H.47C.16 29.85 0 28.19 0 26.5s.16-3.35.47-4.95h20.41V.6a26.563 26.563 0 0 1 11.23 0v20.95h20.42c.31 1.6.47 3.26.47 4.95z" opacity="1" data-original="#f30040" class=""></path><path fill="#14439e" d="M19.25 1.09v15.68L6.99 8.56c3.21-3.48 7.33-6.1 11.99-7.47zM6.42 19.55H.93c.27-1.04.61-2.04 1.01-3z" opacity="1" data-original="#14439e" class=""></path><path fill="#f30040" d="M17.64 19.55h-6.69l-7.94-5.3c.53-1.04 1.13-2.03 1.81-2.98z" opacity="1" data-original="#f30040" class=""></path><path fill="#14439e" d="M19.25 36.22v15.69h-.27c-4.66-1.38-8.79-4-11.99-7.48zM6.42 33.45l-4.48 3c-.4-.96-.74-1.96-1.01-3z" opacity="1" data-original="#14439e" class=""></path><path fill="#f30040" d="M17.64 33.45 4.82 41.73c-.68-.95-1.28-1.95-1.81-2.99l7.94-5.29z" opacity="1" data-original="#f30040" class=""></path><path fill="#14439e" d="m46.01 8.56-12.26 8.21V1.09h.27c4.66 1.37 8.78 3.99 11.99 7.47zM52.07 19.55h-5.48l4.48-3c.39.96.73 1.96 1 3z" opacity="1" data-original="#14439e" class=""></path><path fill="#f30040" d="m49.99 14.25-7.94 5.3h-6.68l12.81-8.28c.68.95 1.28 1.94 1.81 2.98z" opacity="1" data-original="#f30040" class=""></path><path fill="#14439e" d="M46.01 44.43c-3.2 3.48-7.33 6.1-11.99 7.48h-.27V36.22zM52.07 33.45c-.27 1.03-.61 2.03-1 2.99l-4.48-2.99z" opacity="1" data-original="#14439e" class=""></path><path fill="#f30040" d="M49.99 38.74c-.53 1.04-1.13 2.04-1.81 2.99l-12.81-8.28h6.68z" opacity="1" data-original="#f30040" class=""></path><path fill="#ffffff" d="M52.53 21.55H32.11V.6c.65.14 1.29.29 1.91.49h-.27v15.68l12.26-8.21c.78.85 1.51 1.75 2.17 2.71l-12.81 8.28h6.68l7.94-5.3c.41.75.76 1.51 1.08 2.3l-4.48 3h5.48c.18.65.34 1.32.46 2z" opacity="1" data-original="#ffffff" class=""></path><path fill="#ffffff" d="M20.88.6v20.95H.47c.12-.68.28-1.35.46-2h5.49l-4.48-3c.31-.79.66-1.55 1.07-2.3l7.94 5.3h6.69L4.82 11.27c.66-.96 1.39-1.86 2.17-2.71l12.26 8.21V1.09h-.27c.62-.2 1.25-.35 1.9-.49z" opacity="1" data-original="#ffffff" class=""></path><path fill="#ffffff" d="M20.88 31.45V52.4c-.65-.14-1.28-.29-1.9-.49h.27V36.22L6.99 44.43c-.78-.85-1.51-1.75-2.17-2.7l12.82-8.28h-6.69l-7.94 5.29c-.41-.74-.76-1.5-1.07-2.29l4.48-3H.93c-.18-.65-.34-1.32-.46-2z" opacity="1" data-original="#ffffff" class=""></path><path fill="#ffffff" d="M52.07 33.45h-5.48l4.48 2.99c-.32.8-.67 1.55-1.08 2.3l-7.94-5.29h-6.68l12.81 8.28c-.66.95-1.39 1.85-2.17 2.7l-12.26-8.21v15.69h.27c-.62.2-1.26.35-1.91.49V31.45h20.42c-.12.68-.28 1.35-.46 2z" opacity="1" data-original="#ffffff" class=""></path><g fill="none"><path d="M46.01 44.43c-3.2 3.48-7.33 6.1-11.99 7.48h-.27V36.22zM49.99 38.74c-.53 1.04-1.13 2.04-1.81 2.99l-12.81-8.28h6.68zM52.07 33.45c-.27 1.03-.61 2.03-1 2.99l-4.48-2.99z" fill="" opacity="1"></path><path d="M53 26.5c0 1.69-.16 3.35-.47 4.95H32.11V52.4a26.563 26.563 0 0 1-11.23 0V31.45H.47C.16 29.85 0 28.19 0 26.5s.16-3.35.47-4.95h20.41V.6a26.563 26.563 0 0 1 11.23 0v20.95h20.42c.31 1.6.47 3.26.47 4.95z" fill="" opacity="1"></path></g></g></svg>