<svg width="16" height="16" viewBox="0 0 16 16" fill="none" xmlns="http://www.w3.org/2000/svg">
<path d="M8.47733 1.19424C8.35074 1.06987 8.17905 1 8.00003 1C7.82101 1 7.64932 1.06987 7.52273 1.19423L4.37273 4.28896C4.10912 4.54793 4.10912 4.96782 4.37272 5.2268C4.63633 5.48578 5.06372 5.48579 5.32732 5.22681L7.32503 3.26416V9.91578C7.32503 10.282 7.62723 10.5789 8.00003 10.5789C8.37282 10.5789 8.67503 10.282 8.67503 9.91578V3.26417L10.6727 5.2268C10.9363 5.48578 11.3637 5.48579 11.6273 5.22681C11.8909 4.96783 11.8909 4.54794 11.6273 4.28896L8.47733 1.19424Z" fill="#0C0A09"/>
<path d="M3.35 9.76843C3.35 9.40218 3.0478 9.10527 2.675 9.10527C2.30221 9.10527 2 9.40218 2 9.76843V10.8278C1.99999 11.4232 1.99999 11.9101 2.0329 12.3059C2.06696 12.7155 2.13962 13.0854 2.31881 13.4309C2.59924 13.9717 3.04671 14.4113 3.59708 14.6868C3.94875 14.8628 4.32531 14.9342 4.74224 14.9677C5.14504 15 5.64065 15 6.24666 15H9.75327C10.3593 15 10.855 15 11.2578 14.9677C11.6747 14.9342 12.0513 14.8628 12.4029 14.6868C12.9533 14.4113 13.4008 13.9717 13.6812 13.4309C13.8604 13.0854 13.933 12.7155 13.9671 12.3059C14 11.9101 14 11.4232 14 10.8278V9.76843C14 9.40218 13.6978 9.10527 13.325 9.10527C12.9522 9.10527 12.65 9.40218 12.65 9.76843V10.8C12.65 11.4299 12.6495 11.8625 12.6216 12.1979C12.5943 12.5255 12.5444 12.7014 12.4783 12.8288C12.3273 13.12 12.0864 13.3567 11.79 13.505C11.6604 13.5699 11.4813 13.619 11.1478 13.6458C10.8065 13.6732 10.3662 13.6737 9.72499 13.6737H6.27501C5.63381 13.6737 5.19351 13.6732 4.85218 13.6458C4.51873 13.619 4.3396 13.5699 4.20997 13.505C3.91361 13.3567 3.67267 13.12 3.52167 12.8288C3.45562 12.7014 3.40566 12.5255 3.37842 12.1979C3.35053 11.8625 3.35 11.4299 3.35 10.8V9.76843Z" fill="#0C0A09"/>
</svg>
