<svg width="16" height="16" viewBox="0 0 16 16" fill="none" xmlns="http://www.w3.org/2000/svg">
<path fill-rule="evenodd" clip-rule="evenodd" d="M8.5999 1.93228C8.5999 1.6009 8.33127 1.33228 7.9999 1.33228C7.66853 1.33228 7.3999 1.6009 7.3999 1.93228V2.67167C6.57356 2.74823 5.82804 2.98413 5.24319 3.36071C4.51458 3.82985 4.00153 4.54801 4.00153 5.43831C4.00153 5.94233 4.07222 6.68052 4.68468 7.3293C5.21323 7.88918 6.07105 8.30363 7.3999 8.52214V12.1268C6.05551 11.9938 5.42699 11.4171 5.09835 10.9317C4.91256 10.6573 4.53951 10.5855 4.26512 10.7713C3.99074 10.9571 3.91891 11.3301 4.1047 11.6045C4.65355 12.4151 5.63846 13.1881 7.3999 13.3314V14.0675C7.3999 14.3989 7.66853 14.6675 7.9999 14.6675C8.33127 14.6675 8.5999 14.3989 8.5999 14.0675V13.3277C9.42624 13.2512 10.1718 13.0155 10.7566 12.639C11.4853 12.17 11.9984 11.4519 11.9984 10.5616C11.9984 10.0576 11.9277 9.31939 11.3152 8.67063C10.7867 8.11074 9.92881 7.6963 8.5999 7.4778V3.87718C9.92011 4.02782 10.574 4.66388 10.9293 5.1041C11.1375 5.36195 11.5152 5.40225 11.7731 5.19411C12.0309 4.98597 12.0712 4.60822 11.8631 4.35037C11.345 3.70863 10.3873 2.83346 8.5999 2.67088V1.93228ZM7.3999 3.87798C6.78024 3.94945 6.26555 4.12966 5.89284 4.36965C5.41072 4.68008 5.20153 5.05892 5.20153 5.43831C5.20153 5.82669 5.25704 6.18751 5.55728 6.50554C5.82293 6.78694 6.3473 7.10536 7.3999 7.30378V3.87798ZM8.5999 8.69616V12.1214C9.21966 12.05 9.7344 11.8699 10.1071 11.63C10.5892 11.3196 10.7984 10.9409 10.7984 10.5616C10.7984 10.1732 10.7429 9.81242 10.4426 9.49439C10.177 9.213 9.65258 8.89457 8.5999 8.69616Z" fill="#57534E"/>
</svg>
