<svg width="16" height="16" viewBox="0 0 16 16" fill="none" xmlns="http://www.w3.org/2000/svg">
<path fill-rule="evenodd" clip-rule="evenodd" d="M5.61595 2.03382C5.45231 1.99966 5.28617 1.99984 5.11256 2.00003L5.04989 2.00006C4.53804 2.00005 4.11941 2.00004 3.77866 2.02653C3.42613 2.05393 3.10709 2.11232 2.80685 2.2566C2.27463 2.51236 1.84532 2.94168 1.58956 3.4739C1.44528 3.77413 1.38688 4.09318 1.35948 4.44571C1.333 4.78646 1.333 5.20508 1.33301 5.71693V9.55851C1.333 10.0972 1.333 10.5378 1.36225 10.8958C1.39253 11.2664 1.45712 11.6012 1.61639 11.9137C1.86566 12.403 2.26341 12.8007 2.75263 13.05C3.06523 13.2093 3.39994 13.2739 3.77055 13.3041C4.1286 13.3334 4.56917 13.3334 5.10787 13.3334H10.8915C11.4302 13.3334 11.8707 13.3334 12.2288 13.3041C12.5994 13.2739 12.9341 13.2093 13.2467 13.05C13.7359 12.8007 14.1337 12.403 14.3829 11.9137C14.5422 11.6012 14.6068 11.2664 14.6371 10.8958C14.6663 10.5378 14.6663 10.0972 14.6663 9.55851V7.24157C14.6663 6.70287 14.6663 6.2623 14.6371 5.90425C14.6068 5.53364 14.5422 5.19892 14.3829 4.88633C14.1337 4.39711 13.7359 3.99936 13.2467 3.75009C12.9341 3.59082 12.5994 3.52623 12.2288 3.49595C11.8707 3.46669 11.4302 3.4667 10.8915 3.46671L7.93674 3.46671C7.68744 3.46671 7.65212 3.46346 7.62441 3.45737C7.58676 3.44909 7.5505 3.4354 7.51676 3.41675C7.49194 3.40302 7.46328 3.38212 7.27612 3.21742L6.47844 2.51544C6.34824 2.40061 6.22363 2.29071 6.07821 2.20825C5.93409 2.12653 5.77814 2.06768 5.61595 2.03382ZM5.07375 3.20006C5.31069 3.20006 5.34434 3.20299 5.37072 3.2085C5.41127 3.21696 5.45026 3.23167 5.48629 3.25211C5.50973 3.2654 5.53693 3.28543 5.71481 3.44195L6.51399 4.14527C6.65096 4.26608 6.78208 4.38173 6.93603 4.46687C7.07098 4.5415 7.21602 4.59623 7.36664 4.62936C7.53845 4.66714 7.71329 4.66695 7.89592 4.66674L10.8663 4.66671C11.4363 4.66671 11.8277 4.66717 12.1311 4.69196C12.4275 4.71618 12.5867 4.76058 12.7019 4.8193C12.9653 4.95352 13.1795 5.16769 13.3137 5.43112C13.3724 5.54635 13.4169 5.70557 13.4411 6.00197C13.4445 6.044 13.4475 6.08771 13.45 6.13336H2.53301V5.7408C2.53301 5.19928 2.53343 4.82744 2.55587 4.53869C2.57781 4.25644 2.61808 4.10409 2.67115 3.99366C2.80887 3.70708 3.04003 3.47591 3.32662 3.3382C3.43704 3.28513 3.58939 3.24486 3.87164 3.22292C4.16039 3.20048 4.53224 3.20006 5.07375 3.20006ZM2.53301 7.33336V9.53337C2.53301 10.1033 2.53348 10.4947 2.55826 10.7981C2.58248 11.0945 2.62689 11.2537 2.6856 11.369C2.81982 11.6324 3.034 11.8466 3.29742 11.9808C3.41265 12.0395 3.57187 12.0839 3.86827 12.1081C4.17168 12.1329 4.56306 12.1334 5.13301 12.1334H10.8663C11.4363 12.1334 11.8277 12.1329 12.1311 12.1081C12.4275 12.0839 12.5867 12.0395 12.7019 11.9808C12.9653 11.8466 13.1795 11.6324 13.3137 11.369C13.3724 11.2537 13.4169 11.0945 13.4411 10.7981C13.4659 10.4947 13.4663 10.1033 13.4663 9.53337V7.33336H2.53301Z" fill="#78716C"/>
</svg>
