<svg width="16" height="16" viewBox="0 0 16 16" fill="none" xmlns="http://www.w3.org/2000/svg">
<path d="M5.27884 8.66604C5.73093 8.66604 6.03725 8.72519 6.35833 8.89691C6.6761 9.06685 6.93265 9.32341 7.10259 9.64117C7.25523 9.92658 7.31893 10.2003 7.3312 10.5751L7.33346 10.7207V12.4781C7.33346 12.9302 7.27431 13.2365 7.10259 13.5576C6.93265 13.8753 6.6761 14.1319 6.35833 14.3018C6.07293 14.4545 5.79918 14.5182 5.42436 14.5304L5.27884 14.5327H3.52143C3.06933 14.5327 2.76301 14.4736 2.44193 14.3018C2.12417 14.1319 1.86761 13.8753 1.69767 13.5576C1.54503 13.2722 1.48133 12.9984 1.46906 12.6236L1.4668 12.4781V10.7207C1.4668 10.2686 1.52595 9.96225 1.69767 9.64117C1.86761 9.32341 2.12417 9.06685 2.44193 8.89691C2.72733 8.74427 3.00108 8.68058 3.37591 8.6683L3.52143 8.66604H5.27884ZM12.4788 8.66604C12.9309 8.66604 13.2372 8.72519 13.5583 8.89691C13.8761 9.06685 14.1327 9.32341 14.3026 9.64117C14.4552 9.92658 14.5189 10.2003 14.5312 10.5751L14.5335 10.7207V12.4781C14.5335 12.9302 14.4743 13.2365 14.3026 13.5576C14.1327 13.8753 13.8761 14.1319 13.5583 14.3018C13.2729 14.4545 12.9992 14.5182 12.6244 14.5304L12.4788 14.5327H10.7214C10.2693 14.5327 9.96301 14.4736 9.64193 14.3018C9.32416 14.1319 9.06761 13.8753 8.89767 13.5576C8.74503 13.2722 8.68133 12.9984 8.66906 12.6236L8.6668 12.4781V10.7207C8.6668 10.2686 8.72595 9.96225 8.89767 9.64117C9.06761 9.32341 9.32416 9.06685 9.64193 8.89691C9.92733 8.74427 10.2011 8.68058 10.5759 8.6683L10.7214 8.66604H12.4788ZM5.27884 9.86604H3.52143C3.22425 9.86604 3.11649 9.89698 3.00785 9.95508C2.89921 10.0132 2.81394 10.0984 2.75584 10.2071C2.705 10.3022 2.67496 10.3965 2.66824 10.6177L2.6668 10.7207V12.4781C2.6668 12.7753 2.69774 12.883 2.75584 12.9917C2.81394 13.1003 2.89921 13.1856 3.00785 13.2437C3.10291 13.2945 3.1973 13.3245 3.41849 13.3313L3.52143 13.3327H5.27884C5.57601 13.3327 5.68377 13.3018 5.79241 13.2437C5.90105 13.1856 5.98632 13.1003 6.04442 12.9917C6.09526 12.8966 6.1253 12.8022 6.13202 12.581L6.13346 12.4781V10.7207C6.13346 10.4235 6.10252 10.3157 6.04442 10.2071C5.98632 10.0984 5.90105 10.0132 5.79241 9.95508C5.68377 9.89698 5.57601 9.86604 5.27884 9.86604ZM12.4788 9.86604H10.7214C10.4243 9.86604 10.3165 9.89698 10.2078 9.95508C10.0992 10.0132 10.0139 10.0984 9.95584 10.2071C9.905 10.3022 9.87496 10.3965 9.86824 10.6177L9.8668 10.7207V12.4781C9.8668 12.7753 9.89774 12.883 9.95584 12.9917C10.0139 13.1003 10.0992 13.1856 10.2078 13.2437C10.3029 13.2945 10.3973 13.3245 10.6185 13.3313L10.7214 13.3327H12.4788C12.776 13.3327 12.8838 13.3018 12.9924 13.2437C13.1011 13.1856 13.1863 13.1003 13.2444 12.9917C13.2953 12.8966 13.3253 12.8022 13.332 12.581L13.3335 12.4781V10.7207C13.3335 10.4235 13.3025 10.3157 13.2444 10.2071C13.1863 10.0984 13.1011 10.0132 12.9924 9.95508C12.8838 9.89698 12.776 9.86604 12.4788 9.86604ZM12.1264 1.10379C12.4313 1.1962 12.6673 1.34156 12.9357 1.59062L13.053 1.70386L14.2956 2.94653C14.6153 3.26621 14.7901 3.52464 14.8957 3.8731C15.0002 4.21796 15.0002 4.58079 14.8957 4.92565C14.8033 5.23055 14.6579 5.46652 14.4089 5.73491L14.2956 5.85222L13.053 7.09489C12.7333 7.41457 12.4749 7.58934 12.1264 7.69496C11.7815 7.79949 11.4187 7.79949 11.0739 7.69496C10.769 7.60255 10.533 7.45719 10.2646 7.20813L10.1473 7.09489L8.90461 5.85222C8.58493 5.53253 8.41016 5.27411 8.30454 4.92565C8.20002 4.58079 8.20002 4.21796 8.30454 3.8731C8.39696 3.5682 8.54232 3.33223 8.79138 3.06384L8.90461 2.94653L10.1473 1.70386C10.467 1.38417 10.7254 1.2094 11.0739 1.10379C11.4187 0.999259 11.7815 0.999259 12.1264 1.10379ZM5.27884 1.46604C5.73093 1.46604 6.03725 1.52519 6.35833 1.69691C6.6761 1.86685 6.93265 2.12341 7.10259 2.44117C7.27431 2.76225 7.33346 3.06857 7.33346 3.52067V5.27808C7.33346 5.73018 7.27431 6.03649 7.10259 6.35757C6.93265 6.67534 6.6761 6.9319 6.35833 7.10184C6.03725 7.27355 5.73093 7.33271 5.27884 7.33271H3.52143C3.06933 7.33271 2.76301 7.27355 2.44193 7.10184C2.12417 6.9319 1.86761 6.67534 1.69767 6.35757C1.52595 6.03649 1.4668 5.73018 1.4668 5.27808V3.52067C1.4668 3.06857 1.52595 2.76225 1.69767 2.44117C1.86761 2.12341 2.12417 1.86685 2.44193 1.69691C2.76301 1.52519 3.06933 1.46604 3.52143 1.46604H5.27884ZM11.4219 2.25219C11.3188 2.28346 11.2308 2.32896 11.0696 2.48062L10.9958 2.55238L9.75314 3.79506C9.54301 4.00519 9.48869 4.10327 9.45295 4.22118C9.41721 4.33908 9.41721 4.45966 9.45295 4.57757C9.48422 4.68074 9.52972 4.76872 9.68138 4.92988L9.75314 5.00369L10.9958 6.24636C11.2059 6.4565 11.304 6.51082 11.4219 6.54655C11.5398 6.58229 11.6604 6.58229 11.7783 6.54655C11.8815 6.51528 11.9695 6.46979 12.1306 6.31813L12.2044 6.24636L13.4471 5.00369C13.6573 4.79355 13.7116 4.69548 13.7473 4.57757C13.783 4.45966 13.783 4.33908 13.7473 4.22118C13.716 4.11801 13.6705 4.03002 13.5189 3.86886L13.4471 3.79506L12.2044 2.55238C11.9943 2.34225 11.8962 2.28793 11.7783 2.25219C11.6604 2.21646 11.5398 2.21646 11.4219 2.25219ZM5.27884 2.66604H3.52143C3.22425 2.66604 3.11649 2.69698 3.00785 2.75508C2.89921 2.81319 2.81394 2.89845 2.75584 3.00709C2.69774 3.11573 2.6668 3.2235 2.6668 3.52067V5.27808C2.6668 5.57525 2.69774 5.68301 2.75584 5.79166C2.81394 5.9003 2.89921 5.98556 3.00785 6.04366C3.11649 6.10177 3.22425 6.13271 3.52143 6.13271H5.27884C5.57601 6.13271 5.68377 6.10177 5.79241 6.04366C5.90105 5.98556 5.98632 5.9003 6.04442 5.79166C6.10252 5.68301 6.13346 5.57525 6.13346 5.27808V3.52067C6.13346 3.2235 6.10252 3.11573 6.04442 3.00709C5.98632 2.89845 5.90105 2.81319 5.79241 2.75508C5.68377 2.69698 5.57601 2.66604 5.27884 2.66604Z" fill="#57534E"/>
</svg>
