<svg width="28" height="28" viewBox="0 0 28 28" fill="none" xmlns="http://www.w3.org/2000/svg">
<path d="M9.23796 15.1661C10.0291 15.1661 10.5652 15.2696 11.1271 15.5701C11.6832 15.8675 12.1321 16.3165 12.4295 16.8725C12.6967 17.372 12.8081 17.851 12.8296 18.507L12.8336 18.7617V21.8371C12.8336 22.6283 12.73 23.1644 12.4295 23.7262C12.1321 24.2823 11.6832 24.7313 11.1271 25.0287C10.6276 25.2958 10.1486 25.4073 9.49262 25.4288L9.23796 25.4327H6.16249C5.37132 25.4327 4.83527 25.3292 4.27338 25.0287C3.71729 24.7313 3.26831 24.2823 2.97091 23.7262C2.7038 23.2268 2.59233 22.7477 2.57086 22.0918L2.56689 21.8371V18.7617C2.56689 17.9705 2.67041 17.4344 2.97091 16.8725C3.26831 16.3165 3.71729 15.8675 4.27338 15.5701C4.77283 15.303 5.25188 15.1915 5.90783 15.17L6.16249 15.1661H9.23796ZM21.838 15.1661C22.6291 15.1661 23.1652 15.2696 23.7271 15.5701C24.2832 15.8675 24.7321 16.3165 25.0295 16.8725C25.2967 17.372 25.4081 17.851 25.4296 18.507L25.4336 18.7617V21.8371C25.4336 22.6283 25.33 23.1644 25.0295 23.7262C24.7321 24.2823 24.2832 24.7313 23.7271 25.0287C23.2276 25.2958 22.7486 25.4073 22.0926 25.4288L21.838 25.4327H18.7625C17.9713 25.4327 17.4353 25.3292 16.8734 25.0287C16.3173 24.7313 15.8683 24.2823 15.5709 23.7262C15.3038 23.2268 15.1923 22.7477 15.1709 22.0918L15.1669 21.8371V18.7617C15.1669 17.9705 15.2704 17.4344 15.5709 16.8725C15.8683 16.3165 16.3173 15.8675 16.8734 15.5701C17.3728 15.303 17.8519 15.1915 18.5078 15.17L18.7625 15.1661H21.838ZM9.23796 17.2661H6.16249C5.64244 17.2661 5.45386 17.3202 5.26373 17.4219C5.07361 17.5236 4.9244 17.6728 4.82272 17.8629C4.73375 18.0293 4.68117 18.1944 4.66942 18.5815L4.66689 18.7617V21.8371C4.66689 22.3572 4.72104 22.5458 4.82272 22.7359C4.9244 22.926 5.07361 23.0752 5.26373 23.1769C5.43009 23.2659 5.59527 23.3184 5.98236 23.3302L6.16249 23.3327H9.23796C9.75801 23.3327 9.9466 23.2786 10.1367 23.1769C10.3268 23.0752 10.4761 22.926 10.5777 22.7359C10.6667 22.5695 10.7193 22.4043 10.731 22.0173L10.7336 21.8371V18.7617C10.7336 18.2416 10.6794 18.053 10.5777 17.8629C10.4761 17.6728 10.3268 17.5236 10.1367 17.4219C9.9466 17.3202 9.75801 17.2661 9.23796 17.2661ZM21.838 17.2661H18.7625C18.2424 17.2661 18.0539 17.3202 17.8637 17.4219C17.6736 17.5236 17.5244 17.6728 17.4227 17.8629C17.3338 18.0293 17.2812 18.1944 17.2694 18.5815L17.2669 18.7617V21.8371C17.2669 22.3572 17.321 22.5458 17.4227 22.7359C17.5244 22.926 17.6736 23.0752 17.8637 23.1769C18.0301 23.2659 18.1953 23.3184 18.5824 23.3302L18.7625 23.3327H21.838C22.358 23.3327 22.5466 23.2786 22.7367 23.1769C22.9268 23.0752 23.0761 22.926 23.1777 22.7359C23.2667 22.5695 23.3193 22.4043 23.331 22.0173L23.3336 21.8371V18.7617C23.3336 18.2416 23.2794 18.053 23.1777 17.8629C23.0761 17.6728 22.9268 17.5236 22.7367 17.4219C22.5466 17.3202 22.358 17.2661 21.838 17.2661ZM21.2212 1.93211C21.7548 2.09384 22.1677 2.34822 22.6374 2.78407L22.8427 2.98223L25.0174 5.15692C25.5768 5.71636 25.8827 6.16861 26.0675 6.77841C26.2504 7.38192 26.2504 8.01687 26.0675 8.62037C25.9058 9.15395 25.6514 9.5669 25.2155 10.0366L25.0174 10.2419L22.8427 12.4165C22.2833 12.976 21.831 13.2818 21.2212 13.4667C20.6177 13.6496 19.9828 13.6496 19.3792 13.4667C18.8457 13.3049 18.4327 13.0506 17.963 12.6147L17.7578 12.4165L15.5831 10.2419C15.0236 9.68242 14.7178 9.23018 14.5329 8.62037C14.35 8.01687 14.35 7.38192 14.5329 6.77841C14.6947 6.24483 14.9491 5.83188 15.3849 5.3622L15.5831 5.15692L17.7578 2.98223C18.3172 2.42279 18.7694 2.11694 19.3792 1.93211C19.9828 1.74919 20.6177 1.74919 21.2212 1.93211ZM9.23796 2.56606C10.0291 2.56606 10.5652 2.66958 11.1271 2.97008C11.6832 3.26748 12.1321 3.71645 12.4295 4.27254C12.73 4.83443 12.8336 5.37049 12.8336 6.16166V9.23713C12.8336 10.0283 12.73 10.5644 12.4295 11.1262C12.1321 11.6823 11.6832 12.1313 11.1271 12.4287C10.5652 12.7292 10.0291 12.8327 9.23796 12.8327H6.16249C5.37132 12.8327 4.83527 12.7292 4.27338 12.4287C3.71729 12.1313 3.26831 11.6823 2.97091 11.1262C2.67041 10.5644 2.56689 10.0283 2.56689 9.23713V6.16166C2.56689 5.37049 2.67041 4.83443 2.97091 4.27254C3.26831 3.71645 3.71729 3.26748 4.27338 2.97008C4.83527 2.66958 5.37132 2.56606 6.16249 2.56606H9.23796ZM19.9884 3.94183C19.8078 3.99655 19.6539 4.07617 19.3718 4.34157L19.2427 4.46716L17.068 6.64184C16.7003 7.00958 16.6052 7.18121 16.5427 7.38755C16.4801 7.59388 16.4801 7.8049 16.5427 8.01123C16.5974 8.19178 16.677 8.34576 16.9424 8.62778L17.068 8.75694L19.2427 10.9316C19.6104 11.2994 19.782 11.3944 19.9884 11.457C20.1947 11.5195 20.4057 11.5195 20.6121 11.457C20.7926 11.4022 20.9466 11.3226 21.2286 11.0572L21.3578 10.9316L23.5325 8.75694C23.9002 8.38921 23.9953 8.21757 24.0578 8.01123C24.1203 7.8049 24.1203 7.59388 24.0578 7.38755C24.0031 7.207 23.9234 7.05303 23.658 6.771L23.5325 6.64184L21.3578 4.46716C20.99 4.09943 20.8184 4.00437 20.6121 3.94183C20.4057 3.87929 20.1947 3.87929 19.9884 3.94183ZM9.23796 4.66606H6.16249C5.64244 4.66606 5.45386 4.72021 5.26373 4.82189C5.07361 4.92356 4.9244 5.07277 4.82272 5.2629C4.72104 5.45302 4.66689 5.64161 4.66689 6.16166V9.23713C4.66689 9.75718 4.72104 9.94576 4.82272 10.1359C4.9244 10.326 5.07361 10.4752 5.26373 10.5769C5.45386 10.6786 5.64244 10.7327 6.16249 10.7327H9.23796C9.75801 10.7327 9.9466 10.6786 10.1367 10.5769C10.3268 10.4752 10.4761 10.326 10.5777 10.1359C10.6794 9.94576 10.7336 9.75718 10.7336 9.23713V6.16166C10.7336 5.64161 10.6794 5.45302 10.5777 5.2629C10.4761 5.07277 10.3268 4.92356 10.1367 4.82189C9.9466 4.72021 9.75801 4.66606 9.23796 4.66606Z" fill="#1C1917"/>
</svg>
