<svg width="16" height="16" viewBox="0 0 16 16" fill="none" xmlns="http://www.w3.org/2000/svg">
<g clip-path="url(#clip0_2173_4296)">
<path fill-rule="evenodd" clip-rule="evenodd" d="M15.74 2.98969L13.73 5.02969L13.72 5.00967C12.73 6.0197 11.99 6.24967 10.55 6.0997L9.52 7.1397C9.88 7.79968 9.78997 8.6497 9.24 9.20971C8.56999 9.8997 7.45998 9.8997 6.76999 9.22969C6.08 8.55968 6.06997 7.44971 6.74998 6.75968C7.29998 6.19968 8.13998 6.0997 8.80999 6.44967L9.84 5.40967C9.66997 3.96967 9.88 3.22969 10.87 2.21969L12.88 0.179688L13.44 2.47969L15.74 2.98969ZM10.99 7.15968H11.26V7.17967C11.63 7.17967 11.9601 7.13966 12.27 7.06966C12.34 7.37966 12.38 7.68967 12.38 8.01966C12.38 10.4397 10.42 12.3997 8.00006 12.3997C5.58005 12.3997 3.62005 10.4397 3.62005 8.01966C3.62005 5.59968 5.58005 3.63968 8.00006 3.63968C8.30005 3.63968 8.60006 3.66966 8.88006 3.72967C8.80006 4.11968 8.77006 4.53966 8.80006 5.00967C8.54005 4.93966 8.28006 4.88967 8.00006 4.88967C6.28006 4.88967 4.88006 6.28967 4.88006 8.00967C4.88006 9.72967 6.28006 11.1297 8.00006 11.1297C9.72006 11.1297 11.1201 9.72967 11.1201 8.00967C11.1201 7.70966 11.07 7.42966 10.99 7.15968ZM13.76 6.32967C13.99 6.15968 14.21 5.95968 14.44 5.72967L14.96 5.19968C15.3 6.06969 15.5 7.00967 15.5 7.99968C15.5 12.1397 12.14 15.4997 8 15.4997C3.85998 15.4997 0.5 12.1397 0.5 7.99968C0.5 3.85966 3.85998 0.499681 8 0.499681C8.93998 0.499681 9.84 0.679681 10.67 0.999681L10.16 1.51968C9.92999 1.74968 9.73998 1.97968 9.56999 2.20968C9.07001 2.07968 8.53998 1.99968 8 1.99968C4.68999 1.99968 2 4.68967 2 7.99968C2 11.3097 4.68999 13.9997 8 13.9997C11.31 13.9997 14 11.3097 14 7.99968C14 7.41966 13.91 6.85966 13.76 6.32967Z" fill="#1C1917"/>
</g>
<defs>
<clipPath id="clip0_2173_4296">
<rect width="16" height="16" fill="white"/>
</clipPath>
</defs>
</svg>
