<svg width="16" height="16" viewBox="0 0 16 16" fill="none" xmlns="http://www.w3.org/2000/svg">
<g clip-path="url(#clip0_2230_12221)">
<path fill-rule="evenodd" clip-rule="evenodd" d="M15.74 2.99018L13.73 5.03018L13.72 5.01016C12.73 6.02019 11.99 6.25016 10.55 6.10019L9.52 7.14019C9.88 7.80017 9.78997 8.65019 9.24 9.21019C8.56999 9.90019 7.45998 9.90019 6.76999 9.23018C6.08 8.56017 6.06997 7.45019 6.74998 6.76017C7.29998 6.20017 8.13998 6.10019 8.80999 6.45016L9.84 5.41016C9.66997 3.97016 9.88 3.23018 10.87 2.22018L12.88 0.180176L13.44 2.48018L15.74 2.99018ZM10.99 7.16017H11.26V7.18015C11.63 7.18015 11.9601 7.14015 12.27 7.07014C12.34 7.38015 12.38 7.69016 12.38 8.02015C12.38 10.4402 10.42 12.4002 8.00006 12.4002C5.58005 12.4002 3.62005 10.4402 3.62005 8.02015C3.62005 5.60017 5.58005 3.64017 8.00006 3.64017C8.30005 3.64017 8.60006 3.67014 8.88006 3.73016C8.80006 4.12017 8.77006 4.54015 8.80006 5.01016C8.54005 4.94015 8.28006 4.89016 8.00006 4.89016C6.28006 4.89016 4.88006 6.29016 4.88006 8.01016C4.88006 9.73016 6.28006 11.1302 8.00006 11.1302C9.72006 11.1302 11.1201 9.73016 11.1201 8.01016C11.1201 7.71014 11.07 7.43014 10.99 7.16017ZM13.76 6.33016C13.99 6.16017 14.21 5.96017 14.44 5.73016L14.96 5.20017C15.3 6.07018 15.5 7.01016 15.5 8.00017C15.5 12.1402 12.14 15.5002 8 15.5002C3.85998 15.5002 0.5 12.1402 0.5 8.00017C0.5 3.86015 3.85998 0.500169 8 0.500169C8.93998 0.500169 9.84 0.680169 10.67 1.00017L10.16 1.52017C9.92999 1.75017 9.73998 1.98017 9.56999 2.21017C9.07001 2.08017 8.53998 2.00017 8 2.00017C4.68999 2.00017 2 4.69016 2 8.00017C2 11.3102 4.68999 14.0002 8 14.0002C11.31 14.0002 14 11.3102 14 8.00017C14 7.42015 13.91 6.86015 13.76 6.33016Z" fill="#57534E"/>
</g>
<defs>
<clipPath id="clip0_2230_12221">
<rect width="16" height="16" fill="white"/>
</clipPath>
</defs>
</svg>
