<svg width="16" height="16" viewBox="0 0 16 16" fill="none" xmlns="http://www.w3.org/2000/svg">
<path fill-rule="evenodd" clip-rule="evenodd" d="M1.3999 12.6667C1.3999 12.3354 1.66853 12.0667 1.9999 12.0667H13.9999C14.3313 12.0667 14.5999 12.3354 14.5999 12.6667C14.5999 12.9981 14.3313 13.2667 13.9999 13.2667H1.9999C1.66853 13.2667 1.3999 12.9981 1.3999 12.6667Z" fill="#1C1917"/>
<path fill-rule="evenodd" clip-rule="evenodd" d="M10.9999 3.9334C10.6685 3.9334 10.3999 3.66477 10.3999 3.3334C10.3999 3.00203 10.6685 2.7334 10.9999 2.7334H13.9999C14.3313 2.7334 14.5999 3.00203 14.5999 3.3334V6.3334C14.5999 6.66477 14.3313 6.9334 13.9999 6.9334C13.6685 6.9334 13.3999 6.66477 13.3999 6.3334V4.78193L9.42417 8.75766C9.18985 8.99198 8.80995 8.99198 8.57564 8.75766L6.33324 6.51526L2.42417 10.4243C2.18985 10.6586 1.80995 10.6586 1.57564 10.4243C1.34132 10.19 1.34132 9.81011 1.57564 9.5758L5.90897 5.24247C6.14329 5.00815 6.52319 5.00815 6.7575 5.24247L8.9999 7.48487L12.5514 3.9334H10.9999Z" fill="#1C1917"/>
</svg>
