<svg width="16" height="16" viewBox="0 0 16 16" fill="none" xmlns="http://www.w3.org/2000/svg">
<path fill-rule="evenodd" clip-rule="evenodd" d="M4.06706 7.66707C4.06706 7.15161 4.48493 6.73374 5.00039 6.73374C5.51586 6.73374 5.93372 7.15161 5.93372 7.66707C5.93372 8.18254 5.51586 8.60041 5.00039 8.60041C4.48493 8.60041 4.06706 8.18254 4.06706 7.66707Z" fill="#1C1917"/>
<path d="M4.66706 2.60039C4.66706 1.93765 5.20432 1.40039 5.86706 1.40039H10.1337C10.7965 1.40039 11.3337 1.93765 11.3337 2.60039H4.66706Z" fill="#1C1917"/>
<path fill-rule="evenodd" clip-rule="evenodd" d="M5.17526 4.06707H10.8255C11.3642 4.06707 11.8048 4.06706 12.1628 4.09631C12.5335 4.12659 12.8682 4.19118 13.1808 4.35046C13.67 4.59973 14.0677 4.99748 14.317 5.4867C14.4763 5.79929 14.5409 6.13401 14.5712 6.50462C14.6004 6.86267 14.6004 7.30324 14.6004 7.84194V10.1589C14.6004 10.6976 14.6004 11.1381 14.5712 11.4962C14.5409 11.8668 14.4763 12.2015 14.317 12.5141C14.0677 13.0033 13.67 13.4011 13.1808 13.6504C12.8682 13.8096 12.5335 13.8742 12.1628 13.9045C11.8048 13.9338 11.3642 13.9337 10.8255 13.9337H5.17526C4.63655 13.9337 4.19599 13.9338 3.83794 13.9045C3.46733 13.8742 3.13261 13.8096 2.82002 13.6504C2.33079 13.4011 1.93305 13.0033 1.68377 12.5141C1.5245 12.2015 1.45991 11.8668 1.42963 11.4962C1.40038 11.1381 1.40038 10.6976 1.40039 10.1589V7.84194C1.40038 7.30324 1.40038 6.86267 1.42963 6.50462C1.45991 6.13401 1.5245 5.79929 1.68377 5.4867C1.93305 4.99748 2.33079 4.59973 2.82002 4.35046C3.13261 4.19118 3.46733 4.12659 3.83794 4.09631C4.19599 4.06706 4.63656 4.06707 5.17526 4.06707ZM7.75708 11.6622C7.81864 11.7138 7.88942 11.7731 7.95562 11.82C8.03164 11.8738 8.14297 11.942 8.29019 11.9757C8.48259 12.0199 8.68404 12.0019 8.86557 11.9243C9.00446 11.865 9.10193 11.7781 9.1672 11.7117C9.22404 11.6538 9.28317 11.5829 9.3346 11.5211L11.6894 8.69722L13.4004 10.0311C13.4004 10.1197 13.4008 10.2084 13.4013 10.2972C13.4031 10.6645 13.405 11.0328 13.3751 11.3985C13.3509 11.6949 13.3065 11.8541 13.2478 11.9693C13.1136 12.2328 12.8994 12.4469 12.636 12.5811C12.5207 12.6399 12.3615 12.6843 12.0651 12.7085C11.7617 12.7333 11.3703 12.7337 10.8004 12.7337H5.20039C4.89153 12.7337 4.6351 12.7336 4.41671 12.7295L6.52034 10.6259L7.75708 11.6622ZM12.1667 7.55577C12.2328 7.59923 12.3037 7.65451 12.365 7.70232L13.4004 8.50953V7.86707C13.4004 7.29712 13.3999 6.90574 13.3751 6.60234C13.3509 6.30594 13.3065 6.14672 13.2478 6.03149C13.1136 5.76806 12.8994 5.55389 12.636 5.41966C12.5207 5.36095 12.3615 5.31655 12.0651 5.29233C11.7617 5.26754 11.3703 5.26707 10.8004 5.26707H5.20039C4.63044 5.26707 4.23906 5.26754 3.93565 5.29233C3.63925 5.31655 3.48004 5.36095 3.3648 5.41966C3.10138 5.55389 2.8872 5.76806 2.75298 6.03149C2.69427 6.14672 2.64986 6.30594 2.62565 6.60234C2.60086 6.90574 2.60039 7.29712 2.60039 7.86707V10.1337C2.60039 10.7037 2.60086 11.0951 2.62565 11.3985C2.64986 11.6949 2.69427 11.8541 2.75298 11.9693C2.83256 12.1255 2.94025 12.2644 3.06964 12.3795L5.72473 9.72445C5.77691 9.67224 5.83772 9.61138 5.89551 9.56201C6.22243 9.28274 6.69503 9.25887 7.04928 9.51123C7.11119 9.55533 7.17712 9.61061 7.23369 9.65804L8.46523 10.69L10.8183 7.86812C10.868 7.80841 10.9256 7.73937 10.9809 7.68288C11.0448 7.61775 11.1395 7.53311 11.2741 7.47392C11.4506 7.39625 11.6469 7.37521 11.836 7.41368C11.98 7.443 12.0905 7.50565 12.1667 7.55577ZM5.00039 6.73374C4.48493 6.73374 4.06706 7.15161 4.06706 7.66707C4.06706 8.18254 4.48493 8.60041 5.00039 8.60041C5.51586 8.60041 5.93372 8.18254 5.93372 7.66707C5.93372 7.15161 5.51586 6.73374 5.00039 6.73374Z" fill="#1C1917"/>
</svg>
