<svg width="16" height="16" viewBox="0 0 16 16" fill="none" xmlns="http://www.w3.org/2000/svg">
<path d="M5.33111 9.26735C5.33111 8.93598 5.59974 8.66735 5.93111 8.66735H6.73111C7.06248 8.66735 7.33111 8.93598 7.33111 9.26735C7.33111 9.59873 7.06248 9.86736 6.73111 9.86736L5.93111 9.86735C5.59974 9.86735 5.33111 9.59873 5.33111 9.26735Z" fill="#1C1917"/>
<path d="M5.93111 10.7987C5.59974 10.7987 5.33111 11.0673 5.33111 11.3987C5.33111 11.7301 5.59974 11.9987 5.93111 11.9987H6.73111C7.06248 11.9987 7.33111 11.7301 7.33111 11.3987C7.33111 11.0673 7.06248 10.7987 6.73111 10.7987H5.93111Z" fill="#1C1917"/>
<path d="M8.66699 9.26735C8.66699 8.93598 8.93562 8.66735 9.26699 8.66735H10.067C10.3984 8.66735 10.667 8.93598 10.667 9.26735C10.667 9.59873 10.3984 9.86736 10.067 9.86736L9.26699 9.86735C8.93562 9.86735 8.66699 9.59873 8.66699 9.26735Z" fill="#1C1917"/>
<path d="M9.26699 10.7987C8.93562 10.7987 8.66699 11.0673 8.66699 11.3987C8.66699 11.7301 8.93562 11.9987 9.26699 11.9987H10.067C10.3984 11.9987 10.667 11.7301 10.667 11.3987C10.667 11.0673 10.3984 10.7987 10.067 10.7987H9.26699Z" fill="#1C1917"/>
<path fill-rule="evenodd" clip-rule="evenodd" d="M8.31569 1.33329C8.51544 1.33304 8.70662 1.3328 8.89294 1.37753C9.0562 1.41673 9.21227 1.48137 9.35543 1.5691C9.51881 1.66922 9.65382 1.80457 9.79489 1.94599L12.721 4.87211C12.8624 5.01317 12.9978 5.14819 13.0979 5.31156C13.1856 5.45472 13.2502 5.61079 13.2894 5.77405C13.3342 5.96036 13.3339 6.15153 13.3337 6.35128L13.3337 10.359C13.3337 10.9906 13.3337 11.5011 13.2999 11.9148C13.2651 12.3409 13.1914 12.7168 13.0139 13.0651C12.7327 13.617 12.284 14.0658 11.732 14.347C11.3838 14.5244 11.0079 14.5981 10.5817 14.6329C10.1681 14.6667 9.6576 14.6667 9.02593 14.6667H6.97472C6.34305 14.6667 5.83255 14.6667 5.41894 14.6329C4.99275 14.5981 4.61687 14.5244 4.26862 14.347C3.71668 14.0658 3.26794 13.617 2.98671 13.0651C2.80927 12.7168 2.7356 12.3409 2.70078 11.9148C2.66698 11.5011 2.66699 10.9906 2.66699 10.359V5.64109C2.66699 5.00942 2.66698 4.49892 2.70078 4.08531C2.7356 3.65911 2.80927 3.28323 2.98671 2.93499C3.26794 2.38305 3.71668 1.9343 4.26862 1.65308C4.61687 1.47564 4.99275 1.40197 5.41894 1.36714C5.83255 1.33335 6.34305 1.33336 6.97472 1.33336L8.31569 1.33329ZM7.00033 2.53334L8.00033 2.53333V3.95695C8.00032 4.31019 8.00031 4.61098 8.02048 4.85794C8.04168 5.11738 8.0881 5.36977 8.21105 5.61106C8.3964 5.97484 8.69216 6.2706 9.05594 6.45596C9.29723 6.5789 9.54963 6.62532 9.80907 6.64652C10.056 6.6667 10.3568 6.66669 10.71 6.66668L12.1336 6.66668L12.1337 10.3334C12.1337 10.9967 12.1332 11.458 12.1039 11.817C12.0751 12.169 12.0216 12.3694 11.9447 12.5203C11.7786 12.8464 11.5134 13.1116 11.1872 13.2778C11.0364 13.3547 10.836 13.4081 10.484 13.4369C10.125 13.4662 9.66362 13.4667 9.00033 13.4667H7.00032C6.33703 13.4667 5.87564 13.4662 5.51666 13.4369C5.16467 13.4081 4.96429 13.3547 4.81341 13.2778C4.48726 13.1116 4.2221 12.8464 4.05592 12.5203C3.97904 12.3694 3.92555 12.169 3.89679 11.817C3.86746 11.458 3.86699 10.9967 3.86699 10.3334V5.66669C3.86699 5.0034 3.86746 4.54201 3.89679 4.18302C3.92555 3.83104 3.97903 3.63066 4.05591 3.47978C4.22209 3.15363 4.48726 2.88846 4.81341 2.72228C4.96429 2.6454 5.16467 2.59192 5.51666 2.56316C5.87565 2.53383 6.33703 2.53334 7.00033 2.53334ZM9.20032 3.04854L11.6185 5.46668H10.7337C10.3504 5.46668 10.099 5.46621 9.90679 5.45051C9.72156 5.43537 9.64466 5.40913 9.60073 5.38675C9.46275 5.31644 9.35056 5.20426 9.28025 5.06627C9.25787 5.02234 9.23163 4.94545 9.2165 4.76022C9.20079 4.56798 9.20032 4.31661 9.20032 3.93335V3.04854Z" fill="#1C1917"/>
</svg>
