<svg width="16" height="16" viewBox="0 0 16 16" fill="none" xmlns="http://www.w3.org/2000/svg">
<path fill-rule="evenodd" clip-rule="evenodd" d="M3.37956 2.35972C3.89261 2.0855 4.39736 2 5.45714 2H7.40207C7.73357 2 8.00231 2.26863 8.00231 2.6C8.00231 2.93137 7.73357 3.2 7.40207 3.2H5.45714C4.45269 3.2 4.19181 3.28635 3.94562 3.41794C3.71745 3.53989 3.54199 3.71526 3.41998 3.94326C3.28835 4.18925 3.20195 4.44991 3.20195 5.45375V10.5463C3.20195 11.5501 3.28835 11.8108 3.41998 12.0567C3.54199 12.2847 3.71745 12.4601 3.94562 12.5821C4.19181 12.7136 4.45269 12.8 5.45714 12.8H7.40207C7.73357 12.8 8.00231 13.0686 8.00231 13.4C8.00231 13.7314 7.73357 14 7.40207 14H5.45714C4.39736 14 3.89261 13.9145 3.37956 13.6403C2.9422 13.4065 2.59535 13.0599 2.36143 12.6227C2.08702 12.1099 2.00146 11.6054 2.00146 10.5463V5.45375C2.00146 4.39457 2.08702 3.89005 2.36143 3.37725C2.59535 2.94012 2.9422 2.59348 3.37956 2.35972Z" fill="#A8A29E"/>
<path fill-rule="evenodd" clip-rule="evenodd" d="M10.9073 5.50655C11.1417 5.27223 11.5217 5.27223 11.7561 5.50654L13.8257 7.57521C13.9382 7.68774 14.0015 7.84035 14.0015 7.99948C14.0015 8.15861 13.9382 8.31122 13.8257 8.42374L11.7561 10.4924C11.5217 10.7267 11.1417 10.7267 10.9073 10.4924C10.6729 10.2581 10.6729 9.87821 10.9073 9.6439L11.9521 8.59948H7.2687C6.93719 8.59948 6.66845 8.33085 6.66845 7.99948C6.66845 7.66811 6.93719 7.39948 7.2687 7.39948H11.9521L10.9073 6.35508C10.6729 6.12076 10.6729 5.74086 10.9073 5.50655Z" fill="#A8A29E"/>
</svg>
