<svg width="16" height="17" viewBox="0 0 16 17" fill="none" xmlns="http://www.w3.org/2000/svg">
<path fill-rule="evenodd" clip-rule="evenodd" d="M8.68354 2.10577C8.68354 1.77121 8.37751 1.5 8 1.5C7.62248 1.5 7.31645 1.77121 7.31645 2.10577V2.22333C5.57359 2.48246 4.20346 3.71574 3.94333 5.26981L3.89066 5.26232C3.78537 5.24719 3.7051 5.2347 3.65209 5.22616C3.62558 5.22189 3.60589 5.2186 3.5933 5.21647L3.57977 5.21416L3.57709 5.21369C3.20702 5.14826 2.84678 5.36093 2.77276 5.68889C2.69873 6.01696 2.9388 6.33609 3.30898 6.4017L3.31003 6.40189L3.31178 6.4022L3.31736 6.40317L3.33671 6.40648C3.35323 6.40928 3.37693 6.41322 3.40754 6.41816C3.46874 6.42802 3.55758 6.44182 3.67183 6.45824C3.86858 6.48651 4.14087 6.52257 4.47726 6.55963C4.47136 6.63362 4.46835 6.70832 4.46835 6.78365C4.46835 8.51274 6.04891 9.91346 8 9.91346C9.95109 9.91346 11.5316 8.51274 11.5316 6.78365C11.5316 6.70832 11.5286 6.63362 11.5227 6.55963C11.8591 6.52257 12.1314 6.48651 12.3282 6.45824C12.4424 6.44182 12.5313 6.42802 12.5925 6.41816C12.6231 6.41322 12.6468 6.40928 12.6633 6.40648L12.6826 6.40317L12.6882 6.4022L12.69 6.40189L12.6908 6.40174C13.061 6.33613 13.3013 6.01696 13.2272 5.68889C13.1532 5.36088 12.7932 5.14814 12.4231 5.21366L12.4202 5.21416L12.4067 5.21647C12.3941 5.2186 12.3744 5.22189 12.3479 5.22616C12.2949 5.2347 12.2146 5.24719 12.1093 5.26232L12.0567 5.26981C11.7965 3.71574 10.4264 2.48246 8.68354 2.22333V2.10577ZM7.31653 3.46094C7.32196 3.79134 7.62588 4.05769 8 4.05769C8.37411 4.05769 8.67803 3.79134 8.68347 3.46094C9.72555 3.69861 10.5272 4.46704 10.6997 5.42168C9.96882 5.48521 9.04444 5.53847 8 5.53847C6.95555 5.53847 6.03117 5.48521 5.30032 5.42168C5.47277 4.46704 6.27444 3.69861 7.31653 3.46094ZM5.83862 6.6787C5.83651 6.71345 5.83544 6.74844 5.83544 6.78365C5.83544 7.84363 6.80394 8.70192 8 8.70192C9.19607 8.70192 10.1646 7.84363 10.1646 6.78365C10.1646 6.74844 10.1635 6.71344 10.1614 6.6787C9.52685 6.72049 8.79676 6.75 8 6.75C7.20324 6.75 6.47315 6.72049 5.83862 6.6787ZM3.38812 14.2755C3.35741 14.2521 3.35911 14.1953 3.36309 14.0628C3.36486 14.0037 3.36709 13.9296 3.36709 13.8365C3.36709 12.5627 5.47711 11.7981 8 11.7981C10.5229 11.7981 12.6329 12.5627 12.6329 13.8365C12.6329 13.9295 12.6351 14.0037 12.6369 14.0628C12.6409 14.1953 12.6426 14.2521 12.6119 14.2755C12.5888 14.2932 12.5475 14.292 12.4752 14.2901C12.4477 14.2893 12.4156 14.2885 12.3783 14.2885H3.62174C3.58443 14.2885 3.55234 14.2893 3.52476 14.2901C3.45247 14.292 3.41116 14.2932 3.38812 14.2755ZM8 10.5865C4.78946 10.5865 2 11.5973 2 13.8365C2 15.0047 2.52066 15.5 3.62174 15.5H12.3783C13.4793 15.5 14 15.0047 14 13.8365C14 11.5973 11.2105 10.5865 8 10.5865Z" fill="#57534E"/>
</svg>
