<svg width="16" height="17" viewBox="0 0 16 17" fill="none" xmlns="http://www.w3.org/2000/svg">
<path d="M11.2634 3.16699H4.73657C3.96865 3.16699 3.57715 3.24259 3.16967 3.46051C2.7935 3.66169 2.4947 3.9605 2.29352 4.33666C2.0756 4.74414 2 5.13564 2 5.90356V9.76375C2 10.5317 2.0756 10.9232 2.29352 11.3307C2.4947 11.7068 2.7935 12.0056 3.16967 12.2068L3.2636 12.2546C3.60827 12.4208 3.96311 12.4888 4.56586 12.499L4.73333 12.5003V13.9769C4.73333 14.2648 4.8462 14.5412 5.0477 14.7468L5.12544 14.819C5.55394 15.1801 6.19488 15.1628 6.60326 14.7626L8.91067 12.5003H11.2634C12.0314 12.5003 12.4229 12.4247 12.8303 12.2068C13.2065 12.0056 13.5053 11.7068 13.7065 11.3307C13.9244 10.9232 14 10.5317 14 9.76375V5.90356C14 5.13564 13.9244 4.74414 13.7065 4.33666C13.5053 3.9605 13.2065 3.66169 12.8303 3.46051C12.4229 3.24259 12.0314 3.16699 11.2634 3.16699ZM4.60777 4.36771L11.2634 4.36699C11.8502 4.36699 12.0545 4.40645 12.2644 4.51869C12.4315 4.60803 12.559 4.73554 12.6483 4.90258C12.7605 5.11244 12.8 5.31679 12.8 5.90356V9.76375L12.7971 10.0088C12.7861 10.4135 12.7433 10.5872 12.6483 10.7647C12.559 10.9318 12.4315 11.0593 12.2644 11.1486C12.0545 11.2609 11.8502 11.3003 11.2634 11.3003H8.66667L8.58882 11.3054C8.46045 11.3222 8.34017 11.3802 8.24671 11.4718L5.93333 13.7383V11.9003C5.93333 11.569 5.6647 11.3003 5.33333 11.3003H4.73657L4.4915 11.2974C4.0868 11.2865 3.91317 11.2436 3.73559 11.1486C3.56854 11.0593 3.44103 10.9318 3.3517 10.7647C3.23946 10.5549 3.2 10.3505 3.2 9.76375V5.90356L3.20292 5.65849C3.21386 5.25379 3.25673 5.08016 3.3517 4.90258C3.44103 4.73554 3.56854 4.60803 3.73559 4.51869C3.92931 4.41509 4.11833 4.37349 4.60777 4.36771Z" fill="#18181B"/>
</svg>
