<svg width="16" height="16" viewBox="0 0 16 16" fill="none" xmlns="http://www.w3.org/2000/svg">
<g opacity="0.5">
<path fill-rule="evenodd" clip-rule="evenodd" d="M8.60039 1.93203C8.60039 1.60066 8.33176 1.33203 8.00039 1.33203C7.66902 1.33203 7.40039 1.60066 7.40039 1.93203V2.67142C6.57405 2.74798 5.82853 2.98389 5.24368 3.36046C4.51507 3.82961 4.00202 4.54777 4.00202 5.43806C4.00202 5.94209 4.0727 6.68028 4.68517 7.32905C5.21372 7.88894 6.07154 8.30339 7.40039 8.52189V12.1265C6.05599 11.9935 5.42747 11.4168 5.09884 10.9315C4.91305 10.6571 4.54 10.5853 4.26561 10.7711C3.99122 10.9568 3.9194 11.3299 4.10519 11.6043C4.65404 12.4149 5.63895 13.1878 7.40039 13.3312V14.0673C7.40039 14.3987 7.66902 14.6673 8.00039 14.6673C8.33176 14.6673 8.60039 14.3987 8.60039 14.0673V13.3275C9.42673 13.251 10.1723 13.0152 10.7571 12.6387C11.4858 12.1697 11.9989 11.4517 11.9989 10.5614C11.9989 10.0573 11.9282 9.31915 11.3157 8.67038C10.7871 8.1105 9.9293 7.69605 8.60039 7.47756V3.87694C9.9206 4.02758 10.5745 4.66364 10.9298 5.10385C11.1379 5.3617 11.5157 5.402 11.7735 5.19386C12.0314 4.98573 12.0717 4.60797 11.8636 4.35012C11.3455 3.70838 10.3878 2.83322 8.60039 2.67064V1.93203ZM7.40039 3.87774C6.78072 3.9492 6.26604 4.12941 5.89332 4.3694C5.41121 4.67983 5.20202 5.05868 5.20202 5.43806C5.20202 5.82645 5.25753 6.18726 5.55777 6.5053C5.82342 6.78669 6.34779 7.10512 7.40039 7.30353V3.87774ZM8.60039 8.69592V12.1212C9.22015 12.0498 9.73489 11.8696 10.1076 11.6297C10.5897 11.3194 10.7989 10.9407 10.7989 10.5614C10.7989 10.173 10.7434 9.81217 10.4431 9.49415C10.1775 9.21275 9.65307 8.89432 8.60039 8.69592Z" fill="#78716C"/>
</g>
</svg>
