<svg width="21" height="20" viewBox="0 0 21 20" fill="none" xmlns="http://www.w3.org/2000/svg">
<path d="M10.3327 10.8346C10.7929 10.8346 11.166 10.4615 11.166 10.0013C11.166 9.54106 10.7929 9.16797 10.3327 9.16797C9.87244 9.16797 9.49935 9.54106 9.49935 10.0013C9.49935 10.4615 9.87244 10.8346 10.3327 10.8346Z" fill="black"/>
<path d="M16.166 10.8346C16.6263 10.8346 16.9993 10.4615 16.9993 10.0013C16.9993 9.54106 16.6263 9.16797 16.166 9.16797C15.7058 9.16797 15.3327 9.54106 15.3327 10.0013C15.3327 10.4615 15.7058 10.8346 16.166 10.8346Z" fill="black"/>
<path d="M4.49935 10.8346C4.95959 10.8346 5.33268 10.4615 5.33268 10.0013C5.33268 9.54106 4.95959 9.16797 4.49935 9.16797C4.03911 9.16797 3.66602 9.54106 3.66602 10.0013C3.66602 10.4615 4.03911 10.8346 4.49935 10.8346Z" fill="black"/>
<path d="M10.3327 10.8346C10.7929 10.8346 11.166 10.4615 11.166 10.0013C11.166 9.54106 10.7929 9.16797 10.3327 9.16797C9.87244 9.16797 9.49935 9.54106 9.49935 10.0013C9.49935 10.4615 9.87244 10.8346 10.3327 10.8346Z" stroke="black" stroke-width="1.5" stroke-linecap="round" stroke-linejoin="round"/>
<path d="M16.166 10.8346C16.6263 10.8346 16.9993 10.4615 16.9993 10.0013C16.9993 9.54106 16.6263 9.16797 16.166 9.16797C15.7058 9.16797 15.3327 9.54106 15.3327 10.0013C15.3327 10.4615 15.7058 10.8346 16.166 10.8346Z" stroke="black" stroke-width="1.5" stroke-linecap="round" stroke-linejoin="round"/>
<path d="M4.49935 10.8346C4.95959 10.8346 5.33268 10.4615 5.33268 10.0013C5.33268 9.54106 4.95959 9.16797 4.49935 9.16797C4.03911 9.16797 3.66602 9.54106 3.66602 10.0013C3.66602 10.4615 4.03911 10.8346 4.49935 10.8346Z" stroke="black" stroke-width="1.5" stroke-linecap="round" stroke-linejoin="round"/>
</svg>
