<svg width="32" height="32" viewBox="0 0 32 32" fill="none" xmlns="http://www.w3.org/2000/svg">
<path d="M16.0053 4C21.1838 4 25.1429 8.33608 25.1429 13.8074L25.1376 15.895C25.1381 16.2462 25.3652 16.6522 25.9812 17.3771C26.0585 17.4682 26.1314 17.5526 26.2906 17.7365C27.5136 19.1516 28 19.9708 28 21.2437C28 21.8163 27.9349 22.2612 27.6635 22.7949C27.0852 23.9325 25.8494 24.5714 24 24.5714L21.0273 24.5722C20.2639 27.1595 18.5284 28.5714 16 28.5714C13.4716 28.5714 11.7361 27.1595 10.9727 24.5722L8 24.5714C6.09695 24.5714 4.84803 23.9152 4.29483 22.7386C4.05488 22.2282 4 21.8142 4 21.2437C4 19.9714 4.48543 19.1522 5.70609 17.7373C5.86504 17.5534 5.93773 17.469 6.01495 17.3779C6.63052 16.6521 6.85714 16.2459 6.85714 15.8939V13.8045C6.85714 8.33796 10.8252 4 16.0053 4ZM18.605 24.5723H13.395C13.9102 25.7636 14.7413 26.2857 16 26.2857C17.2587 26.2857 18.0898 25.7636 18.605 24.5723ZM16.0053 6.28571C12.1353 6.28571 9.14286 9.55709 9.14286 13.8045V15.8939C9.14286 16.9541 8.70355 17.7416 7.75818 18.8563C7.67438 18.9551 7.59528 19.047 7.43676 19.2304C6.56814 20.2372 6.28571 20.7138 6.28571 21.2437C6.28571 21.5021 6.30396 21.6398 6.36333 21.7661C6.50496 22.0673 6.92066 22.2857 8 22.2857H24C25.0448 22.2857 25.47 22.0659 25.626 21.7591C25.6935 21.6263 25.7143 21.4845 25.7143 21.2437C25.7143 20.7144 25.4314 20.2379 24.5613 19.2312C24.4025 19.0478 24.3232 18.9559 24.2393 18.8571C23.2921 17.7422 22.8519 16.9547 22.8519 15.8939L22.8571 13.8045C22.8571 9.55437 19.8727 6.28571 16.0053 6.28571Z" fill="#A8A29E"/>
</svg>
