<svg width="16" height="17" viewBox="0 0 16 17" fill="none" xmlns="http://www.w3.org/2000/svg">
<path d="M7.99974 1.2334C9.84069 1.2334 11.3331 2.72578 11.3331 4.56673H11.3692C12.2607 4.56673 12.584 4.65956 12.9099 4.83386C13.2358 5.00817 13.4916 5.26396 13.6659 5.58989C13.8402 5.91581 13.9331 6.2391 13.9331 7.13062V10.3896C13.9331 11.7823 13.7861 12.2974 13.5101 12.8134C13.2341 13.3295 12.8291 13.7345 12.3131 14.0104C11.797 14.2864 11.282 14.4334 9.88931 14.4334H6.11017C4.71746 14.4334 4.20245 14.2864 3.6864 14.0104C3.17035 13.7345 2.76535 13.3295 2.48937 12.8134C2.21338 12.2974 2.06641 11.7823 2.06641 10.3896V7.13062C2.06641 6.2391 2.15923 5.91581 2.33354 5.58989C2.50785 5.26396 2.76363 5.00817 3.08956 4.83386C3.41549 4.65956 3.73877 4.56673 4.63029 4.56673H4.66641C4.66641 2.72578 6.15879 1.2334 7.99974 1.2334ZM11.4977 5.76724L4.63029 5.76673C3.99863 5.76673 3.82827 5.79963 3.65548 5.89204C3.53868 5.95451 3.45418 6.039 3.39171 6.1558C3.2993 6.3286 3.26641 6.49896 3.26641 7.13062V10.3896C3.26641 11.4796 3.34009 11.8596 3.54754 12.2475C3.71169 12.5544 3.94539 12.7881 4.25232 12.9523C4.64022 13.1597 5.02016 13.2334 6.11017 13.2334H9.88931C10.9793 13.2334 11.3593 13.1597 11.7472 12.9523C12.0541 12.7881 12.2878 12.5544 12.4519 12.2475C12.6594 11.8596 12.7331 11.4796 12.7331 10.3896V7.13062C12.7331 6.49896 12.7002 6.3286 12.6078 6.1558C12.5453 6.039 12.4608 5.95451 12.344 5.89204C12.1835 5.80623 12.0252 5.77173 11.4977 5.76724ZM10.6304 6.50006C10.7673 6.50006 10.8625 6.52327 10.9439 6.56685C11.0254 6.61042 11.0894 6.67437 11.133 6.75585C11.1765 6.83733 11.1997 6.93249 11.1997 7.06939V7.13074C11.1997 7.26764 11.1765 7.36279 11.133 7.44428C11.0894 7.52576 11.0254 7.5897 10.9439 7.63328C10.8625 7.67686 10.7673 7.70006 10.6304 7.70006H10.5691C10.4322 7.70006 10.337 7.67686 10.2555 7.63328C10.174 7.5897 10.1101 7.52576 10.0665 7.44428C10.0229 7.36279 9.99974 7.26764 9.99974 7.13074V7.06939C9.99974 6.93249 10.0229 6.83733 10.0665 6.75585C10.1101 6.67437 10.174 6.61042 10.2555 6.56685C10.337 6.52327 10.4322 6.50006 10.5691 6.50006H10.6304ZM5.29708 6.50006C5.43399 6.50006 5.52914 6.52327 5.61062 6.56685C5.6921 6.61042 5.75605 6.67437 5.79962 6.75585C5.8432 6.83733 5.86641 6.93249 5.86641 7.06939V7.13074C5.86641 7.26764 5.8432 7.36279 5.79962 7.44428C5.75605 7.52576 5.6921 7.5897 5.61062 7.63328C5.52914 7.67686 5.43399 7.70006 5.29708 7.70006H5.23573C5.09883 7.70006 5.00368 7.67686 4.92219 7.63328C4.84071 7.5897 4.77677 7.52576 4.73319 7.44428C4.68961 7.36279 4.66641 7.26764 4.66641 7.13074V7.06939C4.66641 6.93249 4.68961 6.83733 4.73319 6.75585C4.77677 6.67437 4.84071 6.61042 4.92219 6.56685C5.00368 6.52327 5.09883 6.50006 5.23573 6.50006H5.29708ZM7.99974 2.4334C6.82153 2.4334 5.86641 3.38852 5.86641 4.56673H10.1331C10.1331 3.38852 9.17795 2.4334 7.99974 2.4334Z" fill="#1C1917"/>
</svg>
