<svg width="16" height="16" viewBox="0 0 16 16" fill="none" xmlns="http://www.w3.org/2000/svg">
<path d="M7.99974 0.734375C9.84069 0.734375 11.3331 2.22676 11.3331 4.06771H11.3692C12.2607 4.06771 12.584 4.16053 12.9099 4.33484C13.2358 4.50915 13.4916 4.76494 13.6659 5.09086C13.8402 5.41679 13.9331 5.74007 13.9331 6.63159V9.89061C13.9331 11.2833 13.7861 11.7983 13.5101 12.3144C13.2341 12.8304 12.8291 13.2354 12.3131 13.5114C11.797 13.7874 11.282 13.9344 9.88931 13.9344H6.11017C4.71746 13.9344 4.20245 13.7874 3.6864 13.5114C3.17035 13.2354 2.76535 12.8304 2.48937 12.3144C2.21338 11.7983 2.06641 11.2833 2.06641 9.89061V6.63159C2.06641 5.74007 2.15923 5.41679 2.33354 5.09086C2.50785 4.76494 2.76363 4.50915 3.08956 4.33484C3.41549 4.16053 3.73877 4.06771 4.63029 4.06771H4.66641C4.66641 2.22676 6.15879 0.734375 7.99974 0.734375ZM11.4977 5.26822L4.63029 5.26771C3.99863 5.26771 3.82827 5.30061 3.65548 5.39302C3.53868 5.45548 3.45418 5.53998 3.39171 5.65678C3.2993 5.82957 3.26641 5.99993 3.26641 6.63159V9.89061C3.26641 10.9806 3.34009 11.3606 3.54754 11.7485C3.71169 12.0554 3.94539 12.2891 4.25232 12.4532C4.64022 12.6607 5.02016 12.7344 6.11017 12.7344H9.88931C10.9793 12.7344 11.3593 12.6607 11.7472 12.4532C12.0541 12.2891 12.2878 12.0554 12.4519 11.7485C12.6594 11.3606 12.7331 10.9806 12.7331 9.89061V6.63159C12.7331 5.99993 12.7002 5.82957 12.6078 5.65678C12.5453 5.53998 12.4608 5.45548 12.344 5.39302C12.1835 5.30721 12.0252 5.27271 11.4977 5.26822ZM10.6304 6.00104C10.7673 6.00104 10.8625 6.02425 10.9439 6.06782C11.0254 6.1114 11.0894 6.17535 11.133 6.25683C11.1765 6.33831 11.1997 6.43346 11.1997 6.57037V6.63172C11.1997 6.76862 11.1765 6.86377 11.133 6.94525C11.0894 7.02673 11.0254 7.09068 10.9439 7.13426C10.8625 7.17783 10.7673 7.20104 10.6304 7.20104H10.5691C10.4322 7.20104 10.337 7.17783 10.2555 7.13426C10.174 7.09068 10.1101 7.02673 10.0665 6.94525C10.0229 6.86377 9.99974 6.76862 9.99974 6.63172V6.57037C9.99974 6.43346 10.0229 6.33831 10.0665 6.25683C10.1101 6.17535 10.174 6.1114 10.2555 6.06782C10.337 6.02425 10.4322 6.00104 10.5691 6.00104H10.6304ZM5.29708 6.00104C5.43399 6.00104 5.52914 6.02425 5.61062 6.06782C5.6921 6.1114 5.75605 6.17535 5.79962 6.25683C5.8432 6.33831 5.86641 6.43346 5.86641 6.57037V6.63172C5.86641 6.76862 5.8432 6.86377 5.79962 6.94525C5.75605 7.02673 5.6921 7.09068 5.61062 7.13426C5.52914 7.17783 5.43399 7.20104 5.29708 7.20104H5.23573C5.09883 7.20104 5.00368 7.17783 4.92219 7.13426C4.84071 7.09068 4.77677 7.02673 4.73319 6.94525C4.68961 6.86377 4.66641 6.76862 4.66641 6.63172V6.57037C4.66641 6.43346 4.68961 6.33831 4.73319 6.25683C4.77677 6.17535 4.84071 6.1114 4.92219 6.06782C5.00368 6.02425 5.09883 6.00104 5.23573 6.00104H5.29708ZM7.99974 1.93437C6.82153 1.93437 5.86641 2.8895 5.86641 4.06771H10.1331C10.1331 2.8895 9.17795 1.93437 7.99974 1.93437Z" fill="#1C1917"/>
</svg>
