<svg width="16" height="16" viewBox="0 0 16 16" fill="none" xmlns="http://www.w3.org/2000/svg">
<path fill-rule="evenodd" clip-rule="evenodd" d="M10.3786 3.1104C10.2538 3.07068 10.0808 3.06411 9.47739 3.06411H4.95478C4.52367 3.06411 4.23298 3.06453 4.00882 3.08248C3.791 3.09993 3.68421 3.13125 3.61223 3.1672C3.43069 3.25788 3.28309 3.40257 3.19059 3.58053C3.15391 3.65109 3.12196 3.75578 3.10416 3.96931C3.09485 4.08103 3.09017 4.20962 3.08781 4.3646H10.9849L11.0071 4.3646H11.0071C11.0197 4.3646 11.0322 4.3646 11.0447 4.3646C11.0425 3.96027 11.0325 3.82179 10.998 3.71765C10.9026 3.42971 10.6723 3.20396 10.3786 3.1104ZM12.1307 4.39699C12.1303 3.98809 12.1225 3.66709 12.0303 3.38885C11.8275 2.77697 11.3381 2.29726 10.714 2.09845C10.4031 1.99943 10.0399 1.9997 9.56392 2.00004L9.47739 2.00008H4.95478L4.93261 2.00008C4.52932 2.00007 4.19405 2.00007 3.92043 2.02198C3.63549 2.0448 3.36996 2.09402 3.11946 2.21914C2.73368 2.41183 2.42003 2.7193 2.22347 3.09747C2.09583 3.34303 2.04562 3.60333 2.02234 3.88266C1.99999 4.15087 1.99999 4.47952 2 4.87485V4.87489V4.89661V9.62565V9.64737V9.6474C1.99999 10.0427 1.99999 10.3714 2.02234 10.6396C2.04562 10.9189 2.09583 11.1792 2.22347 11.4248C2.42003 11.803 2.73368 12.1104 3.11946 12.3031C3.36996 12.4282 3.63549 12.4775 3.92043 12.5003C4.19405 12.5222 4.52931 12.5222 4.93261 12.5222H4.95478H12.1471L11.566 13.0918C11.354 13.2996 11.354 13.6364 11.566 13.8442C11.7779 14.0519 12.1216 14.0519 12.3335 13.8442L13.841 12.3664C14.053 12.1586 14.053 11.8217 13.841 11.614L12.3335 10.1361C12.1216 9.92838 11.7779 9.92838 11.566 10.1361C11.354 10.3439 11.354 10.6808 11.566 10.8885L12.1471 11.4581H4.95478C4.52367 11.4581 4.23298 11.4577 4.00882 11.4398C3.791 11.4223 3.68421 11.391 3.61223 11.3551C3.43069 11.2644 3.28309 11.1197 3.19059 10.9417C3.15391 10.8712 3.12196 10.7665 3.10416 10.553C3.08585 10.3332 3.08543 10.0483 3.08543 9.62565V5.42863H10.9849C11.416 5.42863 11.7067 5.42904 11.9309 5.447C12.1487 5.46444 12.2555 5.49576 12.3275 5.53172C12.509 5.62239 12.6566 5.76708 12.7491 5.94505C12.7858 6.01561 12.8177 6.12029 12.8355 6.33382C12.8539 6.55356 12.8543 6.83852 12.8543 7.26113V8.79806C12.8543 9.09189 13.0973 9.33008 13.397 9.33008C13.6967 9.33008 13.9397 9.09189 13.9397 8.79806V7.26113V7.2394C13.9397 6.84405 13.9397 6.5154 13.9174 6.24718C13.8941 5.96784 13.8439 5.70755 13.7162 5.46199C13.5197 5.08381 13.206 4.77635 12.8202 4.58366C12.6027 4.475 12.3738 4.42358 12.1307 4.39699ZM10.3216 7.91137C10.0219 7.91137 9.7789 8.14956 9.7789 8.44339C9.7789 8.73721 10.0219 8.9754 10.3216 8.9754H11.0452C11.345 8.9754 11.5879 8.73721 11.5879 8.44339C11.5879 8.14956 11.345 7.91137 11.0452 7.91137H10.3216Z" fill="#1C1917"/>
</svg>
