<svg width="12" height="12" viewBox="0 0 12 12" fill="none" xmlns="http://www.w3.org/2000/svg">
<path fill-rule="evenodd" clip-rule="evenodd" d="M7.12945 3.73878L2.6109 8.25734C2.50775 8.36048 2.4498 8.50038 2.4498 8.64625L2.4498 9.4998C2.4498 9.52742 2.47219 9.5498 2.4998 9.5498H3.35336C3.49923 9.5498 3.63912 9.49185 3.74227 9.38871L8.26082 4.87015L7.12945 3.73878ZM7.76584 3.10238L8.89721 4.23375L9.4629 3.66807C9.58005 3.55091 9.58005 3.36096 9.4629 3.2438L8.75579 2.5367C8.63863 2.41954 8.44868 2.41954 8.33153 2.5367L7.76584 3.10238ZM1.9745 7.62094L7.69513 1.9003C8.16376 1.43167 8.92356 1.43167 9.39219 1.9003L10.0993 2.60741C10.5679 3.07604 10.5679 3.83583 10.0993 4.30446L4.37866 10.0251C4.10673 10.297 3.73792 10.4498 3.35336 10.4498L2.49981 10.4498C1.97514 10.4498 1.5498 10.0245 1.5498 9.4998L1.5498 8.64625C1.5498 8.26168 1.70257 7.89287 1.9745 7.62094Z" fill="#78716C"/>
</svg>
