<svg width="20" height="20" viewBox="0 0 20 20" fill="none" xmlns="http://www.w3.org/2000/svg">
<path d="M2.49506 2.12319C-0.425425 5.33638 1.13449 10.3086 5.42326 14.6172C9.62077 18.834 14.8171 20.4106 17.8922 17.5495C19.5745 15.9841 19.3259 13.2121 17.2476 11.3596L17.0578 11.1983C15.1296 9.63698 12.331 9.63202 10.6216 11.1712L10.534 11.2534L10.4843 11.2116C10.2975 11.0524 10.0544 10.8307 9.76087 10.5389L9.46379 10.2369L9.1575 9.91067C9.06564 9.81008 8.9839 9.71776 8.91187 9.634L8.78835 9.48766L8.71883 9.56287C10.406 7.86789 10.422 4.84909 8.72464 2.82112C6.83975 0.569034 3.9807 0.488648 2.49506 2.12319ZM7.34619 3.97499C8.52521 5.38369 8.39342 7.34164 7.44486 8.29457L7.29694 8.43409C6.6676 9.00023 6.05323 9.33401 8.32822 11.6475C10.7828 14.1437 11.0889 13.268 11.7283 12.5986C12.7327 11.5896 14.6995 11.4965 16.0515 12.7016C17.5467 14.0344 17.3847 15.5661 16.6677 16.2333C14.449 18.2977 10.2001 16.8678 6.69723 13.3489C3.1944 9.82988 1.63985 5.73682 3.82526 3.33238C4.33259 2.77419 5.92364 2.27531 7.34619 3.97499Z" fill="#78716C"/>
</svg>
