<svg width="16" height="16" viewBox="0 0 16 16" fill="none" xmlns="http://www.w3.org/2000/svg">
<path fill-rule="evenodd" clip-rule="evenodd" d="M9.42308 10.8588C11.7946 10.8588 13.7149 8.93883 13.7149 6.5731C13.7149 6.44824 13.7096 6.32476 13.6992 6.20287L12.4003 7.50025C12.0789 7.82132 11.6431 8.00167 11.1888 8.00167H9.70847C8.7617 8.00167 7.99419 7.23416 7.99419 6.28739V4.80998C7.99419 4.35499 8.17506 3.91867 8.49697 3.59712L9.79256 2.30298C9.67091 2.29266 9.54768 2.28739 9.42308 2.28739C7.05157 2.28739 5.13128 4.20738 5.13128 6.5731C5.13128 6.91194 5.17043 7.24019 5.24398 7.55415C5.37296 8.10474 5.24213 8.73974 4.78531 9.19605L3.19187 10.7877C2.74566 11.2334 2.74566 11.9555 3.19187 12.4012L3.59845 12.8074C4.04537 13.2538 4.77049 13.2538 5.21741 12.8074L6.81867 11.2079C7.2731 10.754 7.90434 10.6227 8.45287 10.7491C8.76356 10.8207 9.08815 10.8588 9.42308 10.8588ZM9.42308 12.0017C12.4246 12.0017 14.8577 9.57122 14.8577 6.5731C14.8577 5.93734 14.7483 5.32711 14.5473 4.76016C14.4186 4.39739 13.9605 4.32648 13.6882 4.5985L11.5926 6.69167C11.4855 6.7987 11.3403 6.85882 11.1888 6.85882H9.70847C9.39288 6.85882 9.13704 6.60298 9.13704 6.28739V4.80998C9.13704 4.65832 9.19734 4.51288 9.30464 4.4057L11.3987 2.31396C11.6714 2.04159 11.6004 1.58276 11.237 1.45428C10.6697 1.25369 10.0592 1.14453 9.42308 1.14453C6.4216 1.14453 3.98842 3.57499 3.98842 6.5731C3.98842 7.00033 4.03783 7.41604 4.13125 7.81482C4.17933 8.02006 4.12678 8.23851 3.97764 8.38748L2.3842 9.97913C1.49107 10.8713 1.49107 12.3177 2.3842 13.2098L2.79078 13.6159C3.68391 14.5081 5.13195 14.5081 6.02508 13.6159L7.62634 12.0165C7.77471 11.8683 7.99183 11.8157 8.19619 11.8628C8.59047 11.9536 9.00116 12.0017 9.42308 12.0017Z" fill="#57534E"/>
</svg>
