<svg width="16" height="16" viewBox="0 0 16 16" fill="none" xmlns="http://www.w3.org/2000/svg">
<path d="M5.93368 11.9967C5.60231 11.9967 5.33368 11.7281 5.33368 11.3967L5.33368 7.93006C5.33368 7.59869 5.60231 7.33006 5.93368 7.33006C6.26505 7.33006 6.53368 7.59869 6.53368 7.93006V11.3967C6.53368 11.7281 6.26505 11.9967 5.93368 11.9967Z" fill="#1C1917"/>
<path d="M7.46731 11.3333C7.46731 11.6647 7.73593 11.9333 8.06731 11.9333C8.39868 11.9333 8.66731 11.6647 8.66731 11.3333V9.93229C8.66731 9.60092 8.39868 9.33229 8.06731 9.33229C7.73593 9.33229 7.46731 9.60092 7.46731 9.93229V11.3333Z" fill="#1C1917"/>
<path fill-rule="evenodd" clip-rule="evenodd" d="M8.3152 1.33329C8.51495 1.33304 8.70613 1.3328 8.89245 1.37753C9.05571 1.41673 9.21178 1.48137 9.35494 1.5691C9.51832 1.66922 9.65333 1.80457 9.7944 1.94599L12.7205 4.87211C12.8619 5.01317 12.9973 5.14819 13.0974 5.31156C13.1851 5.45472 13.2498 5.61079 13.2889 5.77405C13.3337 5.96036 13.3334 6.15153 13.3332 6.35128L13.3332 10.359C13.3332 10.9906 13.3332 11.5011 13.2994 11.9148C13.2646 12.3409 13.1909 12.7168 13.0135 13.0651C12.7322 13.617 12.2835 14.0658 11.7315 14.347C11.3833 14.5244 11.0074 14.5981 10.5812 14.6329C10.1676 14.6667 9.65711 14.6667 9.02544 14.6667H6.97423C6.34256 14.6667 5.83206 14.6667 5.41845 14.6329C4.99226 14.5981 4.61638 14.5244 4.26813 14.347C3.71619 14.0658 3.26745 13.617 2.98622 13.0651C2.80878 12.7168 2.73511 12.3409 2.70029 11.9148C2.66649 11.5011 2.6665 10.9906 2.6665 10.359V5.64109C2.6665 5.00942 2.66649 4.49892 2.70029 4.08531C2.73511 3.65911 2.80878 3.28323 2.98622 2.93499C3.26745 2.38305 3.71619 1.9343 4.26813 1.65308C4.61638 1.47564 4.99226 1.40197 5.41845 1.36714C5.83206 1.33335 6.34257 1.33336 6.97423 1.33336L8.3152 1.33329ZM6.99984 2.53334L7.99984 2.53333V3.95695C7.99983 4.31019 7.99982 4.61098 8.02 4.85794C8.04119 5.11738 8.08762 5.36977 8.21056 5.61106C8.39591 5.97484 8.69167 6.2706 9.05546 6.45596C9.29674 6.5789 9.54914 6.62532 9.80858 6.64652C10.0555 6.6667 10.3563 6.66669 10.7095 6.66668L12.1332 6.66668L12.1332 10.3334C12.1332 10.9967 12.1327 11.458 12.1034 11.817C12.0746 12.169 12.0211 12.3694 11.9442 12.5203C11.7781 12.8464 11.5129 13.1116 11.1868 13.2778C11.0359 13.3547 10.8355 13.4081 10.4835 13.4369C10.1245 13.4662 9.66313 13.4667 8.99984 13.4667H6.99984C6.33654 13.4667 5.87515 13.4662 5.51617 13.4369C5.16418 13.4081 4.9638 13.3547 4.81292 13.2778C4.48677 13.1116 4.22161 12.8464 4.05543 12.5203C3.97855 12.3694 3.92506 12.169 3.8963 11.817C3.86697 11.458 3.8665 10.9967 3.8665 10.3334V5.66669C3.8665 5.0034 3.86697 4.54201 3.8963 4.18302C3.92506 3.83104 3.97855 3.63066 4.05543 3.47978C4.22161 3.15363 4.48677 2.88846 4.81292 2.72228C4.9638 2.6454 5.16419 2.59192 5.51617 2.56316C5.87516 2.53383 6.33654 2.53334 6.99984 2.53334ZM9.19984 3.04854L11.618 5.46668H10.7332C10.3499 5.46668 10.0985 5.46621 9.9063 5.45051C9.72107 5.43537 9.64417 5.40913 9.60024 5.38675C9.46226 5.31644 9.35007 5.20426 9.27977 5.06627C9.25738 5.02234 9.23114 4.94545 9.21601 4.76022C9.2003 4.56798 9.19984 4.31661 9.19984 3.93335V3.04854Z" fill="#1C1917"/>
</svg>
