<svg width="16" height="16" viewBox="0 0 16 16" fill="none" xmlns="http://www.w3.org/2000/svg">
<path fill-rule="evenodd" clip-rule="evenodd" d="M5.42938 3.54489C6.18525 3.10764 7.06271 2.85721 8.0004 2.85721C10.6476 2.85721 12.8276 4.85724 13.1119 7.42864H12.091C11.8317 7.42864 11.681 7.72121 11.832 7.93152L13.4271 10.153C13.5542 10.33 13.818 10.33 13.9451 10.153L15.5403 7.93152C15.6913 7.72121 15.5406 7.42864 15.2812 7.42864H14.2605C13.9718 4.22493 11.2793 1.71436 8.0004 1.71436C6.85644 1.71436 5.78225 2.02046 4.85713 2.55562C4.58395 2.71365 4.4906 3.06321 4.64862 3.33638C4.80665 3.60956 5.15621 3.70291 5.42938 3.54489ZM1.74031 8.5715H0.719566C0.460226 8.5715 0.309529 8.27893 0.46054 8.06861L2.05565 5.84711C2.18275 5.6701 2.44661 5.6701 2.5737 5.84711L4.16881 8.06862C4.31982 8.27893 4.16913 8.5715 3.90979 8.5715H2.88893C3.17318 11.1429 5.35322 13.1429 8.0004 13.1429C8.94751 13.1429 9.83321 12.8874 10.5942 12.442C10.8666 12.2826 11.2166 12.3741 11.376 12.6465C11.5355 12.9188 11.4439 13.2689 11.1716 13.4283C10.2402 13.9735 9.15589 14.2858 8.0004 14.2858C4.72152 14.2858 2.02901 11.7752 1.74031 8.5715Z" fill="#1C1917"/>
</svg>
