<svg width="16" height="16" viewBox="0 0 16 16" fill="none" xmlns="http://www.w3.org/2000/svg">
<path fill-rule="evenodd" clip-rule="evenodd" d="M9.97766 3.10496C9.8589 3.06543 9.69418 3.0589 9.11962 3.0589H4.8134C4.40292 3.0589 4.12614 3.05931 3.91271 3.07717C3.7053 3.09453 3.60363 3.1257 3.53509 3.16148C3.36223 3.25171 3.2217 3.39569 3.13362 3.57279C3.0987 3.643 3.06828 3.74717 3.05133 3.95965C3.04247 4.07083 3.03801 4.19879 3.03576 4.35301H10.555L10.5761 4.35301H10.5761C10.5881 4.35301 10.6001 4.353 10.6119 4.35301C10.6098 3.95067 10.6003 3.81286 10.5675 3.70923C10.4766 3.4227 10.2573 3.19806 9.97766 3.10496ZM11.646 4.38524C11.6456 3.97834 11.6382 3.65892 11.5504 3.38204C11.3573 2.77317 10.8913 2.2958 10.297 2.09797C10.001 1.99944 9.65523 1.9997 9.20201 2.00004L9.11962 2.00008H4.8134L4.7923 2.00008C4.4083 2.00007 4.08907 2.00007 3.82855 2.02187C3.55723 2.04458 3.30441 2.09356 3.0659 2.21807C2.69857 2.40981 2.39993 2.71577 2.21277 3.09209C2.09124 3.33645 2.04344 3.59547 2.02127 3.87343C1.99999 4.14033 1.99999 4.46737 2 4.86076V4.8608V4.88241V9.58827V9.60988V9.60992C1.99999 10.0033 1.99999 10.3303 2.02127 10.5972C2.04344 10.8752 2.09124 11.1342 2.21277 11.3786C2.39993 11.7549 2.69857 12.0609 3.0659 12.2526C3.30441 12.3771 3.55723 12.4261 3.82855 12.4488C4.08907 12.4706 4.40829 12.4706 4.79229 12.4706H4.8134H7.16747C7.45286 12.4706 7.68421 12.2336 7.68421 11.9412C7.68421 11.6488 7.45286 11.4118 7.16747 11.4118H4.8134C4.40292 11.4118 4.12614 11.4114 3.91271 11.3935C3.7053 11.3761 3.60363 11.345 3.53509 11.3092C3.36223 11.219 3.2217 11.075 3.13362 10.8979C3.0987 10.8277 3.06828 10.7235 3.05133 10.511C3.0339 10.2924 3.03349 10.0088 3.03349 9.58827V5.41182H10.555C10.9655 5.41182 11.2423 5.41223 11.4557 5.4301C11.6631 5.44746 11.7648 5.47863 11.8333 5.5144C12.0062 5.60464 12.1467 5.74862 12.2348 5.92571C12.2697 5.99593 12.3001 6.10009 12.3171 6.31258C12.3345 6.53124 12.3349 6.8148 12.3349 7.23534V9.64709C12.3349 9.93947 12.5663 10.1765 12.8517 10.1765C13.1371 10.1765 13.3684 9.93947 13.3684 9.64709V7.23534V7.21372C13.3684 6.82031 13.3684 6.49326 13.3471 6.22636C13.325 5.94839 13.2772 5.68937 13.1557 5.44502C12.9685 5.0687 12.6698 4.76274 12.3025 4.57099C12.0954 4.46286 11.8775 4.4117 11.646 4.38524ZM9.92345 7.88239C9.63806 7.88239 9.4067 8.11942 9.4067 8.4118C9.4067 8.70419 9.63806 8.94121 9.92345 8.94121H10.6124C10.8978 8.94121 11.1292 8.70419 11.1292 8.4118C11.1292 8.11942 10.8978 7.88239 10.6124 7.88239H9.92345ZM10.9778 10.7861C11.1796 10.5794 11.1796 10.2442 10.9778 10.0374C10.776 9.83069 10.4488 9.83069 10.247 10.0374L8.75422 11.5668C8.55242 11.7736 8.55242 12.1088 8.75422 12.3155L10.247 13.8449C10.4488 14.0517 10.776 14.0517 10.9778 13.8449C11.1796 13.6382 11.1796 13.303 10.9778 13.0962L10.3672 12.4706H13.4833C13.7686 12.4706 14 12.2336 14 11.9412C14 11.6488 13.7686 11.4118 13.4833 11.4118H10.3672L10.9778 10.7861Z" fill="#1C1917"/>
</svg>
