<svg width="16" height="16" viewBox="0 0 16 16" fill="none" xmlns="http://www.w3.org/2000/svg">
<path fill-rule="evenodd" clip-rule="evenodd" d="M5.78163 1.00006H10.2184C10.6947 0.998965 11.0661 1.14945 11.4078 1.49272L14.5073 4.59227C14.8449 4.92835 15.0011 5.29731 15 5.78166V10.2184C15.0011 10.7027 14.8449 11.0717 14.5073 11.4078L11.4078 14.5073C11.0717 14.845 10.7027 15.0011 10.2184 15H5.78163C5.29727 15.0011 4.92831 14.845 4.59223 14.5073L1.49267 11.4078C1.15505 11.0717 0.998896 10.7027 1.00001 10.2184V5.78167C0.998896 5.29731 1.15505 4.92835 1.49267 4.59227L4.59223 1.49272C4.93394 1.14945 5.30525 0.998965 5.78163 1.00006ZM5.46713 2.41779L2.41774 5.46717C2.29067 5.59424 2.27278 5.63817 2.27278 5.81714V10.1829C2.27278 10.3601 2.29064 10.4058 2.41774 10.5329L5.46713 13.5823C5.59368 13.7088 5.63739 13.7272 5.81711 13.7272H10.1829C10.3619 13.7272 10.4059 13.7092 10.5329 13.5823L13.5823 10.5329C13.7092 10.4059 13.7272 10.3594 13.7272 10.1829V5.81714C13.7272 5.63761 13.7088 5.59371 13.5823 5.46717L10.5329 2.41779C10.4054 2.29037 10.3616 2.27282 10.1829 2.27282H5.81711C5.63757 2.27282 5.59194 2.29298 5.46713 2.41779ZM8.70706 10.8283C8.70706 11.2188 8.3905 11.5353 8 11.5353C7.6095 11.5353 7.29293 11.2188 7.29293 10.8283C7.29293 10.4378 7.6095 10.1212 8 10.1212C8.3905 10.1212 8.70706 10.4378 8.70706 10.8283ZM8.63636 5.10106C8.63636 4.74961 8.35145 4.46471 8 4.46471C7.64855 4.46471 7.36364 4.74961 7.36364 5.10106V8.77781C7.36364 9.12926 7.64855 9.41416 8 9.41416C8.35145 9.41416 8.63636 9.12926 8.63636 8.77781V5.10106Z" fill="#57534E"/>
</svg>
