<svg width="16" height="17" viewBox="0 0 16 17" fill="none" xmlns="http://www.w3.org/2000/svg">
<path d="M6.00013 8.4999L7.33346 9.83324L10.0001 7.16657M2.5668 6.24657C2.46949 5.80825 2.48443 5.35246 2.61023 4.92146C2.73604 4.49046 2.96863 4.0982 3.28644 3.78105C3.60425 3.4639 3.997 3.23213 4.42827 3.10723C4.85953 2.98233 5.31535 2.96835 5.75346 3.06657C5.9946 2.68944 6.3268 2.37907 6.71943 2.16409C7.11206 1.94911 7.55249 1.83643 8.00013 1.83643C8.44776 1.83643 8.8882 1.94911 9.28083 2.16409C9.67346 2.37907 10.0057 2.68944 10.2468 3.06657C10.6856 2.96792 11.1422 2.98184 11.5741 3.10704C12.0061 3.23225 12.3994 3.46466 12.7174 3.78267C13.0354 4.10068 13.2678 4.49395 13.393 4.9259C13.5182 5.35786 13.5321 5.81446 13.4335 6.25324C13.8106 6.49437 14.121 6.82657 14.3359 7.2192C14.5509 7.61183 14.6636 8.05227 14.6636 8.4999C14.6636 8.94754 14.5509 9.38797 14.3359 9.7806C14.121 10.1732 13.8106 10.5054 13.4335 10.7466C13.5317 11.1847 13.5177 11.6405 13.3928 12.0718C13.2679 12.503 13.0361 12.8958 12.719 13.2136C12.4018 13.5314 12.0096 13.764 11.5786 13.8898C11.1476 14.0156 10.6918 14.0305 10.2535 13.9332C10.0126 14.3118 9.68018 14.6235 9.28688 14.8394C8.89358 15.0554 8.45215 15.1686 8.00346 15.1686C7.55478 15.1686 7.11335 15.0554 6.72004 14.8394C6.32674 14.6235 5.99429 14.3118 5.75346 13.9332C5.31535 14.0315 4.85953 14.0175 4.42827 13.8926C3.997 13.7677 3.60425 13.5359 3.28644 13.2188C2.96863 12.9016 2.73604 12.5093 2.61023 12.0783C2.48443 11.6473 2.46949 11.1916 2.5668 10.7532C2.18677 10.5127 1.87374 10.18 1.65683 9.78605C1.43992 9.39207 1.32617 8.94964 1.32617 8.4999C1.32617 8.05016 1.43992 7.60773 1.65683 7.21376C1.87374 6.81979 2.18677 6.48707 2.5668 6.24657Z" stroke="#1C1917" stroke-linecap="round" stroke-linejoin="round"/>
</svg>
