<svg width="16" height="16" viewBox="0 0 16 16" fill="none" xmlns="http://www.w3.org/2000/svg">
<path fill-rule="evenodd" clip-rule="evenodd" d="M7.16683 2.33203C4.49745 2.33203 2.3335 4.49599 2.3335 7.16536C2.3335 9.83474 4.49745 11.9987 7.16683 11.9987C8.28526 11.9987 9.31497 11.6188 10.134 10.981L12.9759 13.823C13.2102 14.0573 13.5901 14.0573 13.8244 13.823C14.0587 13.5886 14.0587 13.2087 13.8244 12.9744L10.9825 10.1325C11.6203 9.31352 12.0002 8.28381 12.0002 7.16536C12.0002 4.49599 9.83621 2.33203 7.16683 2.33203ZM7.16683 3.53203C5.16019 3.53203 3.5335 5.15873 3.5335 7.16536C3.5335 9.172 5.16019 10.7987 7.16683 10.7987C9.17346 10.7987 10.8002 9.172 10.8002 7.16536C10.8002 5.15873 9.17346 3.53203 7.16683 3.53203Z" fill="#57534E"/>
</svg>
