<svg width="16" height="16" viewBox="0 0 16 16" fill="none" xmlns="http://www.w3.org/2000/svg">
<path fill-rule="evenodd" clip-rule="evenodd" d="M7.16634 2.33203C4.49696 2.33203 2.33301 4.49599 2.33301 7.16536C2.33301 9.83474 4.49696 11.9987 7.16634 11.9987C8.28477 11.9987 9.31448 11.6188 10.1335 10.981L12.9754 13.823C13.2097 14.0573 13.5896 14.0573 13.8239 13.823C14.0582 13.5886 14.0582 13.2087 13.8239 12.9744L10.982 10.1325C11.6198 9.31352 11.9997 8.28381 11.9997 7.16536C11.9997 4.49599 9.83572 2.33203 7.16634 2.33203ZM7.16634 3.53203C5.15971 3.53203 3.53301 5.15873 3.53301 7.16536C3.53301 9.172 5.15971 10.7987 7.16634 10.7987C9.17298 10.7987 10.7997 9.172 10.7997 7.16536C10.7997 5.15873 9.17298 3.53203 7.16634 3.53203Z" fill="#78716C"/>
</svg>
