<svg width="16" height="16" viewBox="0 0 16 16" fill="none" xmlns="http://www.w3.org/2000/svg">
<path d="M8.65605 1.16781C8.90036 1.2069 9.13147 1.30038 9.33898 1.4664C9.67892 1.73835 9.84081 2.08116 9.96592 2.58163C9.99796 2.70976 10.0534 2.85912 10.1226 3.00408C10.2815 3.07163 10.437 3.14672 10.5885 3.22904C10.7381 3.19209 10.8818 3.14301 10.9965 3.08961C11.8035 2.71393 12.4805 2.73366 13.0349 3.33164C13.0817 3.38221 13.1097 3.41572 13.1707 3.49095L13.5303 3.93503C13.627 4.05446 13.6683 4.10888 13.7293 4.21042C14.1247 4.86838 13.9705 5.48115 13.4708 6.14516C13.3879 6.25533 13.3032 6.39956 13.2324 6.55129C13.2771 6.71274 13.3143 6.87646 13.3439 7.04201C13.4712 7.14398 13.6065 7.23333 13.7259 7.29432C14.1855 7.52881 14.4831 7.76366 14.6716 8.15606C14.7866 8.3956 14.8257 8.64181 14.8089 8.88866C14.8 9.01913 14.7859 9.09185 14.7483 9.25469L14.6197 9.81148C14.5821 9.97432 14.5629 10.0459 14.5137 10.167C14.4207 10.3963 14.2776 10.6005 14.0692 10.7653C13.7277 11.0354 13.3573 11.116 12.8415 11.1253C12.711 11.1277 12.5551 11.1476 12.4 11.1818C12.2992 11.3211 12.1918 11.4556 12.0782 11.5847C12.0802 11.7414 12.0958 11.8954 12.1224 12.0213C12.2294 12.526 12.2342 12.9051 12.0478 13.2985C11.9341 13.5387 11.7674 13.724 11.5649 13.8663C11.4579 13.9415 11.3925 13.9763 11.2423 14.0495L10.7287 14.3C10.5785 14.3733 10.5108 14.4034 10.3857 14.4414C10.149 14.5134 9.90027 14.5307 9.64098 14.4724C9.21623 14.377 8.92046 14.1399 8.5886 13.7449C8.50088 13.6405 8.38102 13.5269 8.25069 13.4245C8.16737 13.4283 8.08381 13.4302 8.00005 13.4302C7.91629 13.4302 7.83272 13.4283 7.74941 13.4245C7.61908 13.5269 7.49921 13.6405 7.41149 13.7449C7.07964 14.1399 6.78386 14.377 6.35911 14.4724C6.09983 14.5307 5.85113 14.5134 5.61441 14.4414C5.48929 14.4034 5.4216 14.3733 5.27139 14.3L4.75779 14.0495C4.71263 14.0275 4.68462 14.0137 4.65191 13.9966C3.90245 13.6063 3.68274 12.9412 3.87765 12.0213C3.90434 11.8954 3.91991 11.7414 3.92186 11.5847C3.80832 11.4556 3.70093 11.3211 3.60009 11.1818C3.44499 11.1476 3.28907 11.1277 3.1586 11.1253C2.6428 11.116 2.27236 11.0354 1.93091 10.7653C1.72248 10.6005 1.5794 10.3963 1.48636 10.167C1.43718 10.0459 1.41797 9.97432 1.38037 9.81148L1.25183 9.25469C1.21203 9.08229 1.19736 9.0054 1.18981 8.8657C1.17566 8.60381 1.22578 8.34362 1.35871 8.09678C1.55239 7.73712 1.83908 7.51634 2.27415 7.29432C2.39365 7.23333 2.52894 7.14398 2.65623 7.04201C2.6858 6.87646 2.72301 6.71274 2.76769 6.55129C2.69687 6.39956 2.61221 6.25533 2.5293 6.14516C2.02959 5.48115 1.87543 4.86838 2.27078 4.21042C2.33179 4.10888 2.37311 4.05446 2.46982 3.93503L2.82943 3.49095C2.89035 3.41572 2.91835 3.38221 2.96524 3.33164C3.51964 2.73366 4.19664 2.71393 5.00363 3.08961C5.11834 3.14301 5.26198 3.19209 5.41156 3.22904C5.56309 3.14672 5.71855 3.07163 5.87745 3.00408C5.94672 2.85912 6.00214 2.70976 6.03417 2.58163C6.15929 2.08116 6.32117 1.73835 6.66111 1.4664C6.86862 1.30038 7.09973 1.2069 7.34404 1.16781C7.44735 1.15128 7.51539 1.1463 7.62404 1.14497L8.28576 1.14453C8.45289 1.14453 8.52692 1.14715 8.65605 1.16781ZM8.33473 2.2875L7.71433 2.28739C7.42862 2.28739 7.28576 2.28739 7.1429 2.85882C7.06361 3.176 6.89628 3.58121 6.66536 3.92787C6.29817 4.0481 5.95283 4.21658 5.63684 4.42584C5.22726 4.38548 4.81393 4.26193 4.5213 4.1257C3.98731 3.87711 3.89741 3.98813 3.7176 4.21017L3.35799 4.65425C3.17818 4.87629 3.08828 4.98732 3.44246 5.45795C3.64181 5.72284 3.85453 6.11503 3.9779 6.51855C3.85158 6.86101 3.76774 7.22405 3.73279 7.60125C3.44615 7.90655 3.08653 8.16281 2.79364 8.31228C2.26899 8.58002 2.30113 8.71922 2.3654 8.99761L2.49394 9.55439C2.55821 9.83278 2.59035 9.97198 3.17927 9.98263C3.50488 9.98852 3.93525 10.0599 4.32377 10.2057C4.5211 10.5342 4.7612 10.834 5.03637 11.0975C5.09029 11.5075 5.06294 11.9408 4.99569 12.2582C4.87359 12.8345 5.00199 12.8971 5.25879 13.0223L5.77238 13.2728C6.02918 13.3981 6.15758 13.4607 6.53648 13.0097C6.74893 12.7569 7.08151 12.4626 7.44532 12.2518C7.62691 12.2753 7.81207 12.2874 8.00005 12.2874C8.18803 12.2874 8.37318 12.2753 8.55477 12.2518C8.91859 12.4626 9.25116 12.7569 9.46362 13.0097C9.84252 13.4607 9.97091 13.3981 10.2277 13.2728L10.7413 13.0223C10.9981 12.8971 11.1265 12.8345 11.0044 12.2582C10.9372 11.9408 10.9098 11.5075 10.9637 11.0975C11.2389 10.834 11.479 10.5342 11.6763 10.2057C12.0648 10.0599 12.4952 9.98852 12.8208 9.98263C13.4097 9.97198 13.4419 9.83278 13.5062 9.55439L13.6347 8.99761C13.699 8.71922 13.7311 8.58002 13.2065 8.31228C12.9136 8.16281 12.5539 7.90655 12.2673 7.60125C12.2324 7.22405 12.1485 6.86101 12.0222 6.51855C12.1456 6.11503 12.3583 5.72284 12.5576 5.45795C12.9118 4.98732 12.8219 4.87629 12.6421 4.65425L12.2825 4.21017C12.1027 3.98813 12.0128 3.87711 11.4788 4.1257C11.1862 4.26193 10.7728 4.38548 10.3633 4.42584C10.0473 4.21658 9.70193 4.0481 9.33474 3.92787C9.10381 3.58121 8.93649 3.176 8.85719 2.85882C8.72274 2.321 8.58828 2.28937 8.33473 2.2875ZM8.00005 5.43025C9.42021 5.43025 10.5715 6.58151 10.5715 8.00167C10.5715 9.42183 9.42021 10.5731 8.00005 10.5731C6.57989 10.5731 5.42862 9.42183 5.42862 8.00167C5.42862 6.58151 6.57989 5.43025 8.00005 5.43025ZM8.00005 6.5731C7.21107 6.5731 6.57148 7.2127 6.57148 8.00167C6.57148 8.79065 7.21107 9.43025 8.00005 9.43025C8.78903 9.43025 9.42862 8.79065 9.42862 8.00167C9.42862 7.2127 8.78903 6.5731 8.00005 6.5731Z" fill="#57534E"/>
</svg>
