<svg width="16" height="16" viewBox="0 0 16 16" fill="none" xmlns="http://www.w3.org/2000/svg">
<path fill-rule="evenodd" clip-rule="evenodd" d="M11.0667 12.2656C10.7353 12.2656 10.4667 11.997 10.4667 11.6656L10.4667 6.03519L9.09091 7.41093C8.8566 7.64524 8.4767 7.64524 8.24239 7.41093C8.00807 7.17661 8.00807 6.79671 8.24239 6.5624L10.5953 4.20954C10.8556 3.9492 11.2777 3.94919 11.5381 4.20954L13.8909 6.5624C14.1252 6.79672 14.1252 7.17662 13.8909 7.41093C13.6566 7.64525 13.2767 7.64525 13.0424 7.41093L11.6667 6.0352L11.6667 11.6656C11.6667 11.997 11.398 12.2656 11.0667 12.2656Z" fill="#A8A29E"/>
<path fill-rule="evenodd" clip-rule="evenodd" d="M4.39999 11.4123L4.39998 4.6C4.39998 4.26863 4.66861 4 4.99998 4C5.33135 4 5.59998 4.26863 5.59998 4.6L5.59999 11.4123C5.59999 11.7436 5.33136 12.0123 4.99999 12.0123C4.66862 12.0123 4.39999 11.7436 4.39999 11.4123Z" fill="#A8A29E"/>
<path fill-rule="evenodd" clip-rule="evenodd" d="M7.82426 8.85469C8.05857 9.089 8.05857 9.4689 7.82426 9.70321L5.4714 12.0561C5.21105 12.3164 4.78893 12.3164 4.52858 12.0561L2.17574 9.70321C1.94142 9.46889 1.94142 9.08899 2.17574 8.85468C2.41005 8.62037 2.78995 8.62037 3.02426 8.85468L4.99999 10.8304L6.97573 8.85468C7.21005 8.62037 7.58994 8.62037 7.82426 8.85469Z" fill="#A8A29E"/>
</svg>
