<svg width="16" height="16" viewBox="0 0 16 16" fill="none" xmlns="http://www.w3.org/2000/svg">
<path d="M13.1604 8.31209C12.9472 8.09578 12.6102 8.07549 12.3737 8.25281L12.3119 8.30607L8.59984 11.9667L8.59984 2.6C8.59984 2.26863 8.33121 2 7.99984 2C7.69396 2 7.44154 2.22889 7.40451 2.52474L7.39984 2.6V11.9667L3.68775 8.30607C3.47144 8.09281 3.13421 8.0773 2.9003 8.25796L2.83924 8.31209C2.62598 8.5284 2.61047 8.86563 2.79113 9.09953L2.84526 9.1606L7.57859 13.8273C7.79273 14.0384 8.12591 14.056 8.35989 13.88L8.42108 13.8273L13.1544 9.1606C13.3904 8.92795 13.3931 8.54806 13.1604 8.31209Z" fill="#0C0A09"/>
</svg>
