<svg width="16" height="16" viewBox="0 0 16 16" fill="none" xmlns="http://www.w3.org/2000/svg">
<path d="M11.3336 9.00004C13.7925 9.00004 15.9336 9.87284 15.9336 11.8381C15.9336 12.8742 15.5044 13.3334 14.6277 13.3334L10.8971 13.3334C10.535 13.3334 10.2791 12.9661 10.3506 12.6111C10.4008 12.362 10.6099 12.1334 10.8639 12.1334C12.3702 12.1336 14.7189 12.1347 14.7189 12.1347C14.7189 12.1347 14.7336 11.9368 14.7336 11.8381C14.7336 10.83 13.1883 10.2 11.3336 10.2C11.0188 10.2 10.713 10.2182 10.4222 10.2532C10.1987 10.2801 9.98237 10.1739 9.85575 9.98781C9.62178 9.64393 9.74504 9.12375 10.1577 9.07143C10.5356 9.02351 10.9303 9.00004 11.3336 9.00004ZM4.66689 9.00004C7.12586 9.00004 9.26689 9.87284 9.26689 11.8381C9.26689 12.8742 8.83776 13.3334 7.96101 13.3334H1.37278C0.496034 13.3334 0.0668945 12.8742 0.0668945 11.8381C0.0668945 9.87284 2.20793 9.00004 4.66689 9.00004ZM4.66689 10.2C2.81214 10.2 1.26689 10.83 1.26689 11.8381C1.26689 11.9373 1.28023 12.1347 1.28023 12.1347H8.05223C8.05223 12.1347 8.06689 11.9368 8.06689 11.8381C8.06689 10.83 6.52165 10.2 4.66689 10.2ZM11.3336 2.80005C12.862 2.80005 14.1002 4.03826 14.1002 5.56672C14.1002 7.09517 12.862 8.33338 11.3336 8.33338C9.80511 8.33338 8.56689 7.09517 8.56689 5.56672C8.56689 4.03826 9.80511 2.80005 11.3336 2.80005ZM4.66689 2.80005C6.19535 2.80005 7.43356 4.03826 7.43356 5.56672C7.43356 7.09517 6.19535 8.33338 4.66689 8.33338C3.13844 8.33338 1.90023 7.09517 1.90023 5.56672C1.90023 4.03826 3.13844 2.80005 4.66689 2.80005ZM11.3336 4.00005C10.4678 4.00005 9.76689 4.701 9.76689 5.56672C9.76689 6.43243 10.4678 7.13338 11.3336 7.13338C12.1993 7.13338 12.9002 6.43243 12.9002 5.56672C12.9002 4.701 12.1993 4.00005 11.3336 4.00005ZM4.66689 4.00005C3.80118 4.00005 3.10023 4.701 3.10023 5.56672C3.10023 6.43243 3.80118 7.13338 4.66689 7.13338C5.53261 7.13338 6.23356 6.43243 6.23356 5.56672C6.23356 4.701 5.53261 4.00005 4.66689 4.00005Z" fill="#1C1917"/>
</svg>
