<svg width="16" height="19" viewBox="0 0 16 19" fill="none" xmlns="http://www.w3.org/2000/svg">
<path fill-rule="evenodd" clip-rule="evenodd" d="M8 14.7547L6.84644 15.3463C5.22805 16.1763 4.41885 16.5913 3.82052 16.4831C3.29994 16.3889 2.85075 16.0705 2.59806 15.6167C2.30763 15.095 2.46217 14.216 2.77126 12.4581L2.99157 11.205L2.05831 10.3176C0.74901 9.0726 0.0943577 8.4501 0.0150026 7.86154C-0.0540402 7.34946 0.117535 6.83434 0.48194 6.45965C0.900773 6.029 1.80548 5.90076 3.61489 5.64427L4.90462 5.46146L5.4814 4.32139C6.2906 2.72194 6.69519 1.92222 7.24448 1.66672C7.72239 1.44443 8.27762 1.44443 8.75552 1.66672C9.30481 1.92222 9.70941 2.72194 10.5186 4.32139L11.0954 5.46146L12.3851 5.64427C14.1945 5.90076 15.0992 6.029 15.5181 6.45965C15.8825 6.83434 16.054 7.34946 15.985 7.86154C15.9056 8.4501 15.251 9.0726 13.9417 10.3176L13.0084 11.205L13.2287 12.4581C13.5378 14.216 13.6924 15.095 13.4019 15.6167C13.1492 16.0705 12.7001 16.3889 12.1795 16.4831C11.5811 16.5913 10.772 16.1763 9.15357 15.3463L8 14.7547Z" fill="#22C55E"/>
</svg>
