<svg width="16" height="17" viewBox="0 0 16 17" fill="none" xmlns="http://www.w3.org/2000/svg">
<path d="M12.5671 5.79922C12.5671 4.74934 11.7169 3.89922 10.6671 3.89922C9.61718 3.89922 8.76706 4.74934 8.76706 5.79922C8.76706 6.8491 9.61718 7.69922 10.6671 7.69922C11.7169 7.69922 12.5671 6.8491 12.5671 5.79922ZM13.7671 5.79922C13.7671 7.51184 12.3797 8.89922 10.6671 8.89922C8.95444 8.89922 7.56706 7.51184 7.56706 5.79922C7.56706 4.0866 8.95444 2.69922 10.6671 2.69922C12.3797 2.69922 13.7671 4.0866 13.7671 5.79922ZM6.60039 12.7849C6.60039 13.2975 6.53988 13.2325 6.82392 13.2325H14.5102C14.7942 13.2325 14.7337 13.2975 14.7337 12.7849C14.7337 11.5232 12.8816 10.7659 10.6671 10.7659C8.45252 10.7659 6.60039 11.5232 6.60039 12.7849ZM10.6671 9.56588C13.4852 9.56588 15.9337 10.5671 15.9337 12.7849C15.9337 13.942 15.4767 14.4325 14.5102 14.4325H6.82392C5.85742 14.4325 5.40039 13.942 5.40039 12.7849C5.40039 10.5671 7.84892 9.56588 10.6671 9.56588ZM6.42465 6.40829C6.65897 6.6426 6.65897 7.0225 6.42465 7.25682L3.09132 10.5902C2.85701 10.8245 2.47711 10.8245 2.24279 10.5902L0.576127 8.92348C0.341812 8.68917 0.341812 8.30927 0.576127 8.07495C0.810441 7.84064 1.19034 7.84064 1.42465 8.07495L2.66706 9.31736L5.57613 6.40829C5.81044 6.17397 6.19034 6.17397 6.42465 6.40829Z" fill="#A8A29E"/>
</svg>
