<svg width="16" height="17" viewBox="0 0 16 17" fill="none" xmlns="http://www.w3.org/2000/svg">
<path fill-rule="evenodd" clip-rule="evenodd" d="M3.28563 3.78465C4.4914 2.57888 6.15889 1.83203 7.99967 1.83203C9.84046 1.83203 11.5079 2.57888 12.7137 3.78465C13.9195 4.99043 14.6663 6.65791 14.6663 8.4987C14.6663 10.3395 13.9195 12.007 12.7137 13.2127C11.5079 14.4185 9.84046 15.1654 7.99967 15.1654C6.15889 15.1654 4.4914 14.4185 3.28563 13.2127C2.07986 12.007 1.33301 10.3395 1.33301 8.4987C1.33301 6.65791 2.07986 4.99043 3.28563 3.78465ZM7.99967 3.03203C6.48993 3.03203 5.12409 3.64325 4.13416 4.63318C3.14423 5.62311 2.53301 6.98895 2.53301 8.4987C2.53301 10.0084 3.14423 11.3743 4.13416 12.3642C5.12409 13.3541 6.48993 13.9654 7.99967 13.9654C9.50942 13.9654 10.8753 13.3541 11.8652 12.3642C12.8551 11.3743 13.4663 10.0084 13.4663 8.4987C13.4663 6.98895 12.8551 5.62311 11.8652 4.63318C10.8753 3.64325 9.50942 3.03203 7.99967 3.03203Z" fill="#A8A29E"/>
<path fill-rule="evenodd" clip-rule="evenodd" d="M7.48744 5.89239C7.31844 6.02207 7.2151 6.18133 7.18072 6.31492C7.09812 6.63583 6.77101 6.82902 6.4501 6.74643C6.12919 6.66383 5.936 6.33672 6.01859 6.01581C6.13222 5.57432 6.41824 5.20025 6.75692 4.94037C7.09659 4.67973 7.53488 4.4987 7.99966 4.4987C9.06741 4.4987 9.99966 5.43095 9.99966 6.4987C9.99966 7.41241 9.49944 7.97926 9.14275 8.36993C8.74379 8.80688 8.59966 8.97715 8.59966 9.23203C8.59966 9.5634 8.33103 9.83203 7.99966 9.83203C7.66829 9.83203 7.39966 9.5634 7.39966 9.23203C7.39966 8.48335 7.87246 7.97458 8.18212 7.64136C8.20822 7.61327 8.23316 7.58643 8.25657 7.5608C8.59987 7.1848 8.79966 6.91832 8.79966 6.4987C8.79966 6.09369 8.40467 5.6987 7.99966 5.6987C7.84316 5.6987 7.65546 5.76346 7.48744 5.89239Z" fill="#A8A29E"/>
<path d="M8.79966 11.5654C8.79966 12.0072 8.44149 12.3654 7.99966 12.3654C7.55783 12.3654 7.19966 12.0072 7.19966 11.5654C7.19966 11.1235 7.55783 10.7654 7.99966 10.7654C8.44149 10.7654 8.79966 11.1235 8.79966 11.5654Z" fill="#A8A29E"/>
</svg>
