<svg width="17" height="17" viewBox="0 0 17 17" fill="none" xmlns="http://www.w3.org/2000/svg">
<path d="M10.4761 6.67419C10.7104 6.43988 11.0903 6.43988 11.3247 6.67419C11.559 6.9085 11.559 7.2884 11.3247 7.52272L8.25798 10.5894C8.02367 10.8237 7.64377 10.8237 7.40946 10.5894L5.67612 8.85605C5.44181 8.62174 5.44181 8.24184 5.67612 8.00752C5.91044 7.77321 6.29034 7.77321 6.52465 8.00752L7.83372 9.31659L10.4761 6.67419Z" fill="#A8A29E"/>
<path fill-rule="evenodd" clip-rule="evenodd" d="M8.50039 1.89844C12.1451 1.89844 15.1004 4.85369 15.1004 8.49844C15.1004 12.1432 12.1451 15.0984 8.50039 15.0984C4.85564 15.0984 1.90039 12.1432 1.90039 8.49844C1.90039 4.85369 4.85564 1.89844 8.50039 1.89844ZM8.50039 3.09844C5.51772 3.09844 3.10039 5.51577 3.10039 8.49844C3.10039 11.4811 5.51772 13.8984 8.50039 13.8984C11.4831 13.8984 13.9004 11.4811 13.9004 8.49844C13.9004 5.51577 11.4831 3.09844 8.50039 3.09844Z" fill="#A8A29E"/>
</svg>
