<svg width="17" height="17" viewBox="0 0 17 17" fill="none" xmlns="http://www.w3.org/2000/svg">
<path fill-rule="evenodd" clip-rule="evenodd" d="M9.10039 2.43203C9.10039 2.10066 8.83176 1.83203 8.50039 1.83203C8.16902 1.83203 7.90039 2.10066 7.90039 2.43203V3.17142C7.07405 3.24798 6.32853 3.48389 5.74368 3.86046C5.01507 4.32961 4.50202 5.04777 4.50202 5.93806C4.50202 6.44209 4.5727 7.18028 5.18517 7.82905C5.71372 8.38894 6.57154 8.80339 7.90039 9.02189V12.6265C6.55599 12.4935 5.92747 11.9168 5.59884 11.4315C5.41305 11.1571 5.04 11.0853 4.76561 11.2711C4.49122 11.4568 4.4194 11.8299 4.60519 12.1043C5.15404 12.9149 6.13895 13.6878 7.90039 13.8312V14.5673C7.90039 14.8987 8.16902 15.1673 8.50039 15.1673C8.83176 15.1673 9.10039 14.8987 9.10039 14.5673V13.8275C9.92673 13.751 10.6723 13.5152 11.2571 13.1387C11.9858 12.6697 12.4989 11.9517 12.4989 11.0614C12.4989 10.5573 12.4282 9.81915 11.8157 9.17038C11.2871 8.6105 10.4293 8.19605 9.10039 7.97756V4.37694C10.4206 4.52758 11.0745 5.16364 11.4298 5.60385C11.6379 5.8617 12.0157 5.902 12.2735 5.69386C12.5314 5.48573 12.5717 5.10797 12.3636 4.85012C11.8455 4.20838 10.8878 3.33322 9.10039 3.17064V2.43203ZM7.90039 4.37774C7.28072 4.4492 6.76604 4.62941 6.39332 4.8694C5.91121 5.17983 5.70202 5.55868 5.70202 5.93806C5.70202 6.32645 5.75753 6.68726 6.05777 7.0053C6.32342 7.28669 6.84779 7.60512 7.90039 7.80353V4.37774ZM9.10039 9.19592V12.6212C9.72015 12.5498 10.2349 12.3696 10.6076 12.1297C11.0897 11.8194 11.2989 11.4407 11.2989 11.0614C11.2989 10.673 11.2434 10.3122 10.9431 9.99415C10.6775 9.71275 10.1531 9.39432 9.10039 9.19592Z" fill="#A8A29E"/>
</svg>
