<svg width="16" height="16" viewBox="0 0 16 16" fill="none" xmlns="http://www.w3.org/2000/svg">
<path fill-rule="evenodd" clip-rule="evenodd" d="M2.02474 12.0739C2.40202 12.0739 2.6123 11.8883 2.76074 11.4059L3.34212 9.66178H6.39746L6.97884 11.4059C7.12109 11.8822 7.34375 12.0739 7.72103 12.0739C8.12305 12.0739 8.389 11.8389 8.389 11.4678C8.389 11.3132 8.35189 11.1462 8.28385 10.9421L5.96452 4.37988C5.75423 3.75521 5.45117 3.48926 4.88835 3.48926C4.32552 3.48926 4.02246 3.76139 3.80599 4.37988L1.48665 10.9421C1.40625 11.1771 1.36914 11.3379 1.36914 11.4863C1.36914 11.8451 1.63509 12.0739 2.02474 12.0739ZM3.67611 8.58561L4.83887 5.01693H4.9069L6.06348 8.58561H3.67611Z" fill="#1C1917"/>
<path fill-rule="evenodd" clip-rule="evenodd" d="M13.1761 11.1523H13.2441V11.443C13.2751 11.8327 13.5163 12.0615 13.8936 12.0615C14.3203 12.0615 14.5615 11.7894 14.5615 11.3193V7.57747C14.5615 6.15495 13.64 5.36328 11.9886 5.36328C11.3083 5.36328 10.7887 5.48079 10.3929 5.69727C9.84245 5.99414 9.58268 6.36523 9.58268 6.74251C9.58268 7.03939 9.7806 7.24349 10.0837 7.24349C10.3187 7.24349 10.4795 7.18164 10.6465 7.02083C11.0238 6.63737 11.3825 6.45182 11.902 6.45182C12.737 6.45182 13.1885 6.83529 13.1885 7.57129V8.15267H11.5557C10.096 8.15885 9.21777 8.89486 9.21777 10.1009C9.21777 11.2884 10.0775 12.0924 11.3516 12.0924C12.1618 12.0924 12.8174 11.7585 13.1761 11.1523ZM10.597 10.0329C10.597 9.43294 11.0176 9.09277 11.7474 9.09277H13.1885V9.79785C13.1885 10.5029 12.5762 11.0472 11.7783 11.0472C11.0732 11.0472 10.597 10.639 10.597 10.0329Z" fill="#1C1917"/>
</svg>
