<svg width="16" height="16" viewBox="0 0 16 16" fill="none" xmlns="http://www.w3.org/2000/svg">
<path fill-rule="evenodd" clip-rule="evenodd" d="M3.28612 3.28465C4.49189 2.07888 6.15938 1.33203 8.00016 1.33203C9.84095 1.33203 11.5084 2.07888 12.7142 3.28465C13.92 4.49043 14.6668 6.15791 14.6668 7.9987C14.6668 9.83948 13.92 11.507 12.7142 12.7127C11.5084 13.9185 9.84095 14.6654 8.00016 14.6654C6.15938 14.6654 4.49189 13.9185 3.28612 12.7127C2.08035 11.507 1.3335 9.83948 1.3335 7.9987C1.3335 6.15791 2.08035 4.49043 3.28612 3.28465ZM8.00016 2.53203C6.49042 2.53203 5.12457 3.14325 4.13465 4.13318C3.14472 5.12311 2.5335 6.48895 2.5335 7.9987C2.5335 9.50844 3.14472 10.8743 4.13465 11.8642C5.12457 12.8541 6.49042 13.4654 8.00016 13.4654C9.50991 13.4654 10.8757 12.8541 11.8657 11.8642C12.8556 10.8743 13.4668 9.50844 13.4668 7.9987C13.4668 6.48895 12.8556 5.12311 11.8657 4.13318C10.8757 3.14325 9.50991 2.53203 8.00016 2.53203Z" fill="#1C1917"/>
<path fill-rule="evenodd" clip-rule="evenodd" d="M7.48793 5.39239C7.31893 5.52207 7.21559 5.68133 7.18121 5.81492C7.09861 6.13583 6.7715 6.32902 6.45059 6.24643C6.12967 6.16383 5.93648 5.83672 6.01908 5.51581C6.13271 5.07432 6.41873 4.70025 6.75741 4.44037C7.09707 4.17973 7.53537 3.9987 8.00015 3.9987C9.0679 3.9987 10.0001 4.93095 10.0001 5.9987C10.0001 6.91241 9.49993 7.47926 9.14324 7.86993C8.74428 8.30688 8.60015 8.47715 8.60015 8.73203C8.60015 9.0634 8.33152 9.33203 8.00015 9.33203C7.66878 9.33203 7.40015 9.0634 7.40015 8.73203C7.40015 7.98335 7.87295 7.47458 8.18261 7.14136C8.20871 7.11327 8.23365 7.08643 8.25706 7.0608C8.60036 6.6848 8.80015 6.41832 8.80015 5.9987C8.80015 5.59369 8.40516 5.1987 8.00015 5.1987C7.84365 5.1987 7.65594 5.26346 7.48793 5.39239Z" fill="#1C1917"/>
<path d="M8.80015 11.0654C8.80015 11.5072 8.44198 11.8654 8.00015 11.8654C7.55832 11.8654 7.20015 11.5072 7.20015 11.0654C7.20015 10.6235 7.55832 10.2654 8.00015 10.2654C8.44198 10.2654 8.80015 10.6235 8.80015 11.0654Z" fill="#1C1917"/>
</svg>
