<svg width="16" height="16" viewBox="0 0 16 16" fill="none" xmlns="http://www.w3.org/2000/svg">
<path d="M5.27884 8.66799C5.73093 8.66799 6.03725 8.72715 6.35833 8.89886C6.6761 9.0688 6.93265 9.32536 7.10259 9.64313C7.25523 9.92853 7.31893 10.2023 7.3312 10.5771L7.33346 10.7226V12.48C7.33346 12.9321 7.27431 13.2384 7.10259 13.5595C6.93265 13.8773 6.6761 14.1338 6.35833 14.3038C6.07293 14.4564 5.79918 14.5201 5.42436 14.5324L5.27884 14.5347H3.52143C3.06933 14.5347 2.76301 14.4755 2.44193 14.3038C2.12417 14.1338 1.86761 13.8773 1.69767 13.5595C1.54503 13.2741 1.48133 13.0004 1.46906 12.6256L1.4668 12.48V10.7226C1.4668 10.2705 1.52595 9.96421 1.69767 9.64313C1.86761 9.32536 2.12417 9.0688 2.44193 8.89886C2.72733 8.74623 3.00108 8.68253 3.37591 8.67026L3.52143 8.66799H5.27884ZM12.4788 8.66799C12.9309 8.66799 13.2372 8.72715 13.5583 8.89886C13.8761 9.0688 14.1327 9.32536 14.3026 9.64313C14.4552 9.92853 14.5189 10.2023 14.5312 10.5771L14.5335 10.7226V12.48C14.5335 12.9321 14.4743 13.2384 14.3026 13.5595C14.1327 13.8773 13.8761 14.1338 13.5583 14.3038C13.2729 14.4564 12.9992 14.5201 12.6244 14.5324L12.4788 14.5347H10.7214C10.2693 14.5347 9.96301 14.4755 9.64193 14.3038C9.32416 14.1338 9.06761 13.8773 8.89767 13.5595C8.74503 13.2741 8.68133 13.0004 8.66906 12.6256L8.6668 12.48V10.7226C8.6668 10.2705 8.72595 9.96421 8.89767 9.64313C9.06761 9.32536 9.32416 9.0688 9.64193 8.89886C9.92733 8.74623 10.2011 8.68253 10.5759 8.67026L10.7214 8.66799H12.4788ZM5.27884 9.86799H3.52143C3.22425 9.86799 3.11649 9.89894 3.00785 9.95704C2.89921 10.0151 2.81394 10.1004 2.75584 10.209C2.705 10.3041 2.67496 10.3985 2.66824 10.6197L2.6668 10.7226V12.48C2.6668 12.7772 2.69774 12.885 2.75584 12.9936C2.81394 13.1023 2.89921 13.1875 3.00785 13.2456C3.10291 13.2965 3.1973 13.3265 3.41849 13.3332L3.52143 13.3347H5.27884C5.57601 13.3347 5.68377 13.3037 5.79241 13.2456C5.90105 13.1875 5.98632 13.1023 6.04442 12.9936C6.09526 12.8985 6.1253 12.8042 6.13202 12.583L6.13346 12.48V10.7226C6.13346 10.4255 6.10252 10.3177 6.04442 10.209C5.98632 10.1004 5.90105 10.0151 5.79241 9.95704C5.68377 9.89894 5.57601 9.86799 5.27884 9.86799ZM12.4788 9.86799H10.7214C10.4243 9.86799 10.3165 9.89894 10.2078 9.95704C10.0992 10.0151 10.0139 10.1004 9.95584 10.209C9.905 10.3041 9.87496 10.3985 9.86824 10.6197L9.8668 10.7226V12.48C9.8668 12.7772 9.89774 12.885 9.95584 12.9936C10.0139 13.1023 10.0992 13.1875 10.2078 13.2456C10.3029 13.2965 10.3973 13.3265 10.6185 13.3332L10.7214 13.3347H12.4788C12.776 13.3347 12.8838 13.3037 12.9924 13.2456C13.1011 13.1875 13.1863 13.1023 13.2444 12.9936C13.2953 12.8985 13.3253 12.8042 13.332 12.583L13.3335 12.48V10.7226C13.3335 10.4255 13.3025 10.3177 13.2444 10.209C13.1863 10.1004 13.1011 10.0151 12.9924 9.95704C12.8838 9.89894 12.776 9.86799 12.4788 9.86799ZM12.1264 1.10574C12.4313 1.19815 12.6673 1.34352 12.9357 1.59257L13.053 1.70581L14.2956 2.94848C14.6153 3.26817 14.7901 3.52659 14.8957 3.87505C15.0002 4.21991 15.0002 4.58274 14.8957 4.9276C14.8033 5.2325 14.6579 5.46847 14.4089 5.73686L14.2956 5.85417L13.053 7.09685C12.7333 7.41653 12.4749 7.5913 12.1264 7.69691C11.7815 7.80144 11.4187 7.80144 11.0739 7.69691C10.769 7.6045 10.533 7.45914 10.2646 7.21008L10.1473 7.09685L8.90461 5.85417C8.58493 5.53449 8.41016 5.27606 8.30454 4.9276C8.20002 4.58274 8.20002 4.21991 8.30454 3.87505C8.39696 3.57015 8.54232 3.33418 8.79138 3.06579L8.90461 2.94848L10.1473 1.70581C10.467 1.38613 10.7254 1.21135 11.0739 1.10574C11.4187 1.00121 11.7815 1.00121 12.1264 1.10574ZM5.27884 1.46799C5.73093 1.46799 6.03725 1.52715 6.35833 1.69886C6.6761 1.8688 6.93265 2.12536 7.10259 2.44313C7.27431 2.76421 7.33346 3.07052 7.33346 3.52262V5.28003C7.33346 5.73213 7.27431 6.03845 7.10259 6.35953C6.93265 6.67729 6.6761 6.93385 6.35833 7.10379C6.03725 7.27551 5.73093 7.33466 5.27884 7.33466H3.52143C3.06933 7.33466 2.76301 7.27551 2.44193 7.10379C2.12417 6.93385 1.86761 6.67729 1.69767 6.35953C1.52595 6.03845 1.4668 5.73213 1.4668 5.28003V3.52262C1.4668 3.07052 1.52595 2.76421 1.69767 2.44313C1.86761 2.12536 2.12417 1.8688 2.44193 1.69886C2.76301 1.52715 3.06933 1.46799 3.52143 1.46799H5.27884ZM11.4219 2.25415C11.3188 2.28542 11.2308 2.33091 11.0696 2.48257L10.9958 2.55434L9.75314 3.79701C9.54301 4.00715 9.48869 4.10522 9.45295 4.22313C9.41721 4.34104 9.41721 4.46162 9.45295 4.57952C9.48422 4.68269 9.52972 4.77068 9.68138 4.93183L9.75314 5.00564L10.9958 6.24832C11.2059 6.45845 11.304 6.51277 11.4219 6.54851C11.5398 6.58424 11.6604 6.58424 11.7783 6.54851C11.8815 6.51724 11.9695 6.47174 12.1306 6.32008L12.2044 6.24832L13.4471 5.00564C13.6573 4.79551 13.7116 4.69743 13.7473 4.57952C13.783 4.46162 13.783 4.34104 13.7473 4.22313C13.716 4.11996 13.6705 4.03198 13.5189 3.87082L13.4471 3.79701L12.2044 2.55434C11.9943 2.3442 11.8962 2.28988 11.7783 2.25415C11.6604 2.21841 11.5398 2.21841 11.4219 2.25415ZM5.27884 2.66799H3.52143C3.22425 2.66799 3.11649 2.69894 3.00785 2.75704C2.89921 2.81514 2.81394 2.9004 2.75584 3.00904C2.69774 3.11769 2.6668 3.22545 2.6668 3.52262V5.28003C2.6668 5.5772 2.69774 5.68497 2.75584 5.79361C2.81394 5.90225 2.89921 5.98751 3.00785 6.04562C3.11649 6.10372 3.22425 6.13466 3.52143 6.13466H5.27884C5.57601 6.13466 5.68377 6.10372 5.79241 6.04562C5.90105 5.98751 5.98632 5.90225 6.04442 5.79361C6.10252 5.68497 6.13346 5.5772 6.13346 5.28003V3.52262C6.13346 3.22545 6.10252 3.11769 6.04442 3.00904C5.98632 2.9004 5.90105 2.81514 5.79241 2.75704C5.68377 2.69894 5.57601 2.66799 5.27884 2.66799Z" fill="#57534E"/>
</svg>
