<svg width="16" height="17" viewBox="0 0 16 17" fill="none" xmlns="http://www.w3.org/2000/svg">
<path fill-rule="evenodd" clip-rule="evenodd" d="M1 7.07142C1 5.47127 1 4.6712 1.3429 4.06003C1.64453 3.52242 2.12581 3.08533 2.71778 2.81141C3.39076 2.5 4.27175 2.5 6.03371 2.5H9.96629C11.7283 2.5 12.6092 2.5 13.2822 2.81141C13.8742 3.08533 14.3555 3.52242 14.6571 4.06003C15 4.6712 15 5.47127 15 7.07142C15 8.67157 15 9.47164 14.6571 10.0828C14.3555 10.6204 13.8742 11.0575 13.2822 11.3314C12.6247 11.6357 11.7686 11.6427 10.0864 11.6428L10.519 13.2143H12.0112C12.4022 13.2143 12.7191 13.5021 12.7191 13.8571C12.7191 14.2122 12.4022 14.5 12.0112 14.5H3.98876C3.59782 14.5 3.28089 14.2122 3.28089 13.8571C3.28089 13.5021 3.59782 13.2143 3.98876 13.2143H5.48102L5.91361 11.6428C4.23136 11.6427 3.3753 11.6357 2.71778 11.3314C2.12581 11.0575 1.64453 10.6204 1.3429 10.0828C1 9.47164 1 8.67157 1 7.07142ZM9.96629 3.78571H6.03371C5.12936 3.78571 4.53625 3.78671 4.08266 3.82037C3.6456 3.8528 3.46416 3.90903 3.36051 3.95699C3.03493 4.10765 2.77022 4.34804 2.60433 4.64373C2.55151 4.73786 2.4896 4.90263 2.45389 5.29956C2.41683 5.71149 2.41573 6.25013 2.41573 7.07142C2.41573 7.89271 2.41683 8.43135 2.45389 8.84329C2.4896 9.24021 2.55151 9.40499 2.60433 9.49912C2.77022 9.7948 3.03493 10.0352 3.36051 10.1859C3.46416 10.2338 3.6456 10.29 4.08266 10.3225C4.53625 10.3561 5.12937 10.3571 6.03371 10.3571H9.96629C10.8706 10.3571 11.4637 10.3561 11.9173 10.3225C12.3544 10.29 12.5358 10.2338 12.6395 10.1859C12.9651 10.0352 13.2298 9.7948 13.3957 9.49912C13.4485 9.40499 13.5104 9.24021 13.5461 8.84329C13.5832 8.43135 13.5843 7.89271 13.5843 7.07142C13.5843 6.25013 13.5832 5.71149 13.5461 5.29956C13.5104 4.90263 13.4485 4.73786 13.3957 4.64373C13.2298 4.34804 12.9651 4.10765 12.6395 3.95699C12.5358 3.90903 12.3544 3.8528 11.9173 3.82037C11.4637 3.78671 10.8706 3.78571 9.96629 3.78571ZM7.37291 11.6428L6.94032 13.2143H9.05968L8.62709 11.6428H7.37291Z" fill="#57534E"/>
</svg>
