<svg width="16" height="16" viewBox="0 0 16 16" fill="none" xmlns="http://www.w3.org/2000/svg">
<path d="M12.1582 4.62387C12.3925 4.38956 12.3925 4.00966 12.1582 3.77534C11.9239 3.54103 11.544 3.54103 11.3097 3.77535L4.33398 10.7511L1.35825 7.77535C1.12393 7.54103 0.744035 7.54103 0.50972 7.77535C0.275406 8.00966 0.275406 8.38956 0.50972 8.62387L3.90972 12.0239C4.02224 12.1364 4.17485 12.1996 4.33398 12.1996C4.49311 12.1996 4.64573 12.1364 4.75825 12.0239L12.1582 4.62387Z" fill="#18181B"/>
<path d="M15.4915 4.62387C15.7259 4.38956 15.7259 4.00966 15.4915 3.77534C15.2572 3.54103 14.8773 3.54103 14.643 3.77535L7.24304 11.1753C7.00872 11.4097 7.00872 11.7896 7.24304 12.0239C7.47735 12.2582 7.85725 12.2582 8.09157 12.0239L15.4915 4.62387Z" fill="#18181B"/>
</svg>
