<svg width="16" height="16" viewBox="0 0 16 16" fill="none" xmlns="http://www.w3.org/2000/svg">
<path fill-rule="evenodd" clip-rule="evenodd" d="M3.28661 3.28563C4.49238 2.07986 6.15987 1.33301 8.00065 1.33301C9.84143 1.33301 11.5089 2.07986 12.7147 3.28563C13.9205 4.4914 14.6673 6.15889 14.6673 7.99967C14.6673 9.84046 13.9205 11.5079 12.7147 12.7137C11.5089 13.9195 9.84143 14.6663 8.00065 14.6663C6.15987 14.6663 4.49238 13.9195 3.28661 12.7137C2.08083 11.5079 1.33398 9.84046 1.33398 7.99967C1.33398 6.15889 2.08083 4.4914 3.28661 3.28563ZM8.00065 2.53301C6.49091 2.53301 5.12506 3.14423 4.13513 4.13416C3.14521 5.12409 2.53398 6.48993 2.53398 7.99967C2.53398 9.50942 3.14521 10.8753 4.13513 11.8652C5.12506 12.8551 6.49091 13.4663 8.00065 13.4663C9.51039 13.4663 10.8762 12.8551 11.8662 11.8652C12.8561 10.8753 13.4673 9.50942 13.4673 7.99967C13.4673 6.48993 12.8561 5.12409 11.8662 4.13416C10.8762 3.14423 9.51039 2.53301 8.00065 2.53301Z" fill="#1C1917"/>
<path fill-rule="evenodd" clip-rule="evenodd" d="M7.48842 5.39336C7.31942 5.52304 7.21608 5.68231 7.18169 5.8159C7.0991 6.13681 6.77199 6.33 6.45108 6.2474C6.13016 6.16481 5.93697 5.8377 6.01957 5.51679C6.1332 5.0753 6.41922 4.70123 6.7579 4.44135C7.09756 4.1807 7.53586 3.99967 8.00064 3.99967C9.06839 3.99967 10.0006 4.93192 10.0006 5.99967C10.0006 6.91339 9.50042 7.48024 9.14373 7.8709C8.74476 8.30786 8.60064 8.47813 8.60064 8.73301C8.60064 9.06438 8.33201 9.33301 8.00064 9.33301C7.66926 9.33301 7.40063 9.06438 7.40063 8.73301C7.40063 7.98433 7.87344 7.47555 8.1831 7.14234C8.2092 7.11425 8.23414 7.08741 8.25754 7.06178C8.60085 6.68578 8.80063 6.4193 8.80063 5.99967C8.80063 5.59467 8.40564 5.19967 8.00064 5.19967C7.84413 5.19967 7.65643 5.26444 7.48842 5.39336Z" fill="#1C1917"/>
<path d="M8.80064 11.0663C8.80064 11.5082 8.44246 11.8663 8.00064 11.8663C7.55881 11.8663 7.20064 11.5082 7.20064 11.0663C7.20064 10.6245 7.55881 10.2663 8.00064 10.2663C8.44246 10.2663 8.80064 10.6245 8.80064 11.0663Z" fill="#1C1917"/>
</svg>
