<svg width="16" height="16" viewBox="0 0 16 16" fill="none" xmlns="http://www.w3.org/2000/svg">
<path fill-rule="evenodd" clip-rule="evenodd" d="M14.6662 5.33333C14.6662 3.49238 13.1738 2 11.3329 2C9.49194 2 7.99955 3.49238 7.99955 5.33333C7.99955 7.17428 9.49194 8.66667 11.3329 8.66667C13.1738 8.66667 14.6662 7.17428 14.6662 5.33333ZM10.7811 3.49077C10.8132 3.21447 11.048 3 11.3329 3C11.6397 3 11.8884 3.24873 11.8884 3.55556V4.77778H13.1107L13.1755 4.78152C13.4518 4.81361 13.6662 5.04843 13.6662 5.33333C13.6662 5.64016 13.4175 5.88889 13.1107 5.88889H11.8884V7.11111L11.8847 7.1759C11.8526 7.45221 11.6178 7.66667 11.3329 7.66667C11.0261 7.66667 10.7773 7.41794 10.7773 7.11111V5.88889H9.55511L9.49032 5.88515C9.21401 5.85306 8.99955 5.61824 8.99955 5.33333C8.99955 5.02651 9.24827 4.77778 9.55511 4.77778H10.7773V3.55556L10.7811 3.49077Z" fill="#18181B"/>
<path d="M6.79067 3.25364C7.11483 3.18491 7.3219 2.8664 7.25316 2.54224C7.18443 2.21807 6.86592 2.01101 6.54175 2.07974C3.7152 2.67908 1.42059 5.05118 1.42059 7.80455C1.42059 8.87681 1.75808 9.87713 2.33865 10.7252C2.31232 11.0706 2.21416 11.4383 2.06971 11.829C1.93997 12.1799 1.78589 12.5176 1.62846 12.8627C1.57697 12.9756 1.5251 13.0893 1.47362 13.2044C1.21403 13.7812 1.66169 14.4236 2.27964 14.3994C3.74349 14.3419 4.94635 13.9741 5.7784 13.2054C6.47672 13.4239 7.2284 13.5424 8.01007 13.5424C10.4389 13.5424 12.6898 12.4518 13.8383 10.6567C14.0169 10.3776 13.9354 10.0065 13.6562 9.82795C13.3771 9.64936 13.0061 9.73087 12.8275 10.01C11.9402 11.3968 10.1113 12.3424 8.01007 12.3424C7.22907 12.3424 6.48937 12.2024 5.82272 11.9523C5.5859 11.8634 5.31877 11.9326 5.15489 12.1253C4.70306 12.6565 3.95537 13.0275 2.8131 13.157C2.9442 12.867 3.08004 12.5567 3.19524 12.2451C3.38811 11.7235 3.54574 11.1431 3.54574 10.5432C3.54574 10.4143 3.50421 10.2888 3.4273 10.1853C2.91233 9.49242 2.62059 8.67523 2.62059 7.80455C2.62059 5.73576 4.39462 3.7617 6.79067 3.25364Z" fill="#18181B"/>
</svg>
