<svg width="16" height="16" viewBox="0 0 16 16" fill="none" xmlns="http://www.w3.org/2000/svg">
<path d="M4.73299 4.53301L5.93299 4.53301V12.0663C5.93299 12.3977 5.66436 12.6663 5.33299 12.6663C5.00162 12.6663 4.73299 12.3977 4.73299 12.0663V4.53301Z" fill="#1C1917"/>
<path d="M1.33301 3.93301C1.33301 3.60164 1.60164 3.33301 1.93301 3.33301H8.73301C9.06438 3.33301 9.33301 3.60164 9.33301 3.93301C9.33301 4.26438 9.06438 4.53301 8.73301 4.53301H1.93301C1.60164 4.53301 1.33301 4.26438 1.33301 3.93301Z" fill="#1C1917"/>
<path d="M7.99967 6.59967C7.99967 6.2683 8.2683 5.99967 8.59967 5.99967H14.0663C14.3977 5.99967 14.6663 6.2683 14.6663 6.59967C14.6663 6.93105 14.3977 7.19967 14.0663 7.19967H8.59967C8.2683 7.19967 7.99967 6.93105 7.99967 6.59967Z" fill="#1C1917"/>
<path d="M10.733 7.1969H11.933V12.0663C11.933 12.3977 11.6644 12.6663 11.333 12.6663C11.0016 12.6663 10.733 12.3977 10.733 12.0663V7.1969Z" fill="#1C1917"/>
</svg>
