<svg width="16" height="16" viewBox="0 0 16 16" fill="none" xmlns="http://www.w3.org/2000/svg">
<path d="M8.26706 5.33324C8.26706 5.00186 7.99843 4.73324 7.66706 4.73324C7.33569 4.73324 7.06706 5.00186 7.06706 5.33324V8.33323C7.06706 8.58334 7.2222 8.80721 7.45638 8.89503L10.123 9.89503C10.4333 10.0114 10.7792 9.85418 10.8955 9.54391C11.0119 9.23364 10.8547 8.88779 10.5444 8.77144L8.26706 7.91744V5.33324Z" fill="#1C1917"/>
<path fill-rule="evenodd" clip-rule="evenodd" d="M8.00039 1.3999C4.35531 1.3999 1.40039 4.35482 1.40039 7.9999C1.40039 11.645 4.35531 14.5999 8.00039 14.5999C11.6455 14.5999 14.6004 11.645 14.6004 7.9999C14.6004 4.35482 11.6455 1.3999 8.00039 1.3999ZM2.60039 7.9999C2.60039 5.01756 5.01805 2.5999 8.00039 2.5999C10.9827 2.5999 13.4004 5.01756 13.4004 7.9999C13.4004 10.9822 10.9827 13.3999 8.00039 13.3999C5.01805 13.3999 2.60039 10.9822 2.60039 7.9999Z" fill="#1C1917"/>
</svg>
