<svg width="21" height="26" viewBox="0 0 21 26" fill="none" xmlns="http://www.w3.org/2000/svg">
<g filter="url(#filter0_d_3_29840)">
<path fill-rule="evenodd" clip-rule="evenodd" d="M5.11816 9.81445H10.5267V19.0135C10.5267 19.7569 9.74438 20.2403 9.07948 19.9079L7.82243 19.2794L6.56538 19.9079C5.90048 20.2403 5.11816 19.7569 5.11816 19.0135V9.81445Z" fill="#7F45F6"/>
</g>
<g filter="url(#filter1_d_3_29840)">
<path fill-rule="evenodd" clip-rule="evenodd" d="M6.47021 10.8301H11.8787V20.0291C11.8787 20.7725 11.0964 21.256 10.4315 20.9235L9.17448 20.295L7.91743 20.9235C7.25253 21.256 6.47021 20.7725 6.47021 20.0291V10.8301Z" fill="#50E2C2"/>
</g>
<g filter="url(#filter2_d_3_29840)">
<path fill-rule="evenodd" clip-rule="evenodd" d="M10.5269 9.81445H15.9354V19.0135C15.9354 19.7569 15.1531 20.2403 14.4882 19.9079L13.2311 19.2794L11.9741 19.9079C11.3092 20.2403 10.5269 19.7569 10.5269 19.0135V9.81445Z" fill="#7F45F6"/>
</g>
<g filter="url(#filter3_d_3_29840)">
<path fill-rule="evenodd" clip-rule="evenodd" d="M9.17432 10.8301H14.5828V20.0291C14.5828 20.7725 13.8005 21.256 13.1356 20.9235L11.8786 20.295L10.6215 20.9235C9.95663 21.256 9.17432 20.7725 9.17432 20.0291V10.8301Z" fill="#50E2C2"/>
</g>
<g filter="url(#filter4_d_3_29840)">
<path fill-rule="evenodd" clip-rule="evenodd" d="M7.82227 11.5059H13.2308V20.7049C13.2308 21.4483 12.4485 21.9318 11.7836 21.5993L10.5265 20.9708L9.26948 21.5993C8.60458 21.9318 7.82227 21.4483 7.82227 20.7049V11.5059Z" fill="white"/>
</g>
<mask id="mask0_3_29840" style="mask-type:luminance" maskUnits="userSpaceOnUse" x="7" y="11" width="7" height="11">
<path fill-rule="evenodd" clip-rule="evenodd" d="M7.82227 11.5059H13.2308V20.7049C13.2308 21.4483 12.4485 21.9318 11.7836 21.5993L10.5265 20.9708L9.26948 21.5993C8.60458 21.9318 7.82227 21.4483 7.82227 20.7049V11.5059Z" fill="white"/>
</mask>
<g mask="url(#mask0_3_29840)">
<rect x="9.1748" y="11.5059" width="2.70426" height="10.817" fill="#F55462"/>
</g>
<path style="mix-blend-mode:multiply" opacity="0.1" fill-rule="evenodd" clip-rule="evenodd" d="M8.52708 5.38889C9.76468 4.67435 11.2895 4.67435 12.5271 5.38888L15.2602 6.96686C16.4978 7.68139 17.2602 9.0019 17.2602 10.431V13.5869C17.2602 15.016 16.4978 16.3365 15.2602 17.051L12.5271 18.629C11.2895 19.3435 9.76469 19.3435 8.52708 18.629L5.79395 17.051C4.55634 16.3365 3.79395 15.016 3.79395 13.5869L3.79395 10.431C3.79395 9.0019 4.55634 7.68139 5.79395 6.96686L8.52708 5.38889Z" fill="black"/>
<path fill-rule="evenodd" clip-rule="evenodd" d="M6.74652 11.878L5.05635 11.2019V10.8639L4.01831 10.4313C3.58523 10.2509 3.12193 10.6149 3.19482 11.0784L3.26551 11.5278C3.31832 11.8636 3.5381 12.1495 3.84898 12.287L6.74652 13.5681V11.878Z" fill="url(#paint0_linear_3_29840)" stroke="url(#paint1_linear_3_29840)" stroke-linecap="round" stroke-linejoin="round"/>
<path fill-rule="evenodd" clip-rule="evenodd" d="M6.07025 10.1885L4.38008 9.51243V9.1744L3.34204 8.74188C2.90896 8.56144 2.44566 8.92549 2.51855 9.38896L2.58924 9.83833C2.64205 10.1741 2.86183 10.4601 3.17271 10.5975L6.07025 11.8787V10.1885Z" fill="url(#paint2_linear_3_29840)" stroke="url(#paint3_linear_3_29840)" stroke-linecap="round" stroke-linejoin="round"/>
<path fill-rule="evenodd" clip-rule="evenodd" d="M5.39447 8.49709L3.7043 7.82103V7.483L2.66626 7.05048C2.23318 6.87003 1.76988 7.23408 1.84277 7.69755L1.91345 8.14692C1.96627 8.48271 2.18604 8.76868 2.49693 8.90614L5.39447 10.1873V8.49709Z" fill="url(#paint4_linear_3_29840)" stroke="url(#paint5_linear_3_29840)" stroke-linecap="round" stroke-linejoin="round"/>
<path fill-rule="evenodd" clip-rule="evenodd" d="M4.71836 6.8084L3.0282 6.13233V5.7943L1.99015 5.36178C1.55708 5.18133 1.09377 5.54539 1.16667 6.00886L1.23735 6.45823C1.29017 6.79402 1.50994 7.07998 1.82083 7.21744L4.71836 8.49856V6.8084Z" fill="url(#paint6_linear_3_29840)" stroke="url(#paint7_linear_3_29840)" stroke-linecap="round" stroke-linejoin="round"/>
<mask id="mask1_3_29840" style="mask-type:luminance" maskUnits="userSpaceOnUse" x="0" y="4" width="8" height="10">
<path fill-rule="evenodd" clip-rule="evenodd" d="M1.80906 7.4852C1.78022 7.30188 1.66024 7.14575 1.49051 7.07071C1.38542 7.02424 1.31113 6.92758 1.29327 6.81407L1.05617 5.30665C1.05035 5.26963 1.0549 5.23172 1.06931 5.19713C1.11239 5.09373 1.23114 5.04484 1.33454 5.08792L2.87322 5.72904C2.96697 5.7681 3.02803 5.8597 3.02803 5.96125C3.02803 6.06412 3.09066 6.15663 3.18617 6.19483L4.0591 6.544C4.45717 6.70323 4.7182 7.08877 4.7182 7.51751V7.86331C4.7182 8.08319 4.85207 8.28093 5.05623 8.36259C5.26039 8.44426 5.39426 8.64199 5.39426 8.86188V9.55347C5.39426 9.77336 5.52813 9.97109 5.73229 10.0528C5.93645 10.1344 6.07033 10.3322 6.07033 10.552V11.2436C6.07033 11.4635 6.2042 11.6613 6.40836 11.7429C6.61252 11.8246 6.74639 12.0223 6.74639 12.2422V12.3953C6.74639 12.9475 6.1786 13.3173 5.67359 13.094L3.51871 12.1412C3.41362 12.0947 3.33933 11.9981 3.32147 11.8846L3.16119 10.8655C3.13235 10.6822 3.01237 10.5261 2.84264 10.451C2.73755 10.4046 2.66326 10.3079 2.64541 10.1944L2.48512 9.17536C2.45629 8.99204 2.3363 8.83592 2.16657 8.76087C2.06148 8.71441 1.98719 8.61774 1.96934 8.50423L1.80906 7.4852Z" fill="white" stroke="white"/>
</mask>
<g mask="url(#mask1_3_29840)">
<g opacity="0.1">
<path fill-rule="evenodd" clip-rule="evenodd" d="M7.52622 4.08231C9.38263 3.01051 11.6698 3.01051 13.5262 4.08231L14.861 4.85296C16.7174 5.92476 17.861 7.90552 17.861 10.0491V11.5904C17.861 13.734 16.7174 15.7148 14.861 16.7866L13.5262 17.5572C11.6698 18.629 9.38263 18.629 7.52622 17.5572L6.19141 16.7866C4.335 15.7148 3.19141 13.734 3.19141 11.5904L3.19141 10.0491C3.19141 7.90552 4.335 5.92476 6.19141 4.85296L7.52622 4.08231Z" fill="black" style="mix-blend-mode:multiply"/>
</g>
</g>
<path fill-rule="evenodd" clip-rule="evenodd" d="M14.3072 11.8819L15.9974 11.2058V10.8678L17.0354 10.4352C17.4685 10.2548 17.9318 10.6189 17.8589 11.0823L17.7882 11.5317C17.7354 11.8675 17.5156 12.1534 17.2047 12.2909L14.3072 13.572V11.8819Z" fill="url(#paint8_linear_3_29840)" stroke="url(#paint9_linear_3_29840)" stroke-linecap="round" stroke-linejoin="round"/>
<path fill-rule="evenodd" clip-rule="evenodd" d="M14.983 10.1905L16.6731 9.51439V9.17635L17.7112 8.74384C18.1443 8.56339 18.6076 8.92744 18.5347 9.39091L18.464 9.84028C18.4112 10.1761 18.1914 10.462 17.8805 10.5995L14.983 11.8806V10.1905Z" fill="url(#paint10_linear_3_29840)" stroke="url(#paint11_linear_3_29840)" stroke-linecap="round" stroke-linejoin="round"/>
<path fill-rule="evenodd" clip-rule="evenodd" d="M15.6597 8.50295L17.3499 7.82689V7.48885L18.3879 7.05634C18.821 6.87589 19.2843 7.23994 19.2114 7.70341L19.1407 8.15278C19.0879 8.48857 18.8682 8.77454 18.5573 8.91199L15.6597 10.1931V8.50295Z" fill="url(#paint12_linear_3_29840)" stroke="url(#paint13_linear_3_29840)" stroke-linecap="round" stroke-linejoin="round"/>
<path fill-rule="evenodd" clip-rule="evenodd" d="M16.3355 6.81155L18.0257 6.13548V5.79745L19.0637 5.36493C19.4968 5.18448 19.9601 5.54854 19.8872 6.012L19.8165 6.46138C19.7637 6.79717 19.5439 7.08313 19.233 7.22059L16.3355 8.50171V6.81155Z" fill="url(#paint14_linear_3_29840)" stroke="url(#paint15_linear_3_29840)" stroke-linecap="round" stroke-linejoin="round"/>
<mask id="mask2_3_29840" style="mask-type:luminance" maskUnits="userSpaceOnUse" x="13" y="4" width="8" height="10">
<path fill-rule="evenodd" clip-rule="evenodd" d="M19.2447 7.48911C19.2735 7.30578 19.3935 7.14966 19.5632 7.07461C19.6683 7.02815 19.7426 6.93148 19.7604 6.81798L19.9975 5.31056C20.0034 5.27354 19.9988 5.23563 19.9844 5.20104C19.9413 5.09764 19.8226 5.04874 19.7192 5.09183L18.1805 5.73294C18.0867 5.772 18.0257 5.8636 18.0257 5.96516C18.0257 6.06803 17.9631 6.16053 17.8675 6.19874L16.9946 6.54791C16.5965 6.70714 16.3355 7.09268 16.3355 7.52142V7.86721C16.3355 8.0871 16.2016 8.28483 15.9975 8.3665C15.7933 8.44816 15.6594 8.6459 15.6594 8.86578V9.55738C15.6594 9.77726 15.5256 9.975 15.3214 10.0567C15.1173 10.1383 14.9834 10.3361 14.9834 10.5559V11.2475C14.9834 11.4674 14.8495 11.6652 14.6454 11.7468C14.4412 11.8285 14.3073 12.0262 14.3073 12.2461V12.3992C14.3073 12.9514 14.8751 13.3212 15.3801 13.0979L17.535 12.1451C17.6401 12.0986 17.7144 12.002 17.7322 11.8885L17.8925 10.8694C17.9214 10.6861 18.0413 10.53 18.2111 10.4549C18.3162 10.4085 18.3905 10.3118 18.4083 10.1983L18.5686 9.17927C18.5974 8.99595 18.7174 8.83982 18.8871 8.76478C18.9922 8.71831 19.0665 8.62165 19.0844 8.50814L19.2447 7.48911Z" fill="white" stroke="white"/>
</mask>
<g mask="url(#mask2_3_29840)">
<g opacity="0.1">
<path fill-rule="evenodd" clip-rule="evenodd" d="M13.5265 4.09012C11.6701 3.01832 9.38292 3.01832 7.52652 4.09012L6.1917 4.86078C4.33529 5.93257 3.1917 7.91333 3.1917 10.0569V11.5982C3.1917 13.7418 4.33529 15.7226 6.1917 16.7944L7.52652 17.565C9.38292 18.6368 11.6701 18.6368 13.5265 17.565L14.8613 16.7944C16.7177 15.7226 17.8613 13.7418 17.8613 11.5982V10.0569C17.8613 7.91333 16.7177 5.93257 14.8613 4.86078L13.5265 4.09012Z" fill="black" style="mix-blend-mode:multiply"/>
</g>
</g>
<path fill-rule="evenodd" clip-rule="evenodd" d="M4.44249 12.8535L3.56434 13.2926C3.26788 13.4408 3.06413 13.7263 3.02032 14.0549L2.91256 14.8631C2.84692 15.3554 3.37373 15.7097 3.80498 15.4633L5.11856 14.7127L4.44249 12.8535Z" fill="url(#paint16_linear_3_29840)" stroke="url(#paint17_linear_3_29840)" stroke-linecap="round" stroke-linejoin="round"/>
<path fill-rule="evenodd" clip-rule="evenodd" d="M16.6116 12.8535L17.4897 13.2926C17.7862 13.4408 17.99 13.7263 18.0338 14.0549L18.1415 14.8631C18.2072 15.3554 17.6804 15.7097 17.2491 15.4633L15.9355 14.7127L16.6116 12.8535Z" fill="url(#paint18_linear_3_29840)" stroke="url(#paint19_linear_3_29840)" stroke-linecap="round" stroke-linejoin="round"/>
<path d="M10.2856 3.03223C10.4188 2.95736 10.5777 2.94774 10.7173 3.00391L10.7759 3.03223L10.9497 3.13086C11.3976 3.38344 11.2188 4.06637 10.7046 4.06641H10.356C9.87372 4.0662 9.68669 3.46547 10.0347 3.18262L10.1108 3.12988L10.2856 3.03223Z" fill="url(#paint20_linear_3_29840)" stroke="url(#paint21_linear_3_29840)" stroke-linecap="round" stroke-linejoin="round"/>
<g filter="url(#filter5_i_3_29840)">
<path fill-rule="evenodd" clip-rule="evenodd" d="M16.6116 15.238C16.6116 15.5624 16.4385 15.8621 16.1576 16.0243L13.527 17.5431C11.6706 18.6149 9.38338 18.6149 7.52697 17.5431L4.89636 16.0243C4.61544 15.8621 4.44238 15.5624 4.44238 15.238C4.44238 14.5381 5.20082 14.1014 5.80611 14.4527L7.7158 15.5612C9.45411 16.5701 11.5998 16.5701 13.3382 15.5612L15.2478 14.4527C15.8531 14.1014 16.6116 14.5381 16.6116 15.238Z" fill="url(#paint22_linear_3_29840)"/>
</g>
<path d="M15.499 14.8848C15.7709 14.7273 16.1113 14.924 16.1113 15.2383C16.1113 15.3473 16.0679 15.45 15.9932 15.5254L15.9072 15.5908L13.2773 17.1104C11.6821 18.0314 9.73926 18.089 8.10059 17.2832L7.77734 17.1104L5.14648 15.5908C5.02041 15.518 4.94248 15.3839 4.94238 15.2383C4.94238 14.9437 5.24152 14.7525 5.50293 14.8594L5.55469 14.8848L7.46484 15.9932C9.24015 17.0236 11.4055 17.0883 13.2295 16.1865L13.5889 15.9932L15.499 14.8848Z" stroke="url(#paint23_linear_3_29840)" stroke-linecap="round" stroke-linejoin="round"/>
<mask id="path-26-inside-1_3_29840" fill="white">
<path fill-rule="evenodd" clip-rule="evenodd" d="M8.72755 5.37525L6.62458 6.77693C5.98084 7.206 5.11865 6.74452 5.11865 5.97088C5.11865 5.62632 5.30168 5.3077 5.59932 5.13411L7.8359 3.82972C8.42512 3.48608 9.16379 3.90485 9.17576 4.58274C9.17596 4.5909 9.17606 4.59911 9.17606 4.60737C9.17606 4.90192 9.02884 5.17699 8.78374 5.34035C8.76508 5.35278 8.74635 5.36441 8.72755 5.37525Z"/>
</mask>
<path fill-rule="evenodd" clip-rule="evenodd" d="M8.72755 5.37525L6.62458 6.77693C5.98084 7.206 5.11865 6.74452 5.11865 5.97088C5.11865 5.62632 5.30168 5.3077 5.59932 5.13411L7.8359 3.82972C8.42512 3.48608 9.16379 3.90485 9.17576 4.58274C9.17596 4.5909 9.17606 4.59911 9.17606 4.60737C9.17606 4.90192 9.02884 5.17699 8.78374 5.34035C8.76508 5.35278 8.74635 5.36441 8.72755 5.37525Z" fill="url(#paint24_linear_3_29840)"/>
<path d="M8.72755 5.37525L8.22802 4.50895C8.20929 4.51975 8.19092 4.53115 8.17294 4.54314L8.72755 5.37525ZM6.62458 6.77693L7.1792 7.60903L6.62458 6.77693ZM5.59932 5.13411L6.10311 5.99794H6.10311L5.59932 5.13411ZM7.8359 3.82972L8.33969 4.69354L8.33969 4.69354L7.8359 3.82972ZM9.17576 4.58274L8.17589 4.60039L8.17606 4.60739L9.17576 4.58274ZM8.78374 5.34035L8.22912 4.50825L8.22911 4.50825L8.78374 5.34035ZM8.17294 4.54314L6.06997 5.94482L7.1792 7.60903L9.28217 6.20735L8.17294 4.54314ZM6.06997 5.94482C6.06734 5.94658 6.06862 5.94531 6.07357 5.94374C6.07832 5.94224 6.0836 5.94136 6.08861 5.94122C6.09797 5.94094 6.10191 5.94317 6.10211 5.94327C6.10231 5.94338 6.10635 5.94543 6.11131 5.95337C6.11397 5.95762 6.11617 5.9625 6.11755 5.96728C6.119 5.97228 6.11865 5.97404 6.11865 5.97088H4.11865C4.11865 7.54317 5.87089 8.48106 7.1792 7.60903L6.06997 5.94482ZM6.11865 5.97088C6.11865 5.98202 6.11274 5.99232 6.10311 5.99794L5.09553 4.27028C4.49063 4.62307 4.11865 5.27062 4.11865 5.97088H6.11865ZM6.10311 5.99794L8.33969 4.69354L7.33211 2.96589L5.09553 4.27029L6.10311 5.99794ZM8.33969 4.69354C8.32847 4.70009 8.30712 4.70728 8.28212 4.70702C8.26012 4.7068 8.24323 4.70104 8.2312 4.69426C8.21922 4.6875 8.20578 4.67621 8.19439 4.65783C8.18144 4.63694 8.17617 4.61473 8.17592 4.60039L10.1756 4.56509C10.1502 3.12542 8.58296 2.23638 7.33211 2.96589L8.33969 4.69354ZM8.17606 4.60739L8.17606 4.60737H10.1761C10.1761 4.59091 10.1759 4.57448 10.1755 4.55809L8.17606 4.60739ZM8.17606 4.60737C8.17606 4.56754 8.19597 4.53034 8.22912 4.50825L9.33835 6.17246C9.8617 5.82363 10.1761 5.23631 10.1761 4.60737H8.17606ZM8.22911 4.50825C8.22823 4.50884 8.22785 4.50905 8.22802 4.50895L9.22709 6.24154C9.26485 6.21977 9.30194 6.19673 9.33836 6.17246L8.22911 4.50825Z" fill="url(#paint25_linear_3_29840)" mask="url(#path-26-inside-1_3_29840)"/>
<mask id="path-28-inside-2_3_29840" fill="white">
<path fill-rule="evenodd" clip-rule="evenodd" d="M11.8792 4.58272C11.879 4.59089 11.8789 4.5991 11.8789 4.60737C11.8789 4.90192 12.0261 5.17699 12.2712 5.34035C12.2899 5.35278 12.3086 5.36441 12.3274 5.37525L14.4304 6.77693C15.0741 7.206 15.9363 6.74452 15.9363 5.97088C15.9363 5.62632 15.7533 5.3077 15.4556 5.13411L13.2191 3.82972C12.6299 3.48608 11.8912 3.90484 11.8792 4.58272Z"/>
</mask>
<path fill-rule="evenodd" clip-rule="evenodd" d="M11.8792 4.58272C11.879 4.59089 11.8789 4.5991 11.8789 4.60737C11.8789 4.90192 12.0261 5.17699 12.2712 5.34035C12.2899 5.35278 12.3086 5.36441 12.3274 5.37525L14.4304 6.77693C15.0741 7.206 15.9363 6.74452 15.9363 5.97088C15.9363 5.62632 15.7533 5.3077 15.4556 5.13411L13.2191 3.82972C12.6299 3.48608 11.8912 3.90484 11.8792 4.58272Z" fill="url(#paint26_linear_3_29840)"/>
<path d="M11.8792 4.58272L12.8789 4.60741L12.8791 4.6004L11.8792 4.58272ZM12.2712 5.34035L11.7166 6.17246L11.7166 6.17246L12.2712 5.34035ZM12.3274 5.37525L12.882 4.54314C12.864 4.53115 12.8457 4.51975 12.827 4.50896L12.3274 5.37525ZM14.4304 6.77693L13.8758 7.60903L14.4304 6.77693ZM15.4556 5.13411L14.9519 5.99794L15.4556 5.13411ZM13.2191 3.82972L13.7229 2.96589L13.2191 3.82972ZM10.8795 4.55803C10.8791 4.57446 10.8789 4.59091 10.8789 4.60737H12.8789L12.8789 4.60741L10.8795 4.55803ZM10.8789 4.60737C10.8789 5.23631 11.1933 5.82363 11.7166 6.17246L12.8259 4.50825C12.859 4.53034 12.8789 4.56754 12.8789 4.60737H10.8789ZM11.7166 6.17246C11.753 6.19672 11.7901 6.21977 11.8279 6.24154L12.827 4.50896C12.8271 4.50905 12.8267 4.50884 12.8259 4.50825L11.7166 6.17246ZM11.7728 6.20735L13.8758 7.60903L14.985 5.94482L12.882 4.54314L11.7728 6.20735ZM13.8758 7.60903C15.1841 8.48106 16.9363 7.54317 16.9363 5.97088H14.9363C14.9363 5.97404 14.936 5.97228 14.9374 5.96728C14.9388 5.9625 14.941 5.95762 14.9437 5.95337C14.9486 5.94543 14.9527 5.94338 14.9529 5.94327C14.9531 5.94317 14.957 5.94094 14.9664 5.94122C14.9714 5.94136 14.9767 5.94224 14.9814 5.94374C14.9864 5.94531 14.9876 5.94658 14.985 5.94482L13.8758 7.60903ZM16.9363 5.97088C16.9363 5.27062 16.5643 4.62307 15.9594 4.27028L14.9519 5.99794C14.9422 5.99232 14.9363 5.98202 14.9363 5.97088H16.9363ZM15.9594 4.27029L13.7229 2.96589L12.7153 4.69354L14.9519 5.99794L15.9594 4.27029ZM13.7229 2.96589C12.472 2.23639 10.9048 3.12541 10.8794 4.56505L12.8791 4.6004C12.8788 4.61473 12.8735 4.63695 12.8606 4.65783C12.8492 4.67621 12.8357 4.6875 12.8238 4.69426C12.8117 4.70104 12.7948 4.7068 12.7729 4.70702C12.7478 4.70728 12.7265 4.70009 12.7153 4.69354L13.7229 2.96589Z" fill="url(#paint27_linear_3_29840)" mask="url(#path-28-inside-2_3_29840)"/>
<path fill-rule="evenodd" clip-rule="evenodd" d="M8.5272 4.20548C9.7648 3.49095 11.2896 3.49095 12.5272 4.20548L15.2603 5.78346C16.4979 6.49799 17.2603 7.8185 17.2603 9.24756V12.4035C17.2603 13.8326 16.4979 15.1531 15.2603 15.8676L12.5272 17.4456C11.2896 18.1601 9.7648 18.1601 8.5272 17.4456L5.79406 15.8676C4.55646 15.1531 3.79406 13.8326 3.79406 12.4035V9.24756C3.79406 7.8185 4.55646 6.49799 5.79406 5.78346L8.5272 4.20548Z" fill="url(#paint28_linear_3_29840)" stroke="#FFF04D" stroke-opacity="0.4"/>
<mask id="mask3_3_29840" style="mask-type:luminance" maskUnits="userSpaceOnUse" x="3" y="3" width="15" height="15">
<path fill-rule="evenodd" clip-rule="evenodd" d="M8.5272 4.20548C9.7648 3.49095 11.2896 3.49095 12.5272 4.20548L15.2603 5.78346C16.4979 6.49799 17.2603 7.8185 17.2603 9.24756V12.4035C17.2603 13.8326 16.4979 15.1531 15.2603 15.8676L12.5272 17.4456C11.2896 18.1601 9.7648 18.1601 8.5272 17.4456L5.79406 15.8676C4.55646 15.1531 3.79406 13.8326 3.79406 12.4035V9.24756C3.79406 7.8185 4.55646 6.49799 5.79406 5.78346L8.5272 4.20548Z" fill="white"/>
</mask>
<g mask="url(#mask3_3_29840)">
<g style="mix-blend-mode:multiply" opacity="0.4">
<path d="M10.5273 10.8257L12.5555 2.71289H8.49914L10.5273 10.8257L6.2249 3.65492L3.35659 6.52322L10.5273 10.8257L2.41455 8.79748V12.8539L10.5273 10.8257L3.3566 15.1281L6.2249 17.9964L10.5273 10.8257L8.49914 18.9385H12.5555L10.5273 10.8257L14.8298 17.9964L17.6981 15.1281L10.5273 10.8257L18.6401 12.8539V8.79748L10.5273 10.8257L17.6981 6.52323L14.8298 3.65492L10.5273 10.8257Z" fill="#FFD640"/>
</g>
<g filter="url(#filter6_di_3_29840)">
<path fill-rule="evenodd" clip-rule="evenodd" d="M15.8242 7.17468L11.0396 4.40901C10.7223 4.22564 10.3315 4.22564 10.0143 4.40901L5.22961 7.17468C4.91238 7.35805 4.71697 7.69692 4.71697 8.06365V10.0617L4.57341 10.2773C4.34988 10.613 4.34988 11.0501 4.57341 11.3858L4.71697 11.6013V13.595C4.71697 13.9617 4.91238 14.3006 5.22961 14.484L10.0143 17.2496C10.3315 17.433 10.7223 17.433 11.0396 17.2496L15.8242 14.484C16.1414 14.3006 16.3369 13.9617 16.3369 13.595V11.6011L16.4803 11.3858C16.7038 11.0501 16.7038 10.613 16.4803 10.2773L16.3369 10.0619V8.06365C16.3369 7.69692 16.1414 7.35805 15.8242 7.17468ZM5.05877 11.6014V13.5956C5.05877 13.8401 5.18904 14.066 5.40053 14.1882L10.1852 16.9539C10.3967 17.0762 10.6572 17.0762 10.8687 16.9539L15.6534 14.1882C15.8649 14.066 15.9951 13.8401 15.9951 13.5956V11.6017L15.8514 11.3858C15.6278 11.0501 15.6278 10.613 15.8514 10.2773L15.9951 10.0614V8.06426C15.9951 7.81977 15.8649 7.59386 15.6534 7.47161L10.8687 4.70594C10.6572 4.5837 10.3967 4.5837 10.1852 4.70594L5.40053 7.47161C5.18904 7.59386 5.05877 7.81977 5.05877 8.06426V10.0617L5.20233 10.2773C5.42586 10.613 5.42586 11.0501 5.20233 11.3858L5.05877 11.6014Z" fill="#676763"/>
</g>
<mask id="mask4_3_29840" style="mask-type:luminance" maskUnits="userSpaceOnUse" x="4" y="4" width="13" height="14">
<path fill-rule="evenodd" clip-rule="evenodd" d="M15.8242 7.17468L11.0396 4.40901C10.7223 4.22564 10.3315 4.22564 10.0143 4.40901L5.22961 7.17468C4.91238 7.35805 4.71697 7.69692 4.71697 8.06365V10.0617L4.57341 10.2773C4.34988 10.613 4.34988 11.0501 4.57341 11.3858L4.71697 11.6013V13.595C4.71697 13.9617 4.91238 14.3006 5.22961 14.484L10.0143 17.2496C10.3315 17.433 10.7223 17.433 11.0396 17.2496L15.8242 14.484C16.1414 14.3006 16.3369 13.9617 16.3369 13.595V11.6011L16.4803 11.3858C16.7038 11.0501 16.7038 10.613 16.4803 10.2773L16.3369 10.0619V8.06365C16.3369 7.69692 16.1414 7.35805 15.8242 7.17468ZM5.05877 11.6014V13.5956C5.05877 13.8401 5.18904 14.066 5.40053 14.1882L10.1852 16.9539C10.3967 17.0762 10.6572 17.0762 10.8687 16.9539L15.6534 14.1882C15.8649 14.066 15.9951 13.8401 15.9951 13.5956V11.6017L15.8514 11.3858C15.6278 11.0501 15.6278 10.613 15.8514 10.2773L15.9951 10.0614V8.06426C15.9951 7.81977 15.8649 7.59386 15.6534 7.47161L10.8687 4.70594C10.6572 4.5837 10.3967 4.5837 10.1852 4.70594L5.40053 7.47161C5.18904 7.59386 5.05877 7.81977 5.05877 8.06426V10.0617L5.20233 10.2773C5.42586 10.613 5.42586 11.0501 5.20233 11.3858L5.05877 11.6014Z" fill="white"/>
</mask>
<g mask="url(#mask4_3_29840)">
<g style="mix-blend-mode:multiply" opacity="0.4">
<path fill-rule="evenodd" clip-rule="evenodd" d="M10.5269 10.8276L2.41406 8.79944V12.8558L10.5269 10.8276ZM10.5269 10.8276L12.555 2.71484H8.49865L10.5269 10.8276ZM10.5269 10.8276L18.6396 12.8558V8.79944L10.5269 10.8276ZM10.5269 10.8276L14.8293 3.65687L17.6976 6.52518L10.5269 10.8276ZM10.5269 10.8276L17.6976 15.1301L14.8293 17.9984L10.5269 10.8276ZM10.5269 10.8276L6.2244 17.9984L3.35609 15.1301L10.5269 10.8276ZM10.5269 10.8276L12.555 18.9404H8.49865L10.5269 10.8276Z" fill="#5A5951"/>
<path d="M6.2244 3.65687L3.35609 6.52518L10.5269 10.8276L6.2244 3.65687Z" fill="#5A5951"/>
</g>
</g>
<path d="M11.1186 3.58624C10.7525 3.3749 10.3015 3.3749 9.93545 3.58624L4.55445 6.69297C4.18839 6.90431 3.96289 7.29489 3.96289 7.71757L3.96289 13.931C3.96289 14.3537 4.18839 14.7443 4.55445 14.9556L9.93545 18.0624C10.3015 18.2737 10.7525 18.2737 11.1186 18.0624L16.4996 14.9556C16.8656 14.7443 17.0911 14.3537 17.0911 13.931V7.71757C17.0911 7.29489 16.8656 6.90431 16.4996 6.69297L11.1186 3.58624Z" stroke="#FAB90A"/>
<path opacity="0.4" d="M11.1187 18.0638C11.7515 17.6984 12.1999 17.4395 12.4639 17.2871" stroke="white" stroke-linecap="round"/>
<path d="M17.0911 13.931V7.71757C17.0911 7.29489 16.8656 6.90431 16.4996 6.69297L11.1186 3.58624C10.7525 3.3749 10.3015 3.3749 9.93545 3.58624L4.55445 6.69297C4.18839 6.90431 3.96289 7.29489 3.96289 7.71757L3.96289 13.931" stroke="#FAC81C" stroke-linecap="round"/>
<path opacity="0.6" d="M17.0911 7.71757C17.0911 7.29489 16.8656 6.90431 16.4996 6.69297L11.1186 3.58624C10.7525 3.3749 10.3015 3.3749 9.93545 3.58624L4.55445 6.69297C4.18839 6.90431 3.96289 7.29489 3.96289 7.71757" stroke="#FFE56A" stroke-linecap="round"/>
<path opacity="0.6" d="M11.1187 3.58624C10.7527 3.3749 10.3017 3.3749 9.93562 3.58624C9.93562 3.58624 8.14195 4.62182 7.24512 5.1396" stroke="white" stroke-linecap="round"/>
<path d="M9.93558 3.58789C9.93558 3.58789 8.9863 4.13596 8.59033 4.36457" stroke="white" stroke-linecap="round"/>
</g>
<g filter="url(#filter7_d_3_29840)">
<path fill-rule="evenodd" clip-rule="evenodd" d="M9.52669 5.99532C10.1455 5.63805 10.9079 5.63805 11.5267 5.99532L14.2106 7.54488C14.8294 7.90215 15.2106 8.5624 15.2106 9.27693V12.3761C15.2106 13.0906 14.8294 13.7508 14.2106 14.1081L11.5267 15.6577C10.9079 16.0149 10.1455 16.0149 9.52669 15.6577L6.84277 14.1081C6.22397 13.7508 5.84277 13.0906 5.84277 12.3761V9.27693C5.84277 8.5624 6.22397 7.90215 6.84277 7.54488L9.52669 5.99532Z" fill="url(#paint29_linear_3_29840)"/>
<path d="M9.42383 5.4834C10.1686 5.11721 11.0513 5.14396 11.7764 5.5625L14.4609 7.1123L14.6025 7.2002C15.292 7.66214 15.7109 8.44016 15.7109 9.27734V12.376C15.7109 13.2132 15.2921 13.9912 14.6025 14.4531L14.4609 14.541L11.7764 16.0908C11.0513 16.5093 10.1686 16.5352 9.42383 16.1689L9.27637 16.0908L6.59277 14.541C5.8193 14.0944 5.34277 13.2691 5.34277 12.376V9.27734L5.34863 9.11035C5.40381 8.28217 5.86772 7.531 6.59277 7.1123L9.27637 5.5625L9.42383 5.4834Z" stroke="#F5900D" stroke-opacity="0.1" style="mix-blend-mode:multiply"/>
</g>
<mask id="mask5_3_29840" style="mask-type:luminance" maskUnits="userSpaceOnUse" x="5" y="5" width="11" height="11">
<path fill-rule="evenodd" clip-rule="evenodd" d="M9.52669 5.99532C10.1455 5.63805 10.9079 5.63805 11.5267 5.99532L14.2106 7.54488C14.8294 7.90215 15.2106 8.5624 15.2106 9.27693V12.3761C15.2106 13.0906 14.8294 13.7508 14.2106 14.1081L11.5267 15.6577C10.9079 16.0149 10.1455 16.0149 9.52669 15.6577L6.84277 14.1081C6.22397 13.7508 5.84277 13.0906 5.84277 12.3761V9.27693C5.84277 8.5624 6.22397 7.90215 6.84277 7.54488L9.52669 5.99532Z" fill="white"/>
</mask>
<g mask="url(#mask5_3_29840)">
<g style="mix-blend-mode:multiply" opacity="0.3">
<path fill-rule="evenodd" clip-rule="evenodd" d="M10.5267 10.8265L5.11816 12.1786V9.47436L10.5267 10.8265ZM10.5267 10.8265L11.8788 5.41797H9.17456L10.5267 10.8265ZM10.5267 10.8265L15.9352 9.47436V12.1786L10.5267 10.8265ZM10.5267 10.8265L13.395 6.04599L15.3072 7.95819L10.5267 10.8265ZM10.5267 10.8265L13.395 15.607L15.3072 13.6948L10.5267 10.8265ZM10.5267 10.8265L9.17456 16.235H11.8788L10.5267 10.8265ZM10.5267 10.8265L7.65839 15.607L5.74618 13.6948L10.5267 10.8265Z" fill="#FFD640"/>
<path d="M7.65839 6.04599L5.74618 7.95819L10.5267 10.8265L7.65839 6.04599Z" fill="#FFD640"/>
</g>
<path opacity="0.4" d="M14.788 8.07523L10.7801 5.76129C10.6233 5.67072 10.43 5.67072 10.2731 5.76129C9.80174 6.03343 9.46775 6.22626 9.27113 6.33978C8.86195 6.57602 8.52796 6.76885 8.26917 6.91826C7.82385 7.17536 7.15588 7.56102 6.26524 8.07523" stroke="white" stroke-linecap="round"/>
<path d="M10.273 5.75977C9.8016 6.03191 9.46761 6.22473 9.271 6.33825" stroke="white" stroke-linecap="round"/>
<path opacity="0.4" d="M14.7879 13.5654L10.78 15.8793C10.6231 15.9699 10.4298 15.9699 10.2729 15.8793" stroke="white" stroke-linecap="round"/>
</g>
<g filter="url(#filter8_d_3_29840)">
<mask id="path-49-outside-3_3_29840" maskUnits="userSpaceOnUse" x="6.48486" y="7.72852" width="9" height="7" fill="black">
<rect fill="white" x="6.48486" y="7.72852" width="9" height="7"/>
<path fill-rule="evenodd" clip-rule="evenodd" d="M7.48486 10.485L8.49896 8.72852H12.5554L13.5695 10.485H7.48486ZM10.5272 13.5275L13.5695 10.4852H7.48486L10.5272 13.5275Z"/>
</mask>
<path fill-rule="evenodd" clip-rule="evenodd" d="M7.48486 10.485L8.49896 8.72852H12.5554L13.5695 10.485H7.48486ZM10.5272 13.5275L13.5695 10.4852H7.48486L10.5272 13.5275Z" fill="white"/>
<path d="M8.49896 8.72852V7.72852C8.1417 7.72852 7.81157 7.91911 7.63294 8.22852L8.49896 8.72852ZM7.48486 10.485L6.61884 9.98499C6.44021 10.2944 6.44021 10.6756 6.61884 10.985C6.79747 11.2944 7.1276 11.485 7.48486 11.485V10.485ZM12.5554 8.72852L13.4214 8.22852C13.2427 7.91911 12.9126 7.72852 12.5554 7.72852V8.72852ZM13.5695 10.485V11.485C13.9267 11.485 14.2568 11.2944 14.4355 10.985C14.6141 10.6756 14.6141 10.2944 14.4355 9.98499L13.5695 10.485ZM13.5695 10.4852L14.2766 11.1923C14.5626 10.9063 14.6481 10.4762 14.4933 10.1026C14.3386 9.72888 13.9739 9.48523 13.5695 9.48523V10.4852ZM10.5272 13.5275L9.82005 14.2346C10.2106 14.6252 10.8437 14.6252 11.2343 14.2346L10.5272 13.5275ZM7.48486 10.4852V9.48523C7.0804 9.48523 6.71576 9.72888 6.56098 10.1026C6.4062 10.4762 6.49176 10.9063 6.77776 11.1923L7.48486 10.4852ZM7.63294 8.22852L6.61884 9.98499L8.35089 10.985L9.36499 9.22852L7.63294 8.22852ZM12.5554 7.72852H8.49896V9.72852H12.5554V7.72852ZM14.4355 9.98499L13.4214 8.22852L11.6893 9.22852L12.7034 10.985L14.4355 9.98499ZM7.48486 11.485H13.5695V9.48499H7.48486V11.485ZM12.8623 9.77813L9.82005 12.8204L11.2343 14.2346L14.2766 11.1923L12.8623 9.77813ZM7.48486 11.4852H13.5695V9.48523H7.48486V11.4852ZM11.2343 12.8204L8.19197 9.77813L6.77776 11.1923L9.82005 14.2346L11.2343 12.8204Z" fill="white" mask="url(#path-49-outside-3_3_29840)"/>
</g>
<path fill-rule="evenodd" clip-rule="evenodd" d="M10.5267 13.5345L13.569 10.4922H7.48438L10.5267 13.5345Z" fill="url(#paint30_linear_3_29840)"/>
<path fill-rule="evenodd" clip-rule="evenodd" d="M10.5268 13.5345L9.5127 10.4922H11.5409L10.5268 13.5345Z" fill="url(#paint31_linear_3_29840)"/>
<path d="M8.49847 8.73242L7.48438 10.4889H13.569L12.5549 8.73242H8.49847Z" fill="url(#paint32_linear_3_29840)"/>
<path d="M8.49847 8.73243L9.51257 10.4889H7.48438L8.49847 8.73243Z" fill="url(#paint33_linear_3_29840)"/>
<path d="M10.5268 8.73243L11.5409 10.4889H9.5127L10.5268 8.73243Z" fill="url(#paint34_linear_3_29840)"/>
<path d="M12.5551 8.73243L13.5692 10.4889H11.541L12.5551 8.73243Z" fill="url(#paint35_linear_3_29840)"/>
<g filter="url(#filter9_d_3_29840)">
<path fill-rule="evenodd" clip-rule="evenodd" d="M14.2151 8.72501L14.0396 8.65577C13.9322 8.61343 13.8795 8.49206 13.9219 8.38469C13.9431 8.33083 13.9857 8.2882 14.0396 8.26696L14.2151 8.19772C14.4176 8.11788 14.5778 7.95763 14.6577 7.75518L14.7269 7.57963C14.7693 7.47226 14.8906 7.41955 14.998 7.46189C15.0519 7.48314 15.0945 7.52577 15.1157 7.57963L15.185 7.75518C15.2648 7.95763 15.4251 8.11788 15.6275 8.19772L15.8031 8.26696C15.9104 8.3093 15.9631 8.43067 15.9208 8.53804C15.8996 8.5919 15.8569 8.63453 15.8031 8.65577L15.6275 8.72501C15.4251 8.80485 15.2648 8.9651 15.185 9.16755L15.1157 9.3431C15.0734 9.45047 14.952 9.50318 14.8447 9.46083C14.7908 9.43959 14.7482 9.39696 14.7269 9.3431L14.6577 9.16755C14.5778 8.9651 14.4176 8.80485 14.2151 8.72501Z" fill="white"/>
</g>
<g filter="url(#filter10_d_3_29840)">
<path fill-rule="evenodd" clip-rule="evenodd" d="M7.35176 14.0471L7.23473 14.001C7.16315 13.9728 7.12801 13.8918 7.15624 13.8203C7.1704 13.7844 7.19882 13.7559 7.23473 13.7418L7.35176 13.6956C7.48673 13.6424 7.59356 13.5356 7.64679 13.4006L7.69295 13.2836C7.72118 13.212 7.80209 13.1768 7.87367 13.2051C7.90957 13.2192 7.93799 13.2476 7.95215 13.2836L7.99831 13.4006C8.05154 13.5356 8.15838 13.6424 8.29334 13.6956L8.41037 13.7418C8.48195 13.77 8.51709 13.8509 8.48886 13.9225C8.4747 13.9584 8.44628 13.9868 8.41037 14.001L8.29334 14.0471C8.15838 14.1004 8.05154 14.2072 7.99831 14.3422L7.95215 14.4592C7.92392 14.5308 7.84301 14.5659 7.77143 14.5377C7.73553 14.5235 7.70711 14.4951 7.69295 14.4592L7.64679 14.3422C7.59356 14.2072 7.48673 14.1004 7.35176 14.0471Z" fill="white"/>
</g>
<g filter="url(#filter11_d_3_29840)">
<path fill-rule="evenodd" clip-rule="evenodd" d="M5.37476 9.18978L5.22847 9.13209C5.13899 9.0968 5.09507 8.99566 5.13036 8.90619C5.14806 8.86131 5.18358 8.82578 5.22847 8.80808L5.37476 8.75038C5.54346 8.68384 5.67701 8.5503 5.74354 8.3816L5.80124 8.2353C5.83653 8.14583 5.93767 8.1019 6.02714 8.13719C6.07202 8.15489 6.10755 8.19042 6.12525 8.2353L6.18295 8.3816C6.24948 8.5503 6.38303 8.68384 6.55173 8.75038L6.69803 8.80808C6.7875 8.84336 6.83142 8.9445 6.79614 9.03398C6.77844 9.07886 6.74291 9.11439 6.69803 9.13209L6.55173 9.18978C6.38303 9.25632 6.24948 9.38986 6.18295 9.55857L6.12525 9.70486C6.08996 9.79433 5.98883 9.83826 5.89935 9.80297C5.85447 9.78527 5.81894 9.74974 5.80124 9.70486L5.74354 9.55857C5.67701 9.38986 5.54346 9.25632 5.37476 9.18978Z" fill="white"/>
</g>
<g filter="url(#filter12_d_3_29840)">
<path fill-rule="evenodd" clip-rule="evenodd" d="M14.0612 14.1701L13.9734 14.1355C13.9197 14.1143 13.8934 14.0536 13.9145 14C13.9252 13.973 13.9465 13.9517 13.9734 13.9411L14.0612 13.9065C14.1624 13.8666 14.2425 13.7864 14.2825 13.6852L14.3171 13.5974C14.3382 13.5437 14.3989 13.5174 14.4526 13.5386C14.4795 13.5492 14.5009 13.5705 14.5115 13.5974L14.5461 13.6852C14.586 13.7864 14.6661 13.8666 14.7674 13.9065L14.8551 13.9411C14.9088 13.9623 14.9352 14.023 14.914 14.0766C14.9034 14.1036 14.8821 14.1249 14.8551 14.1355L14.7674 14.1701C14.6661 14.21 14.586 14.2902 14.5461 14.3914L14.5115 14.4792C14.4903 14.5329 14.4296 14.5592 14.3759 14.538C14.349 14.5274 14.3277 14.5061 14.3171 14.4792L14.2825 14.3914C14.2425 14.2902 14.1624 14.21 14.0612 14.1701Z" fill="white"/>
</g>
<g filter="url(#filter13_d_3_29840)">
<path fill-rule="evenodd" clip-rule="evenodd" d="M12.6573 10.5783L12.5988 10.5552C12.563 10.5411 12.5454 10.5006 12.5596 10.4648C12.5666 10.4469 12.5809 10.4327 12.5988 10.4256L12.6573 10.4025C12.7248 10.3759 12.7782 10.3225 12.8048 10.255L12.8279 10.1965C12.842 10.1607 12.8825 10.1431 12.9183 10.1572C12.9362 10.1643 12.9504 10.1785 12.9575 10.1965L12.9806 10.255C13.0072 10.3225 13.0606 10.3759 13.1281 10.4025L13.1866 10.4256C13.2224 10.4397 13.24 10.4801 13.2259 10.5159C13.2188 10.5339 13.2046 10.5481 13.1866 10.5552L13.1281 10.5783C13.0606 10.6049 13.0072 10.6583 12.9806 10.7258L12.9575 10.7843C12.9434 10.8201 12.903 10.8376 12.8672 10.8235C12.8492 10.8165 12.835 10.8022 12.8279 10.7843L12.8048 10.7258C12.7782 10.6583 12.7248 10.6049 12.6573 10.5783Z" fill="white"/>
</g>
<defs>
<filter id="filter0_d_3_29840" x="3.11816" y="9.81445" width="9.40869" height="14.2012" filterUnits="userSpaceOnUse" color-interpolation-filters="sRGB">
<feFlood flood-opacity="0" result="BackgroundImageFix"/>
<feColorMatrix in="SourceAlpha" type="matrix" values="0 0 0 0 0 0 0 0 0 0 0 0 0 0 0 0 0 0 127 0" result="hardAlpha"/>
<feOffset dy="2"/>
<feGaussianBlur stdDeviation="1"/>
<feColorMatrix type="matrix" values="0 0 0 0 0.61352 0 0 0 0 0.61352 0 0 0 0 0.61352 0 0 0 0.2 0"/>
<feBlend mode="darken" in2="BackgroundImageFix" result="effect1_dropShadow_3_29840"/>
<feBlend mode="normal" in="SourceGraphic" in2="effect1_dropShadow_3_29840" result="shape"/>
</filter>
<filter id="filter1_d_3_29840" x="4.47021" y="10.8301" width="9.40869" height="14.2012" filterUnits="userSpaceOnUse" color-interpolation-filters="sRGB">
<feFlood flood-opacity="0" result="BackgroundImageFix"/>
<feColorMatrix in="SourceAlpha" type="matrix" values="0 0 0 0 0 0 0 0 0 0 0 0 0 0 0 0 0 0 127 0" result="hardAlpha"/>
<feOffset dy="2"/>
<feGaussianBlur stdDeviation="1"/>
<feColorMatrix type="matrix" values="0 0 0 0 0.61352 0 0 0 0 0.61352 0 0 0 0 0.61352 0 0 0 0.2 0"/>
<feBlend mode="darken" in2="BackgroundImageFix" result="effect1_dropShadow_3_29840"/>
<feBlend mode="normal" in="SourceGraphic" in2="effect1_dropShadow_3_29840" result="shape"/>
</filter>
<filter id="filter2_d_3_29840" x="8.52686" y="9.81445" width="9.40869" height="14.2012" filterUnits="userSpaceOnUse" color-interpolation-filters="sRGB">
<feFlood flood-opacity="0" result="BackgroundImageFix"/>
<feColorMatrix in="SourceAlpha" type="matrix" values="0 0 0 0 0 0 0 0 0 0 0 0 0 0 0 0 0 0 127 0" result="hardAlpha"/>
<feOffset dy="2"/>
<feGaussianBlur stdDeviation="1"/>
<feColorMatrix type="matrix" values="0 0 0 0 0.61352 0 0 0 0 0.61352 0 0 0 0 0.61352 0 0 0 0.2 0"/>
<feBlend mode="darken" in2="BackgroundImageFix" result="effect1_dropShadow_3_29840"/>
<feBlend mode="normal" in="SourceGraphic" in2="effect1_dropShadow_3_29840" result="shape"/>
</filter>
<filter id="filter3_d_3_29840" x="7.17432" y="10.8301" width="9.40869" height="14.2012" filterUnits="userSpaceOnUse" color-interpolation-filters="sRGB">
<feFlood flood-opacity="0" result="BackgroundImageFix"/>
<feColorMatrix in="SourceAlpha" type="matrix" values="0 0 0 0 0 0 0 0 0 0 0 0 0 0 0 0 0 0 127 0" result="hardAlpha"/>
<feOffset dy="2"/>
<feGaussianBlur stdDeviation="1"/>
<feColorMatrix type="matrix" values="0 0 0 0 0.61352 0 0 0 0 0.61352 0 0 0 0 0.61352 0 0 0 0.2 0"/>
<feBlend mode="darken" in2="BackgroundImageFix" result="effect1_dropShadow_3_29840"/>
<feBlend mode="normal" in="SourceGraphic" in2="effect1_dropShadow_3_29840" result="shape"/>
</filter>
<filter id="filter4_d_3_29840" x="5.82227" y="11.5059" width="9.4082" height="14.2012" filterUnits="userSpaceOnUse" color-interpolation-filters="sRGB">
<feFlood flood-opacity="0" result="BackgroundImageFix"/>
<feColorMatrix in="SourceAlpha" type="matrix" values="0 0 0 0 0 0 0 0 0 0 0 0 0 0 0 0 0 0 127 0" result="hardAlpha"/>
<feOffset dy="2"/>
<feGaussianBlur stdDeviation="1"/>
<feColorMatrix type="matrix" values="0 0 0 0 0.61352 0 0 0 0 0.61352 0 0 0 0 0.61352 0 0 0 0.2 0"/>
<feBlend mode="darken" in2="BackgroundImageFix" result="effect1_dropShadow_3_29840"/>
<feBlend mode="normal" in="SourceGraphic" in2="effect1_dropShadow_3_29840" result="shape"/>
</filter>
<filter id="filter5_i_3_29840" x="4.44238" y="14.3281" width="12.1689" height="5.01953" filterUnits="userSpaceOnUse" color-interpolation-filters="sRGB">
<feFlood flood-opacity="0" result="BackgroundImageFix"/>
<feBlend mode="normal" in="SourceGraphic" in2="BackgroundImageFix" result="shape"/>
<feColorMatrix in="SourceAlpha" type="matrix" values="0 0 0 0 0 0 0 0 0 0 0 0 0 0 0 0 0 0 127 0" result="hardAlpha"/>
<feOffset dy="1"/>
<feGaussianBlur stdDeviation="0.5"/>
<feComposite in2="hardAlpha" operator="arithmetic" k2="-1" k3="1"/>
<feColorMatrix type="matrix" values="0 0 0 0 0.929412 0 0 0 0 0.568627 0 0 0 0 0 0 0 0 0.5 0"/>
<feBlend mode="normal" in2="shape" result="effect1_innerShadow_3_29840"/>
</filter>
<filter id="filter6_di_3_29840" x="3.40576" y="3.67148" width="14.2417" height="15.1152" filterUnits="userSpaceOnUse" color-interpolation-filters="sRGB">
<feFlood flood-opacity="0" result="BackgroundImageFix"/>
<feColorMatrix in="SourceAlpha" type="matrix" values="0 0 0 0 0 0 0 0 0 0 0 0 0 0 0 0 0 0 127 0" result="hardAlpha"/>
<feOffset dy="0.4"/>
<feGaussianBlur stdDeviation="0.5"/>
<feColorMatrix type="matrix" values="0 0 0 0 1 0 0 0 0 0.909804 0 0 0 0 0.556863 0 0 0 0.4 0"/>
<feBlend mode="normal" in2="BackgroundImageFix" result="effect1_dropShadow_3_29840"/>
<feBlend mode="normal" in="SourceGraphic" in2="effect1_dropShadow_3_29840" result="shape"/>
<feColorMatrix in="SourceAlpha" type="matrix" values="0 0 0 0 0 0 0 0 0 0 0 0 0 0 0 0 0 0 127 0" result="hardAlpha"/>
<feOffset dy="1"/>
<feGaussianBlur stdDeviation="0.5"/>
<feComposite in2="hardAlpha" operator="arithmetic" k2="-1" k3="1"/>
<feColorMatrix type="matrix" values="0 0 0 0 0.31048 0 0 0 0 0.31048 0 0 0 0 0.279572 0 0 0 1 0"/>
<feBlend mode="normal" in2="shape" result="effect2_innerShadow_3_29840"/>
</filter>
<filter id="filter7_d_3_29840" x="2.84277" y="3.72656" width="15.3682" height="16.1992" filterUnits="userSpaceOnUse" color-interpolation-filters="sRGB">
<feFlood flood-opacity="0" result="BackgroundImageFix"/>
<feColorMatrix in="SourceAlpha" type="matrix" values="0 0 0 0 0 0 0 0 0 0 0 0 0 0 0 0 0 0 127 0" result="hardAlpha"/>
<feOffset dy="1"/>
<feGaussianBlur stdDeviation="1"/>
<feColorMatrix type="matrix" values="0 0 0 0 0.927721 0 0 0 0 0.665867 0 0 0 0 0.0535899 0 0 0 0.4 0"/>
<feBlend mode="normal" in2="BackgroundImageFix" result="effect1_dropShadow_3_29840"/>
<feBlend mode="normal" in="SourceGraphic" in2="effect1_dropShadow_3_29840" result="shape"/>
</filter>
<filter id="filter8_d_3_29840" x="4.48486" y="6.72852" width="12.0845" height="10.7988" filterUnits="userSpaceOnUse" color-interpolation-filters="sRGB">
<feFlood flood-opacity="0" result="BackgroundImageFix"/>
<feColorMatrix in="SourceAlpha" type="matrix" values="0 0 0 0 0 0 0 0 0 0 0 0 0 0 0 0 0 0 127 0" result="hardAlpha"/>
<feOffset dy="1"/>
<feGaussianBlur stdDeviation="1"/>
<feColorMatrix type="matrix" values="0 0 0 0 0.996078 0 0 0 0 0.733333 0 0 0 0 0.105882 0 0 0 1 0"/>
<feBlend mode="normal" in2="BackgroundImageFix" result="effect1_dropShadow_3_29840"/>
<feBlend mode="normal" in="SourceGraphic" in2="effect1_dropShadow_3_29840" result="shape"/>
</filter>
<filter id="filter9_d_3_29840" x="11.9072" y="5.44727" width="6.02832" height="6.02734" filterUnits="userSpaceOnUse" color-interpolation-filters="sRGB">
<feFlood flood-opacity="0" result="BackgroundImageFix"/>
<feColorMatrix in="SourceAlpha" type="matrix" values="0 0 0 0 0 0 0 0 0 0 0 0 0 0 0 0 0 0 127 0" result="hardAlpha"/>
<feOffset/>
<feGaussianBlur stdDeviation="1"/>
<feColorMatrix type="matrix" values="0 0 0 0 1 0 0 0 0 0.94902 0 0 0 0 0.305882 0 0 0 1 0"/>
<feBlend mode="normal" in2="BackgroundImageFix" result="effect1_dropShadow_3_29840"/>
<feBlend mode="normal" in="SourceGraphic" in2="effect1_dropShadow_3_29840" result="shape"/>
</filter>
<filter id="filter10_d_3_29840" x="5.14648" y="11.1953" width="5.35205" height="5.35156" filterUnits="userSpaceOnUse" color-interpolation-filters="sRGB">
<feFlood flood-opacity="0" result="BackgroundImageFix"/>
<feColorMatrix in="SourceAlpha" type="matrix" values="0 0 0 0 0 0 0 0 0 0 0 0 0 0 0 0 0 0 127 0" result="hardAlpha"/>
<feOffset/>
<feGaussianBlur stdDeviation="1"/>
<feColorMatrix type="matrix" values="0 0 0 0 1 0 0 0 0 0.94902 0 0 0 0 0.305882 0 0 0 1 0"/>
<feBlend mode="normal" in2="BackgroundImageFix" result="effect1_dropShadow_3_29840"/>
<feBlend mode="normal" in="SourceGraphic" in2="effect1_dropShadow_3_29840" result="shape"/>
</filter>
<filter id="filter11_d_3_29840" x="3.11816" y="6.125" width="5.68994" height="5.68945" filterUnits="userSpaceOnUse" color-interpolation-filters="sRGB">
<feFlood flood-opacity="0" result="BackgroundImageFix"/>
<feColorMatrix in="SourceAlpha" type="matrix" values="0 0 0 0 0 0 0 0 0 0 0 0 0 0 0 0 0 0 127 0" result="hardAlpha"/>
<feOffset/>
<feGaussianBlur stdDeviation="1"/>
<feColorMatrix type="matrix" values="0 0 0 0 1 0 0 0 0 0.94902 0 0 0 0 0.305882 0 0 0 1 0"/>
<feBlend mode="normal" in2="BackgroundImageFix" result="effect1_dropShadow_3_29840"/>
<feBlend mode="normal" in="SourceGraphic" in2="effect1_dropShadow_3_29840" result="shape"/>
</filter>
<filter id="filter12_d_3_29840" x="11.9072" y="11.5312" width="5.01367" height="5.01367" filterUnits="userSpaceOnUse" color-interpolation-filters="sRGB">
<feFlood flood-opacity="0" result="BackgroundImageFix"/>
<feColorMatrix in="SourceAlpha" type="matrix" values="0 0 0 0 0 0 0 0 0 0 0 0 0 0 0 0 0 0 127 0" result="hardAlpha"/>
<feOffset/>
<feGaussianBlur stdDeviation="1"/>
<feColorMatrix type="matrix" values="0 0 0 0 1 0 0 0 0 0.94902 0 0 0 0 0.305882 0 0 0 1 0"/>
<feBlend mode="normal" in2="BackgroundImageFix" result="effect1_dropShadow_3_29840"/>
<feBlend mode="normal" in="SourceGraphic" in2="effect1_dropShadow_3_29840" result="shape"/>
</filter>
<filter id="filter13_d_3_29840" x="10.5547" y="8.15234" width="4.67578" height="4.67578" filterUnits="userSpaceOnUse" color-interpolation-filters="sRGB">
<feFlood flood-opacity="0" result="BackgroundImageFix"/>
<feColorMatrix in="SourceAlpha" type="matrix" values="0 0 0 0 0 0 0 0 0 0 0 0 0 0 0 0 0 0 127 0" result="hardAlpha"/>
<feOffset/>
<feGaussianBlur stdDeviation="1"/>
<feColorMatrix type="matrix" values="0 0 0 0 1 0 0 0 0 0.94902 0 0 0 0 0.305882 0 0 0 1 0"/>
<feBlend mode="normal" in2="BackgroundImageFix" result="effect1_dropShadow_3_29840"/>
<feBlend mode="normal" in="SourceGraphic" in2="effect1_dropShadow_3_29840" result="shape"/>
</filter>
<linearGradient id="paint0_linear_3_29840" x1="0.387345" y1="5.10462" x2="0.387345" y2="13.5681" gradientUnits="userSpaceOnUse">
<stop stop-color="#75756F"/>
<stop offset="1" stop-color="#3A342A"/>
</linearGradient>
<linearGradient id="paint1_linear_3_29840" x1="3.08203" y1="10.1426" x2="3.08203" y2="13.5681" gradientUnits="userSpaceOnUse">
<stop stop-color="#FFDF6B"/>
<stop offset="1" stop-color="#F8A60A"/>
</linearGradient>
<linearGradient id="paint2_linear_3_29840" x1="-0.30163" y1="5.06875" x2="-0.30163" y2="13.556" gradientUnits="userSpaceOnUse">
<stop stop-color="#75756F"/>
<stop offset="1" stop-color="#3A342A"/>
</linearGradient>
<linearGradient id="paint3_linear_3_29840" x1="2.40576" y1="8.45312" x2="2.40576" y2="11.8787" gradientUnits="userSpaceOnUse">
<stop stop-color="#FFDF6B"/>
<stop offset="1" stop-color="#F8A60A"/>
</linearGradient>
<linearGradient id="paint4_linear_3_29840" x1="-0.997497" y1="5.0559" x2="-0.997497" y2="13.5807" gradientUnits="userSpaceOnUse">
<stop stop-color="#75756F"/>
<stop offset="1" stop-color="#3A342A"/>
</linearGradient>
<linearGradient id="paint5_linear_3_29840" x1="1.72998" y1="6.76172" x2="1.72998" y2="10.1873" gradientUnits="userSpaceOnUse">
<stop stop-color="#FFDF6B"/>
<stop offset="1" stop-color="#F8A60A"/>
</linearGradient>
<linearGradient id="paint6_linear_3_29840" x1="-1.66418" y1="5.07302" x2="-1.66418" y2="13.5802" gradientUnits="userSpaceOnUse">
<stop stop-color="#75756F"/>
<stop offset="1" stop-color="#3A342A"/>
</linearGradient>
<linearGradient id="paint7_linear_3_29840" x1="1.05389" y1="5.07302" x2="1.05389" y2="8.49856" gradientUnits="userSpaceOnUse">
<stop stop-color="#FFDF6B"/>
<stop offset="1" stop-color="#F8A60A"/>
</linearGradient>
<linearGradient id="paint8_linear_3_29840" x1="20.6664" y1="5.10853" x2="20.6664" y2="13.572" gradientUnits="userSpaceOnUse">
<stop stop-color="#75756F"/>
<stop offset="1" stop-color="#3A342A"/>
</linearGradient>
<linearGradient id="paint9_linear_3_29840" x1="17.9717" y1="10.1465" x2="17.9717" y2="13.572" gradientUnits="userSpaceOnUse">
<stop stop-color="#FFDF6B"/>
<stop offset="1" stop-color="#F8A60A"/>
</linearGradient>
<linearGradient id="paint10_linear_3_29840" x1="21.3549" y1="5.0707" x2="21.3549" y2="13.558" gradientUnits="userSpaceOnUse">
<stop stop-color="#75756F"/>
<stop offset="1" stop-color="#3A342A"/>
</linearGradient>
<linearGradient id="paint11_linear_3_29840" x1="18.6475" y1="8.45508" x2="18.6475" y2="11.8806" gradientUnits="userSpaceOnUse">
<stop stop-color="#FFDF6B"/>
<stop offset="1" stop-color="#F8A60A"/>
</linearGradient>
<linearGradient id="paint12_linear_3_29840" x1="22.0517" y1="5.06176" x2="22.0517" y2="13.5866" gradientUnits="userSpaceOnUse">
<stop stop-color="#75756F"/>
<stop offset="1" stop-color="#3A342A"/>
</linearGradient>
<linearGradient id="paint13_linear_3_29840" x1="19.3242" y1="6.76758" x2="19.3242" y2="10.1931" gradientUnits="userSpaceOnUse">
<stop stop-color="#FFDF6B"/>
<stop offset="1" stop-color="#F8A60A"/>
</linearGradient>
<linearGradient id="paint14_linear_3_29840" x1="22.7181" y1="5.07617" x2="22.7181" y2="13.5834" gradientUnits="userSpaceOnUse">
<stop stop-color="#75756F"/>
<stop offset="1" stop-color="#3A342A"/>
</linearGradient>
<linearGradient id="paint15_linear_3_29840" x1="20" y1="5.07617" x2="20" y2="8.50171" gradientUnits="userSpaceOnUse">
<stop stop-color="#FFDF6B"/>
<stop offset="1" stop-color="#F8A60A"/>
</linearGradient>
<linearGradient id="paint16_linear_3_29840" x1="2.80469" y1="12.8535" x2="2.80469" y2="15.8882" gradientUnits="userSpaceOnUse">
<stop stop-color="#75756F"/>
<stop offset="1" stop-color="#3A342A"/>
</linearGradient>
<linearGradient id="paint17_linear_3_29840" x1="2.80469" y1="12.8535" x2="2.80469" y2="15.8882" gradientUnits="userSpaceOnUse">
<stop stop-color="#FFDF6B"/>
<stop offset="1" stop-color="#F8A60A"/>
</linearGradient>
<linearGradient id="paint18_linear_3_29840" x1="18.3018" y1="12.8535" x2="18.3018" y2="16.0648" gradientUnits="userSpaceOnUse">
<stop stop-color="#75756F"/>
<stop offset="1" stop-color="#3A342A"/>
</linearGradient>
<linearGradient id="paint19_linear_3_29840" x1="18.3018" y1="12.8535" x2="18.3018" y2="16.0648" gradientUnits="userSpaceOnUse">
<stop stop-color="#FFDF6B"/>
<stop offset="1" stop-color="#F8A60A"/>
</linearGradient>
<linearGradient id="paint20_linear_3_29840" x1="7.48486" y1="2.37305" x2="7.48486" y2="4.56598" gradientUnits="userSpaceOnUse">
<stop stop-color="#75756F"/>
<stop offset="1" stop-color="#3A342A"/>
</linearGradient>
<linearGradient id="paint21_linear_3_29840" x1="7.48486" y1="2.37305" x2="7.48486" y2="4.56598" gradientUnits="userSpaceOnUse">
<stop stop-color="#FFDF6B"/>
<stop offset="1" stop-color="#F8A60A"/>
</linearGradient>
<linearGradient id="paint22_linear_3_29840" x1="4.44238" y1="13.9102" x2="4.44238" y2="18.9614" gradientUnits="userSpaceOnUse">
<stop stop-color="#F39C05"/>
<stop offset="1" stop-color="#F59100"/>
</linearGradient>
<linearGradient id="paint23_linear_3_29840" x1="4.44238" y1="13.9102" x2="4.44238" y2="18.9614" gradientUnits="userSpaceOnUse">
<stop stop-color="#FFBA45"/>
<stop offset="1" stop-color="#F59100"/>
</linearGradient>
<linearGradient id="paint24_linear_3_29840" x1="5.11865" y1="3.70703" x2="5.11865" y2="6.9412" gradientUnits="userSpaceOnUse">
<stop stop-color="#75756F"/>
<stop offset="1" stop-color="#3A342A"/>
</linearGradient>
<linearGradient id="paint25_linear_3_29840" x1="5.11865" y1="3.70703" x2="5.11865" y2="6.9412" gradientUnits="userSpaceOnUse">
<stop stop-color="#FFDF6B"/>
<stop offset="1" stop-color="#F8A60A"/>
</linearGradient>
<linearGradient id="paint26_linear_3_29840" x1="11.8789" y1="3.70703" x2="11.8789" y2="6.9412" gradientUnits="userSpaceOnUse">
<stop stop-color="#75756F"/>
<stop offset="1" stop-color="#3A342A"/>
</linearGradient>
<linearGradient id="paint27_linear_3_29840" x1="11.8789" y1="3.70703" x2="11.8789" y2="6.9412" gradientUnits="userSpaceOnUse">
<stop stop-color="#FFDF6B"/>
<stop offset="1" stop-color="#F8A60A"/>
</linearGradient>
<linearGradient id="paint28_linear_3_29840" x1="2.75244" y1="3.05078" x2="2.75244" y2="18.6003" gradientUnits="userSpaceOnUse">
<stop stop-color="#FDE046"/>
<stop offset="1" stop-color="#F9B800"/>
</linearGradient>
<linearGradient id="paint29_linear_3_29840" x1="5.11816" y1="5.41797" x2="5.11816" y2="16.235" gradientUnits="userSpaceOnUse">
<stop stop-color="#FFF550"/>
<stop offset="1" stop-color="#FFD541"/>
</linearGradient>
<linearGradient id="paint30_linear_3_29840" x1="10.5267" y1="13.5345" x2="10.5267" y2="10.4922" gradientUnits="userSpaceOnUse">
<stop stop-color="#878787"/>
<stop offset="1" stop-color="#1F1F1F"/>
</linearGradient>
<linearGradient id="paint31_linear_3_29840" x1="11.5409" y1="13.5345" x2="11.5409" y2="10.4922" gradientUnits="userSpaceOnUse">
<stop stop-color="#878787"/>
<stop offset="1" stop-color="#4E4E4E"/>
</linearGradient>
<linearGradient id="paint32_linear_3_29840" x1="13.569" y1="10.4889" x2="13.569" y2="8.73242" gradientUnits="userSpaceOnUse">
<stop stop-color="white"/>
<stop offset="1" stop-color="#A8A8A8"/>
</linearGradient>
<linearGradient id="paint33_linear_3_29840" x1="8.16044" y1="10.4889" x2="8.16044" y2="9.02517" gradientUnits="userSpaceOnUse">
<stop stop-color="#818181"/>
<stop offset="1" stop-color="#A0A0A0"/>
</linearGradient>
<linearGradient id="paint34_linear_3_29840" x1="10.1888" y1="10.4889" x2="10.1888" y2="9.02517" gradientUnits="userSpaceOnUse">
<stop stop-color="#818181"/>
<stop offset="1" stop-color="#A0A0A0"/>
</linearGradient>
<linearGradient id="paint35_linear_3_29840" x1="12.2171" y1="10.4889" x2="12.2171" y2="9.02517" gradientUnits="userSpaceOnUse">
<stop stop-color="#818181"/>
<stop offset="1" stop-color="#A0A0A0"/>
</linearGradient>
</defs>
</svg>
