<svg width="16" height="17" viewBox="0 0 16 17" fill="none" xmlns="http://www.w3.org/2000/svg">
<path d="M11.8638 2.56689C12.6317 2.56689 13.0232 2.6425 13.4307 2.86042C13.8069 3.06159 14.1057 3.3604 14.3069 3.73656C14.508 4.1127 14.5879 4.47521 14.599 5.13276L14.6004 5.30347V8.50023C14.6004 8.8316 14.3318 9.10023 14.0004 9.10023C13.6945 9.10023 13.4421 8.87134 13.4051 8.57549L13.4004 8.50023L13.3997 6.43356H2.59972L2.60039 10.3637C2.60039 10.9504 2.63985 11.1548 2.75209 11.3646C2.84143 11.5317 2.96893 11.6592 3.13598 11.7485C3.3297 11.8521 3.51872 11.8937 4.00817 11.8995L4.13696 11.9002H12.5517L11.5761 10.9245C11.3613 10.7097 11.3434 10.3726 11.5224 10.1374L11.5761 10.076C11.7909 9.86117 12.128 9.84328 12.3632 10.0223L12.4247 10.076L14.4247 12.076C14.6394 12.2908 14.6573 12.6279 14.4784 12.863L14.4247 12.9245L12.4247 14.9245C12.1903 15.1588 11.8104 15.1588 11.5761 14.9245C11.3613 14.7097 11.3434 14.3726 11.5224 14.1374L11.5761 14.076L12.5517 13.1002H4.13696C3.42811 13.1002 3.03999 13.0358 2.66399 12.8545L2.57006 12.8067C2.19389 12.6055 1.89509 12.3067 1.69391 11.9306C1.49276 11.5544 1.41286 11.1919 1.40176 10.5344L1.40039 10.3637V5.30347C1.40039 4.53554 1.47599 4.14404 1.69391 3.73656C1.89509 3.3604 2.19389 3.06159 2.57006 2.86042C2.94619 2.65926 3.30871 2.57937 3.96625 2.56827L4.13696 2.56689H11.8638ZM11.8638 3.76689H4.13696C3.55019 3.76689 3.34584 3.80636 3.13598 3.91859C2.96893 4.00793 2.84143 4.13544 2.75209 4.30248C2.64849 4.4962 2.60689 4.68523 2.60111 5.17467L2.60039 5.23356H13.3991L13.3997 5.17467C13.3939 4.68523 13.3523 4.4962 13.2487 4.30248C13.1594 4.13544 13.0318 4.00793 12.8648 3.91859C12.6711 3.81499 12.4821 3.7734 11.9926 3.76761L11.8638 3.76689Z" fill="#1C1917"/>
</svg>
