<svg width="16" height="16" viewBox="0 0 16 16" fill="none" xmlns="http://www.w3.org/2000/svg">
<path d="M9.90007 5.3002C9.90007 4.25032 9.04994 3.4002 8.00007 3.4002C6.95019 3.4002 6.10006 4.25032 6.10006 5.3002C6.10006 6.35007 6.95019 7.2002 8.00007 7.2002C9.04994 7.2002 9.90007 6.35007 9.90007 5.3002ZM11.1001 5.3002C11.1001 7.01282 9.71269 8.4002 8.00007 8.4002C6.28744 8.4002 4.90007 7.01282 4.90007 5.3002C4.90007 3.58757 6.28744 2.2002 8.00007 2.2002C9.71269 2.2002 11.1001 3.58757 11.1001 5.3002ZM3.9334 12.2859C3.9334 12.7985 3.87289 12.7335 4.15693 12.7335H11.8432C12.1272 12.7335 12.0667 12.7985 12.0667 12.2859C12.0667 11.0242 10.2146 10.2669 8.00007 10.2669C5.78553 10.2669 3.9334 11.0242 3.9334 12.2859ZM2.7334 12.2859C2.7334 10.068 5.18192 9.06686 8.00007 9.06686C10.8182 9.06686 13.2667 10.068 13.2667 12.2859C13.2667 13.443 12.8097 13.9335 11.8432 13.9335H4.15693C3.19042 13.9335 2.7334 13.443 2.7334 12.2859Z" fill="#1C1917"/>
</svg>
