<svg width="16" height="17" viewBox="0 0 16 17" fill="none" xmlns="http://www.w3.org/2000/svg">
<path fill-rule="evenodd" clip-rule="evenodd" d="M4.74075 3.20005C4.97768 3.20005 5.01133 3.20298 5.03771 3.20849C5.07826 3.21696 5.11725 3.23167 5.15328 3.2521C5.17673 3.26539 5.20392 3.28542 5.3818 3.44195L6.15036 4.11827L6.18098 4.14526C6.31795 4.26607 6.44908 4.38172 6.60302 4.46685C6.73798 4.54149 6.88302 4.59622 7.03364 4.62934C7.20545 4.66713 7.38029 4.66693 7.56292 4.66672L7.60374 4.66669H10.5333C11.1033 4.66669 11.4947 4.66716 11.7981 4.69195C12.0945 4.71617 12.2537 4.76057 12.3689 4.81928C12.6323 4.95351 12.8465 5.16768 12.9807 5.4311C13.0703 5.60691 13.1112 5.73214 13.1257 6.22872C13.1353 6.55994 13.4116 6.82065 13.7429 6.81102C14.0741 6.80138 14.3348 6.52506 14.3252 6.19383C14.3083 5.61326 14.2539 5.28665 14.0499 4.88632C13.8007 4.3971 13.4029 3.99935 12.9137 3.75008C12.6011 3.59081 12.2664 3.52622 11.8958 3.49594C11.5377 3.46669 11.0972 3.46669 10.5585 3.4667H10.5585L7.60374 3.4667C7.35443 3.4667 7.31911 3.46345 7.29141 3.45736C7.25375 3.44908 7.21749 3.4354 7.18375 3.41674C7.15893 3.40301 7.13027 3.38211 6.94311 3.21742L6.17455 2.54109L6.14543 2.51543C6.01523 2.4006 5.89062 2.29071 5.7452 2.20825C5.60108 2.12652 5.44513 2.06768 5.28294 2.03382C5.1193 1.99966 4.95316 1.99984 4.77955 2.00003L4.74075 2.00006L4.71689 2.00006C4.20503 2.00005 3.78641 2.00004 3.44565 2.02653C3.09312 2.05393 2.77408 2.11232 2.47385 2.2566C1.94162 2.51236 1.51231 2.94167 1.25655 3.47389C1.11227 3.77413 1.05387 4.09317 1.02647 4.44569C0.999989 4.78644 0.999994 5.20506 1 5.71691V5.71692V9.55847V9.55849C0.999994 10.0972 0.999988 10.5377 1.02924 10.8958C1.05952 11.2664 1.12411 11.6011 1.28338 11.9137C1.53265 12.4029 1.9304 12.8007 2.41963 13.0499C2.73222 13.2092 3.06694 13.2738 3.43755 13.3041C3.7956 13.3333 4.23616 13.3333 4.77487 13.3333H6.5615C6.89287 13.3333 7.1615 13.0647 7.1615 12.7333C7.1615 12.402 6.89287 12.1333 6.5615 12.1333H4.8C4.23005 12.1333 3.83867 12.1329 3.53526 12.1081C3.23886 12.0839 3.07964 12.0394 2.96441 11.9807C2.70099 11.8465 2.48681 11.6323 2.35259 11.3689C2.29388 11.2537 2.24947 11.0945 2.22526 10.7981C2.20047 10.4947 2.2 10.1033 2.2 9.53334V5.74078C2.2 5.19927 2.20042 4.82743 2.22286 4.53868C2.2448 4.25643 2.28508 4.10408 2.33814 3.99366C2.47586 3.70707 2.70703 3.47591 2.99361 3.33819C3.10403 3.28513 3.25638 3.24485 3.53864 3.22291C3.82739 3.20047 4.19923 3.20005 4.74075 3.20005ZM11.6667 7.33336C12.5875 7.33336 13.3333 8.07919 13.3333 9.00002C13.3333 9.92085 12.5875 10.6667 11.6667 10.6667C10.7458 10.6667 10 9.92085 10 9.00002C10 8.07919 10.7458 7.33336 11.6667 7.33336ZM8.33333 13.5813V13.1667C8.33333 11.7083 10.5542 11.2917 11.6667 11.2917C12.7792 11.2917 15 11.7083 15 13.1667V13.5813C15 13.8125 14.8125 14 14.5813 14H8.75208C8.52081 14 8.33333 13.8125 8.33333 13.5813Z" fill="#57534E"/>
</svg>
