<svg width="16" height="17" viewBox="0 0 16 17" fill="none" xmlns="http://www.w3.org/2000/svg">
<path d="M6.89509 13.2334H5.13359C4.01349 13.2334 3.45344 13.2334 3.02561 13.0154C2.64929 12.8237 2.34333 12.5177 2.15158 12.1414C1.93359 11.7136 1.93359 11.1535 1.93359 10.0334V6.24084C1.93359 5.1766 1.93359 4.64448 2.13094 4.23382C2.32768 3.82442 2.65792 3.49418 3.06732 3.29744C3.47798 3.1001 4.0101 3.1001 5.07434 3.1001C5.28667 3.1001 5.39283 3.1001 5.49392 3.1212C5.59529 3.14236 5.69276 3.17914 5.78284 3.23022C5.87267 3.28116 5.95237 3.35129 6.11176 3.49156L6.88033 4.1679C7.04803 4.31547 7.13188 4.38926 7.22698 4.44185C7.31133 4.48849 7.40198 4.5227 7.49611 4.5434C7.60225 4.56675 7.71394 4.56675 7.93733 4.56675H10.8669C11.987 4.56675 12.5471 4.56675 12.9749 4.78473C13.3512 4.97648 13.6572 5.28244 13.8489 5.65877C13.9957 5.94684 14.0433 6.17276 14.059 6.71133" stroke="#1C1917" stroke-linecap="round"/>
<path d="M13.667 9.50016C13.667 8.57933 12.9212 7.8335 12.0003 7.8335C11.0795 7.8335 10.3337 8.57933 10.3337 9.50016C10.3337 10.421 11.0795 11.1668 12.0003 11.1668C12.9212 11.1668 13.667 10.421 13.667 9.50016ZM8.66699 13.6668V14.0814C8.66699 14.3127 8.85447 14.5002 9.08574 14.5002H14.9149C15.1462 14.5002 15.3337 14.3127 15.3337 14.0814V13.6668C15.3337 12.2085 13.1128 11.7918 12.0003 11.7918C10.8878 11.7918 8.66699 12.2085 8.66699 13.6668Z" fill="#1C1917"/>
</svg>
