<svg width="16" height="16" viewBox="0 0 16 16" fill="none" xmlns="http://www.w3.org/2000/svg">
<path d="M8 3C11.4998 3 15 5.86302 15 8C15 10.137 11.4998 13 8 13C4.50019 13 1 10.137 1 8C1 5.86302 4.50019 3 8 3ZM8 4.21622C5.12088 4.21622 2.21154 6.59594 2.21154 8C2.21154 9.40406 5.12088 11.7838 8 11.7838C10.8791 11.7838 13.7885 9.40406 13.7885 8C13.7885 6.59594 10.8791 4.21622 8 4.21622ZM8 5.7027C9.26388 5.7027 10.2885 6.73124 10.2885 8C10.2885 9.26876 9.26388 10.2973 8 10.2973C6.73612 10.2973 5.71154 9.26876 5.71154 8C5.71154 6.73124 6.73612 5.7027 8 5.7027ZM8 6.91892C7.40523 6.91892 6.92308 7.40294 6.92308 8C6.92308 8.59706 7.40523 9.08108 8 9.08108C8.59477 9.08108 9.07692 8.59706 9.07692 8C9.07692 7.40294 8.59477 6.91892 8 6.91892Z" fill="#1C1917"/>
</svg>
