<svg width="20" height="20" viewBox="0 0 20 20" fill="none" xmlns="http://www.w3.org/2000/svg">
<path d="M17.143 9.17392C17.143 8.41087 17.0905 8.13923 16.9412 7.85999C16.821 7.63526 16.6489 7.46316 16.4242 7.34298C16.145 7.19364 15.8733 7.14118 15.1103 7.14118H2.85728V13.6799C2.85728 14.4429 2.90974 14.7146 3.05908 14.9938C3.17926 15.2185 3.35136 15.3906 3.57609 15.5108C3.85533 15.6602 4.12697 15.7126 4.89002 15.7126H16.1323L15.2093 14.7891C14.9304 14.5102 14.9304 14.0579 15.2093 13.779C15.4883 13.5 15.9406 13.5 16.2195 13.779L18.3624 15.9218C18.6413 16.2008 18.6413 16.653 18.3624 16.932L16.2195 19.0748C15.9406 19.3538 15.4883 19.3538 15.2093 19.0748C14.9304 18.7959 14.9304 18.3436 15.2093 18.0647L16.1323 17.1412H4.89002C3.91131 17.1412 3.41686 17.0457 2.90238 16.7705C2.42869 16.5172 2.05267 16.1412 1.79934 15.6675C1.52419 15.153 1.42871 14.6586 1.42871 13.6799V5.71261H1.43014L1.43022 5.67354C1.44243 4.95902 1.53031 4.56028 1.75164 4.14643C1.97384 3.73095 2.30419 3.4006 2.71967 3.1784C3.16801 2.93862 3.59862 2.85547 4.43218 2.85547H12.711C13.5445 2.85547 13.9751 2.93862 14.4235 3.1784C14.8389 3.4006 15.1693 3.73095 15.3915 4.14643C15.6183 4.57054 15.705 4.97877 15.7137 5.72723C16.3173 5.76599 16.7017 5.87133 17.0979 6.08324C17.5716 6.33657 17.9476 6.71259 18.2009 7.18628C18.4761 7.70077 18.5716 8.19521 18.5716 9.17392V12.1412C18.5716 12.5357 18.2518 12.8555 17.8573 12.8555C17.4628 12.8555 17.143 12.5357 17.143 12.1412V9.17392ZM14.2859 10.7126C14.6803 10.7126 15.0001 11.0324 15.0001 11.4269C15.0001 11.8214 14.6803 12.1412 14.2859 12.1412H12.8573C12.4628 12.1412 12.143 11.8214 12.143 11.4269C12.143 11.0324 12.4628 10.7126 12.8573 10.7126H14.2859ZM12.711 4.28404H4.43218C3.81428 4.28404 3.60648 4.32417 3.39338 4.43813C3.22686 4.52719 3.10043 4.65361 3.01137 4.82014C2.90692 5.01546 2.86449 5.20633 2.85814 5.71261H14.285C14.2786 5.20633 14.2362 5.01546 14.1318 4.82014C14.0427 4.65361 13.9163 4.52719 13.7498 4.43813C13.5367 4.32417 13.3289 4.28404 12.711 4.28404Z" fill="#78716C"/>
</svg>
