<svg width="53" height="24" viewBox="0 0 53 24" fill="none" xmlns="http://www.w3.org/2000/svg">
<path d="M16.3797 7.87072C16.2152 7.31559 15.9842 6.82509 15.6865 6.39924C15.3888 5.96578 15.0246 5.60076 14.5937 5.30418C14.1707 5 13.685 4.76806 13.1367 4.60837C12.5962 4.44867 11.9969 4.36882 11.3389 4.36882C10.1091 4.36882 9.02805 4.6654 8.09587 5.25855C7.17152 5.85171 6.45085 6.71483 5.93384 7.84791C5.41683 8.97338 5.15833 10.3498 5.15833 11.9772C5.15833 13.6046 5.41291 14.9886 5.92209 16.1293C6.43126 17.27 7.15194 18.1407 8.08412 18.7414C9.0163 19.3346 10.1169 19.6312 11.3859 19.6312C12.5374 19.6312 13.5205 19.4335 14.3352 19.038C15.1577 18.635 15.7844 18.0684 16.2152 17.3384C16.6539 16.6084 16.8732 15.7452 16.8732 14.749L17.9073 14.8973H11.7032V11.1787H21.7731V14.1217C21.7731 16.1749 21.3266 17.9392 20.4336 19.4144C19.5405 20.8821 18.3107 22.0152 16.744 22.8137C15.1773 23.6046 13.3834 24 11.3624 24C9.10638 24 7.12452 23.5171 5.41683 22.5513C3.70914 21.5779 2.37745 20.1977 1.42177 18.4106C0.473924 16.616 0 14.4867 0 12.0228C0 10.1293 0.282004 8.44106 0.846013 6.95817C1.41785 5.46768 2.21687 4.20532 3.24305 3.1711C4.26923 2.13688 5.46383 1.34981 6.82685 0.809886C8.18987 0.269962 9.66648 0 11.2567 0C12.6197 0 13.8887 0.193916 15.0637 0.581749C16.2387 0.961978 17.2806 1.5019 18.1893 2.20152C19.1058 2.90114 19.8539 3.73384 20.4336 4.69962C21.0132 5.65779 21.3853 6.71483 21.5498 7.87072H16.3797Z" fill="#404040"/>
<path d="M26.5 1.05595C27.8053 1.05595 28.8635 2.08319 28.8635 3.35035C28.8635 4.61752 27.8053 5.64476 26.5 5.64476C25.1947 5.64476 24.1365 4.61752 24.1365 3.35035C24.1365 2.08319 25.1947 1.05595 26.5 1.05595Z" fill="#1D4ED8"/>
<path d="M28.8635 7.93916V24H24.1365V7.93916H28.8635Z" fill="#404040"/>
<path d="M47.6067 7.87072C47.4422 7.31559 47.2111 6.82509 46.9134 6.39924C46.6157 5.96578 46.2515 5.60076 45.8206 5.30418C45.3976 5 44.912 4.76806 44.3636 4.60837C43.8231 4.44867 43.2239 4.36882 42.5658 4.36882C41.336 4.36882 40.255 4.6654 39.3228 5.25855C38.3984 5.85171 37.6778 6.71483 37.1608 7.84791C36.6438 8.97338 36.3853 10.3498 36.3853 11.9772C36.3853 13.6046 36.6398 14.9886 37.149 16.1293C37.6582 17.27 38.3789 18.1407 39.311 18.7414C40.2432 19.3346 41.3438 19.6312 42.6128 19.6312C43.7644 19.6312 44.7475 19.4335 45.5621 19.038C46.3846 18.635 47.0113 18.0684 47.4422 17.3384C47.8808 16.6084 48.1002 15.7452 48.1002 14.749L49.1342 14.8973H42.9301V11.1787H53V14.1217C53 16.1749 52.5535 17.9392 51.6605 19.4144C50.7675 20.8821 49.5376 22.0152 47.9709 22.8137C46.4042 23.6046 44.6104 24 42.5893 24C40.3333 24 38.3514 23.5171 36.6438 22.5513C34.9361 21.5779 33.6044 20.1977 32.6487 18.4106C31.7008 16.616 31.2269 14.4867 31.2269 12.0228C31.2269 10.1293 31.5089 8.44106 32.0729 6.95817C32.6448 5.46768 33.4438 4.20532 34.47 3.1711C35.4962 2.13688 36.6908 1.34981 38.0538 0.809886C39.4168 0.269962 40.8934 0 42.4836 0C43.8466 0 45.1156 0.193916 46.2906 0.581749C47.4657 0.961978 48.5075 1.5019 49.4162 2.20152C50.3327 2.90114 51.0808 3.73384 51.6605 4.69962C52.2402 5.65779 52.6122 6.71483 52.7767 7.87072H47.6067Z" fill="#404040"/>
</svg>
